{
.appVersion = "3343";
.formatVersion = 3;
customParameters = (
{
name = panose;
value = (
0,
0,
0,
0,
0,
0,
0,
0,
0,
0
);
},
{
name = unicodeRanges;
value = (
0,
1,
2,
3,
4,
5,
6,
7,
9,
29,
31,
32,
33,
35,
36,
37,
38,
42,
45,
47,
60,
62
);
},
{
name = fsType;
value = (
);
},
{
name = glyphOrder;
value = (
.notdef,
CR,
space,
A,
Aacute,
Abreve,
uni01CD,
Acircumflex,
Adieresis,
Agrave,
Amacron,
Aogonek,
Aring,
Atilde,
AE,
AEacute,
B,
C,
Cacute,
Ccaron,
Ccedilla,
Cdotaccent,
D,
Dcaron,
Dcroat,
Eth,
E,
Eacute,
Ebreve,
Ecaron,
Ecircumflex,
Edieresis,
Edotaccent,
Egrave,
Emacron,
Eogonek,
uni018E,
uni1EBC,
uni018F,
F,
G,
Gbreve,
uni0122,
Gdotaccent,
H,
Hbar,
I,
IJ,
Iacute,
Ibreve,
Icircumflex,
Idieresis,
Idotaccent,
Igrave,
Imacron,
Iogonek,
Itilde,
J,
uni004A0301,
K,
uni0136,
L,
Lacute,
Lcaron,
uni013B,
Ldot,
Lslash,
M,
N,
Nacute,
Ncaron,
uni0145,
Ntilde,
Eng,
O,
Oacute,
Obreve,
Ocircumflex,
Odieresis,
Ograve,
Ohungarumlaut,
Omacron,
Oslash,
Otilde,
OE,
P,
Thorn,
Q,
R,
Racute,
Rcaron,
uni0156,
S,
Sacute,
Scaron,
Scedilla,
uni0218,
uni1E9E,
T,
Tcaron,
uni0162,
uni021A,
U,
Uacute,
Ubreve,
Ucircumflex,
Udieresis,
Ugrave,
Uhungarumlaut,
Umacron,
Uogonek,
Uring,
Utilde,
V,
W,
Wacute,
Wcircumflex,
Wdieresis,
Wgrave,
X,
Y,
Yacute,
Ycircumflex,
Ydieresis,
Ygrave,
uni1EF8,
Z,
Zacute,
Zcaron,
Zdotaccent,
uniA78B,
a,
aacute,
abreve,
uni01CE,
acircumflex,
adieresis,
agrave,
amacron,
aogonek,
aring,
atilde,
ae,
aeacute,
b,
c,
cacute,
ccaron,
ccedilla,
cdotaccent,
d,
dcaron,
dcroat,
eth,
e,
eacute,
ebreve,
ecaron,
ecircumflex,
edieresis,
edotaccent,
egrave,
emacron,
eogonek,
uni1EBD,
uni0259,
f,
g,
gbreve,
uni0123,
gdotaccent,
h,
hbar,
i,
dotlessi,
iacute,
ibreve,
icircumflex,
idieresis,
i.loclTRK,
igrave,
imacron,
iogonek,
itilde,
ij,
j,
uni0237,
uni006A0301,
k,
uni0137,
l,
lacute,
lcaron,
uni013C,
ldot,
lslash,
m,
n,
nacute,
ncaron,
uni0146,
ntilde,
eng,
o,
oacute,
obreve,
ocircumflex,
odieresis,
ograve,
ohungarumlaut,
omacron,
oslash,
otilde,
oe,
p,
thorn,
q,
r,
racute,
rcaron,

glyphs = (
{
glyphname = .notdef;
layers = (
{
layerId = m01;
shapes = (
{
closed = 1;
nodes = (
(465,0,l),
(465,700,l),
(64,700,l),
(64,0,l)
);
},
{
closed = 1;
nodes = (
(134,643,l),
(395,643,l),
(395,57,l),
(134,57,l)
);
}
);
userData = {
assembly = "NPUSHB[ ]	/* 38 values pushed */
0 0 0 2 3 0 2 103 4 1 3 1 1 3 87 4 1 3 3 1 95 0 1 3 1 79 4 4 4 7 4 7 18 17 16 5 6 25
CALL[ ]	/* CallFunction */";
};
width = 529;
}
);
note = .notdef;
},
{
glyphname = A;
kernLeft = A;
kernRight = A;
layers = (
{
anchors = (
{
name = bottom;
pos = (342,0);
},
{
name = ogonek;
pos = (661,0);
},
{
name = top;
pos = (342,700);
}
);
layerId = m01;
shapes = (
{
closed = 1;
nodes = (
(141,0,l),
(200,166,l),
(483,166,l),
(541,0,l),
(661,0,l),
(405,700,l),
(279,700,l),
(23,0,l)
);
},
{
closed = 1;
nodes = (
(341,567,l),
(451,257,l),
(233,257,l)
);
}
);
userData = {
assembly = "NPUSHB[ ]	/* 40 values pushed */
9 1 4 0 1 76 5 1 4 0 2 1 4 2 104 0 0 0 33 77 3 1 1 1 34 1 78 8 8 8 10 8 10 17 17 17 16 6 8 26
CALL[ ]	/* CallFunction */";
};
width = 684;
}
);
note = A;
unicode = 65;
},
{
glyphname = Aogonek;
kernLeft = A;
layers = (
{
anchors = (
{
name = bottom;
pos = (342,0);
},
{
name = ogonek;
pos = (661,0);
},
{
name = top;
pos = (342,700);
}
);
layerId = m01;
shapes = (
{
closed = 1;
nodes = (
(141,0,l),
(200,166,l),
(483,166,l),
(538,9,l),
(493,-17,o),
(455,-74,o),
(455,-107,qs),
(455,-157,o),
(527,-208,o),
(583,-208,qs),
(622,-208,o),
(666,-194,q),
(666,-125,l),
(629,-140,o),
(597,-140,qs),
(572,-140,o),
(542,-116,o),
(542,-96,qs),
(542,-77,o),
(573,-44,o),
(608,-27,qs),
(662,0,l),
(658,7,l),
(405,700,l),
(279,700,l),
(23,0,l)
);
},
{
closed = 1;
nodes = (
(341,567,l),
(451,257,l),
(233,257,l)
);
}
);
userData = {
assembly = "NPUSHB[ ]	/* 23 values pushed */
27 1 5 0 21 1 4 3 12 1 1 4 13 1 2 1 4 76 3 1 4 1 75
MPPEM[ ]	/* MeasurePixelPerEm */
PUSHB[ ]	/* 1 value pushed */
41
LT[ ]	/* LessThan */
IF[ ]	/* If */
NPUSHB[ ]	/* 30 values pushed */
6 1 5 0 3 4 5 3 104 0 0 0 33 77 0 4 4 34 77 0 1 1 2 97 0 2 2 38 2 78
ELSE[ ]	/* Else */
NPUSHB[ ]	/* 27 values pushed */
6 1 5 0 3 4 5 3 104 0 1 0 2 1 2 101 0 0 0 33 77 0 4 4 34 4 78
EIF[ ]	/* EndIf */
NPUSHB[ ]	/* 14 values pushed */
26 26 26 28 26 28 17 22 35 40 16 7 8 27
CALL[ ]	/* CallFunction */";
};
width = 684;
}
);
note = Aogonek;
unicode = 260;
},
{
glyphname = AE;
kernLeft = AE;
layers = (
{
anchors = (
{
name = bottom;
pos = (463,0);
},
{
name = top;
pos = (539,700);
}
);
layerId = m01;
shapes = (
{
closed = 1;
nodes = (
(146,0,l),
(225,144,l),
(482,144,l),
(482,0,l),
(872,0,l),
(872,95,l),
(595,95,l),
(595,323,l),
(827,323,l),
(827,418,l),
(595,418,l),
(595,605,l),
(872,605,l),
(872,700,l),
(408,700,l),
(23,0,l)
);
},
{
closed = 1;
nodes = (
(482,612,l),
(482,233,l),
(274,233,l)
);
}
);
userData = {
assembly = "NPUSHB[ ]	/* 62 values pushed */
17 1 1 0 1 76 0 2 0 3 8 2 3 103 9 1 8 0 6 4 8 6 103 0 1 1 0 95 0 0 0 33 77 0 4 4 5 95 7 1 5 5 34 5 78 16 16 16 18 16 18 17 17 17 17 17 17 17 16 10 8 30
CALL[ ]	/* CallFunction */";
};
width = 924;
}
);
note = AE;
unicode = 198;
},
{
glyphname = B;
kernRight = B;
layers = (
{
layerId = m01;
shapes = (
{
closed = 1;
nodes = (
(349,0,ls),
(422,0,o),
(524,51,o),
(577,141,o),
(577,198,qs),
(577,259,o),
(503,355,o),
(444,376,q),
(489,394,o),
(545,470,o),
(545,526,qs),
(545,605,o),
(428,700,o),
(324,700,qs),
(67,700,l),
(67,0,l)
);
},
{
closed = 1;
nodes = (
(181,96,l),
(181,320,l),
(331,320,ls),
(394,320,o),
(462,263,o),
(462,208,qs),
(462,96,o),
(333,96,qs)
);
},
{
closed = 1;
nodes = (
(181,415,l),
(181,604,l),
(313,604,ls),
(429,604,o),
(429,510,qs),
(429,464,o),
(372,415,o),
(315,415,qs)
);
}
);
userData = {
assembly = "NPUSHB[ ]	/* 57 values pushed */
7 1 2 5 1 76 7 1 5 0 2 3 5 2 103 0 4 4 0 95 0 0 0 33 77 6 1 3 3 1 95 0 1 1 34 1 78 24 24 16 16 24 31 24 30 29 27 16 23 16 22 36 43 32 8 8 25
CALL[ ]	/* CallFunction */";
};
width = 616;
}
);
note = B;
unicode = 66;
},
{
glyphname = C;
kernLeft = C;
kernRight = C;
layers = (
{
anchors = (
{
name = bottom;
pos = (381,0);
},
{
name = top;
pos = (380,700);
}
);
layerId = m01;
shapes = (
{
closed = 1;
nodes = (
(504,-12,o),
(663,107,o),
(683,213,q),
(558,213,l),
(544,155,o),
(453,89,o),
(380,89,qs),
(276,89,o),
(159,230,o),
(159,349,qs),
(159,468,o),
(275,610,o),
(380,610,qs),
(453,610,o),
(544,542,o),
(558,481,q),
(683,481,l),
(663,591,o),
(505,712,o),
(381,712,qs),
(275,712,o),
(122,618,o),
(43,453,o),
(43,349,qs),
(43,245,o),
(123,81,o),
(276,-12,o),
(381,-12,qs)
);
}
);
userData = {
assembly = "NPUSHB[ ]	/* 51 values pushed */
0 1 2 4 2 1 4 128 0 4 3 2 4 3 126 0 2 2 0 97 0 0 0 39 77 0 3 3 5 97 6 1 5 5 40 5 78 0 0 0 27 0 26 18 36 34 18 38 7 8 27
CALL[ ]	/* CallFunction */";
};
width = 726;
}
);
note = C;
unicode = 67;
},
{
glyphname = Ccedilla;
kernLeft = C;
kernRight = C;
layers = (
{
anchors = (
{
name = bottom;
pos = (381,-262);
},
{
name = top;
pos = (380,700);
}
);
layerId = m01;
shapes = (
{
closed = 1;
nodes = (
(419,-262,ls),
(474,-262,o),
(546,-206,o),
(546,-156,qs),
(546,-106,o),
(473,-53,o),
(416,-54,q),
(416,-11,l),
(525,-3,o),
(664,114,o),
(683,213,q),
(558,213,l),
(544,155,o),
(453,89,o),
(380,89,qs),
(276,89,o),
(159,230,o),
(159,349,qs),
(159,468,o),
(275,610,o),
(380,610,qs),
(453,610,o),
(544,542,o),
(558,481,q),
(683,481,l),
(663,591,o),
(505,712,o),
(381,712,qs),
(275,712,o),
(122,618,o),
(43,453,o),
(43,349,qs),
(43,251,o),
(114,94,o),
(250,-2,o),
(344,-10,q),
(344,-116,l),
(401,-116,ls),
(459,-116,o),
(459,-155,qs),
(459,-195,o),
(401,-195,qs),
(296,-195,l),
(296,-262,l)
);
}
);
userData = {
assembly = "PUSHB[ ]	/* 7 values pushed */
35 7 2 7 5 1 76
MPPEM[ ]	/* MeasurePixelPerEm */
PUSHB[ ]	/* 1 value pushed */
9
LT[ ]	/* LessThan */
IF[ ]	/* If */
NPUSHB[ ]	/* 47 values pushed */
0 3 4 6 4 3 6 128 0 6 5 4 6 5 126 0 5 7 7 5 112 0 7 0 1 0 7 1 106 0 0 0 8 0 8 99 0 4 4 2 97 0 2 2 39 4 78
ELSE[ ]	/* Else */
NPUSHB[ ]	/* 48 values pushed */
0 3 4 6 4 3 6 128 0 6 5 4 6 5 126 0 5 7 4 5 7 126 0 7 0 1 0 7 1 106 0 0 0 8 0 8 99 0 4 4 2 97 0 2 2 39 4 78
EIF[ ]	/* EndIf */
NPUSHB[ ]	/* 12 values pushed */
36 20 18 36 34 18 40 34 32 9 8 31
CALL[ ]	/* CallFunction */";
};
width = 726;
}
);
note = Ccedilla;
unicode = 199;
},
{
glyphname = D;
kernRight = D;
layers = (
{
anchors = (
{
name = bottom;
pos = (345,0);
},
{
name = top;
pos = (345,700);
}
);
layerId = m01;
shapes = (
{
closed = 1;
nodes = (
(298,0,ls),
(474,0,o),
(658,182,o),
(658,349,qs),
(658,514,o),
(479,700,o),
(298,700,qs),
(67,700,l),
(67,0,l)
);
},
{
closed = 1;
nodes = (
(181,97,l),
(181,604,l),
(294,604,ls),
(421,604,o),
(541,480,o),
(541,349,qs),
(541,225,o),
(427,97,o),
(294,97,qs)
);
}
);
userData = {
assembly = "NPUSHB[ ]	/* 34 values pushed */
0 2 2 0 95 0 0 0 33 77 4 1 3 3 1 95 0 1 1 34 1 78 9 9 9 17 9 16 37 36 32 5 8 25
CALL[ ]	/* CallFunction */";
};
width = 701;
}
);
note = D;
unicode = 68;
},
{
glyphname = Dcroat;
kernRight = D;
layers = (
{
layerId = m01;
shapes = (
{
closed = 1;
nodes = (
(314,0,ls),
(490,0,o),
(673,181,o),
(673,349,qs),
(673,514,o),
(495,700,o),
(314,700,qs),
(83,700,l),
(83,399,l),
(4,399,l),
(4,300,l),
(83,300,l),
(83,0,l)
);
},
{
closed = 1;
nodes = (
(196,97,l),
(196,300,l),
(382,300,l),
(382,399,l),
(196,399,l),
(196,604,l),
(310,604,ls),
(437,604,o),
(557,480,o),
(557,349,qs),
(557,226,o),
(445,97,o),
(310,97,qs)
);
}
);
userData = {
assembly = "NPUSHB[ ]	/* 48 values pushed */
5 1 1 6 1 0 7 1 0 103 0 4 4 2 95 0 2 2 33 77 8 1 7 7 3 95 0 3 3 34 3 78 13 13 13 25 13 24 17 17 37 36 33 17 16 9 8 29
CALL[ ]	/* CallFunction */";
};
width = 716;
}
);
note = Dcroat;
unicode = 272;
},
{
glyphname = Eth;
kernRight = D;
layers = (
{
layerId = m01;
shapes = (
{
closed = 1;
nodes = (
(314,0,ls),
(490,0,o),
(673,181,o),
(673,349,qs),
(673,514,o),
(495,700,o),
(314,700,qs),
(83,700,l),
(83,399,l),
(4,399,l),
(4,300,l),
(83,300,l),
(83,0,l)
);
},
{
closed = 1;
nodes = (
(196,97,l),
(196,300,l),
(382,300,l),
(382,399,l),
(196,399,l),
(196,604,l),
(310,604,ls),
(437,604,o),
(557,480,o),
(557,349,qs),
(557,226,o),
(445,97,o),
(310,97,qs)
);
}
);
userData = {
assembly = "NPUSHB[ ]	/* 48 values pushed */
5 1 1 6 1 0 7 1 0 103 0 4 4 2 95 0 2 2 33 77 8 1 7 7 3 95 0 3 3 34 3 78 13 13 13 25 13 24 17 17 37 36 33 17 16 9 8 29
CALL[ ]	/* CallFunction */";
};
width = 716;
}
);
note = Eth;
unicode = 208;
},
{
glyphname = E;
kernRight = E;
layers = (
{
anchors = (
{
name = bottom;
pos = (281,0);
},
{
name = ogonek;
pos = (511,0);
},
{
name = top;
pos = (281,700);
}
);
layerId = m01;
shapes = (
{
closed = 1;
nodes = (
(511,0,l),
(511,96,l),
(181,96,l),
(181,322,l),
(466,322,l),
(466,417,l),
(181,417,l),
(181,604,l),
(511,604,l),
(511,700,l),
(67,700,l),
(67,0,l)
);
}
);
userData = {
assembly = "NPUSHB[ ]	/* 38 values pushed */
0 2 0 3 4 2 3 103 0 1 1 0 95 0 0 0 33 77 0 4 4 5 95 0 5 5 34 5 78 17 17 17 17 17 16 6 8 28
CALL[ ]	/* CallFunction */";
};
width = 563;
}
);
note = E;
unicode = 69;
},
{
glyphname = Eogonek;
layers = (
{
anchors = (
{
name = bottom;
pos = (281,0);
},
{
name = ogonek;
pos = (511,0);
},
{
name = top;
pos = (281,700);
}
);
layerId = m01;
shapes = (
{
closed = 1;
nodes = (
(373,0,l),
(304,-45,o),
(304,-107,qs),
(304,-157,o),
(376,-208,o),
(432,-208,qs),
(471,-208,o),
(515,-194,q),
(515,-125,l),
(478,-140,o),
(446,-140,qs),
(421,-140,o),
(391,-116,o),
(391,-96,qs),
(391,-77,o),
(422,-44,o),
(457,-27,qs),
(511,0,l),
(511,96,l),
(181,96,l),
(181,322,l),
(466,322,l),
(466,417,l),
(181,417,l),
(181,604,l),
(511,604,l),
(511,700,l),
(67,700,l),
(67,0,l)
);
}
);
userData = {
assembly = "NPUSHB[ ]	/* 15 values pushed */
19 1 5 7 20 1 6 5 2 76 10 1 7 1 75
MPPEM[ ]	/* MeasurePixelPerEm */
PUSHB[ ]	/* 1 value pushed */
41
LT[ ]	/* LessThan */
IF[ ]	/* If */
NPUSHB[ ]	/* 39 values pushed */
0 2 0 3 4 2 3 103 0 1 1 0 95 0 0 0 33 77 0 4 4 7 95 0 7 7 34 77 0 5 5 6 97 0 6 6 38 6 78
ELSE[ ]	/* Else */
NPUSHB[ ]	/* 36 values pushed */
0 2 0 3 4 2 3 103 0 5 0 6 5 6 101 0 1 1 0 95 0 0 0 33 77 0 4 4 7 95 0 7 7 34 7 78
EIF[ ]	/* EndIf */
NPUSHB[ ]	/* 11 values pushed */
20 35 39 17 17 17 17 16 8 8 30
CALL[ ]	/* CallFunction */";
};
width = 563;
}
);
note = Eogonek;
unicode = 280;
},
{
glyphname = uni018E;
kernRight = uni018E;
layers = (
{
layerId = m01;
shapes = (
{
closed = 1;
nodes = (
(498,0,l),
(498,700,l),
(55,700,l),
(55,604,l),
(385,604,l),
(385,417,l),
(100,417,l),
(100,322,l),
(385,322,l),
(385,96,l),
(55,96,l),
(55,0,l)
);
}
);
userData = {
assembly = "NPUSHB[ ]	/* 38 values pushed */
0 2 0 1 0 2 1 103 0 3 3 4 95 0 4 4 33 77 0 0 0 5 95 0 5 5 34 5 78 17 17 17 17 17 16 6 8 28
CALL[ ]	/* CallFunction */";
};
width = 569;
}
);
note = uni018E;
unicode = (398,477);
},
{
glyphname = uni018F;
kernLeft = uni018F;
kernRight = D;
layers = (
{
layerId = m01;
shapes = (
{
closed = 1;
nodes = (
(477,-12,o),
(553,33,qs),
(630,78,o),
(714,241,o),
(714,347,qs),
(714,457,o),
(671,539,qs),
(629,621,o),
(476,712,o),
(376,712,qs),
(294,712,o),
(228,682,qs),
(162,653,o),
(70,546,o),
(50,476,q),
(176,476,l),
(196,538,o),
(305,609,o),
(377,609,qs),
(440,609,o),
(485,582,qs),
(534,554,o),
(591,452,o),
(594,382,q),
(47,382,l),
(43,355,o),
(43,323,qs),
(43,216,o),
(86,142,qs),
(127,68,o),
(277,-12,o),
(375,-12,qs)
);
},
{
closed = 1;
nodes = (
(311,91,o),
(262,117,qs),
(214,143,o),
(161,235,o),
(160,296,q),
(594,296,l),
(589,229,o),
(560,185,qs),
(530,140,o),
(433,91,o),
(373,91,qs)
);
}
);
userData = {
assembly = "NPUSHB[ ]	/* 60 values pushed */
0 2 1 0 1 2 0 128 0 0 0 5 6 0 5 103 0 1 1 3 97 0 3 3 39 77 8 1 6 6 4 97 7 1 4 4 40 4 78 32 32 0 0 32 42 32 41 37 36 0 31 0 30 36 18 36 22 9 8 26
CALL[ ]	/* CallFunction */";
};
width = 757;
}
);
note = uni018F;
unicode = 399;
},
{
glyphname = F;
kernRight = F;
layers = (
{
layerId = m01;
shapes = (
{
closed = 1;
nodes = (
(181,0,l),
(181,314,l),
(460,314,l),
(460,409,l),
(181,409,l),
(181,604,l),
(503,604,l),
(503,700,l),
(67,700,l),
(67,0,l)
);
}
);
userData = {
assembly = "NPUSHB[ ]	/* 32 values pushed */
0 2 0 3 4 2 3 103 0 1 1 0 95 0 0 0 33 77 0 4 4 34 4 78 17 17 17 17 16 5 8 27
CALL[ ]	/* CallFunction */";
};
width = 533;
}
);
note = F;
unicode = 70;
},
{
glyphname = G;
kernLeft = C;
kernRight = G;
layers = (
{
anchors = (
{
name = bottom;
pos = (382,0);
},
{
name = top;
pos = (382,700);
}
);
layerId = m01;
shapes = (
{
closed = 1;
nodes = (
(452,-12,o),
(558,44,o),
(595,100,q),
(604,0,l),
(708,0,l),
(708,377,l),
(359,377,l),
(359,283,l),
(591,283,l),
(579,191,o),
(475,89,o),
(381,89,qs),
(278,89,o),
(159,227,o),
(159,346,qs),
(159,466,o),
(280,608,o),
(390,608,qs),
(460,608,o),
(552,547,o),
(567,493,q),
(695,493,l),
(671,596,o),
(510,712,o),
(390,712,qs),
(281,712,o),
(124,617,o),
(43,451,o),
(43,347,qs),
(43,242,o),
(124,79,o),
(273,-12,o),
(372,-12,qs)
);
}
);
userData = {
assembly = "PUSHB[ ]	/* 6 values pushed */
29 1 3 4 1 76
MPPEM[ ]	/* MeasurePixelPerEm */
PUSHB[ ]	/* 1 value pushed */
21
LT[ ]	/* LessThan */
IF[ ]	/* If */
NPUSHB[ ]	/* 39 values pushed */
0 1 2 5 2 1 5 128 0 5 0 4 3 5 4 103 0 2 2 0 97 0 0 0 39 77 0 3 3 6 97 8 7 2 6 6 34 6 78
ELSE[ ]	/* Else */
NPUSHB[ ]	/* 43 values pushed */
0 1 2 5 2 1 5 128 0 5 0 4 3 5 4 103 0 2 2 0 97 0 0 0 39 77 0 6 6 34 77 0 3 3 7 97 8 1 7 7 40 7 78
EIF[ ]	/* EndIf */
NPUSHB[ ]	/* 16 values pushed */
0 0 0 32 0 31 17 17 18 36 34 18 38 9 8 29
CALL[ ]	/* CallFunction */";
};
width = 762;
}
);
note = G;
unicode = 71;
},
{
glyphname = H;
kernRight = H;
layers = (
{
layerId = m01;
shapes = (
{
closed = 1;
nodes = (
(181,0,l),
(181,323,l),
(511,323,l),
(511,0,l),
(624,0,l),
(624,700,l),
(511,700,l),
(511,418,l),
(181,418,l),
(181,700,l),
(67,700,l),
(67,0,l)
);
}
);
userData = {
assembly = "NPUSHB[ ]	/* 30 values pushed */
0 1 0 4 3 1 4 103 2 1 0 0 33 77 5 1 3 3 34 3 78 17 17 17 17 17 16 6 8 28
CALL[ ]	/* CallFunction */";
};
width = 692;
}
);
note = H;
unicode = 72;
},
{
glyphname = Hbar;
layers = (
{
layerId = m01;
shapes = (
{
closed = 1;
nodes = (
(181,0,l),
(181,323,l),
(512,323,l),
(512,0,l),
(625,0,l),
(625,500,l),
(668,500,l),
(668,595,l),
(625,595,l),
(625,700,l),
(512,700,l),
(512,595,l),
(181,595,l),
(181,700,l),
(68,700,l),
(68,595,l),
(24,595,l),
(24,500,l),
(68,500,l),
(68,0,l)
);
},
{
closed = 1;
nodes = (
(181,500,l),
(512,500,l),
(512,418,l),
(181,418,l)
);
}
);
userData = {
assembly = "NPUSHB[ ]	/* 56 values pushed */
5 3 2 1 10 6 2 0 11 1 0 103 12 1 11 0 8 7 11 8 103 4 1 2 2 33 77 9 1 7 7 34 7 78 20 20 20 23 20 23 22 21 19 18 17 17 17 17 17 17 17 17 16 13 8 31
CALL[ ]	/* CallFunction */";
};
width = 692;
}
);
note = Hbar;
unicode = 294;
},
{
glyphname = I;
kernRight = I;
layers = (
{
anchors = (
{
name = bottom;
pos = (124,0);
},
{
name = ogonek;
pos = (181,0);
},
{
name = top;
pos = (124,700);
}
);
layerId = m01;
shapes = (
{
closed = 1;
nodes = (
(181,0,l),
(181,700,l),
(67,700,l),
(67,0,l)
);
}
);
userData = {
assembly = "NPUSHB[ ]	/* 16 values pushed */
0 0 0 33 77 0 1 1 34 1 78 17 16 2 8 24
CALL[ ]	/* CallFunction */";
};
width = 248;
}
);
note = I;
unicode = 73;
},
{
glyphname = Iogonek;
layers = (
{
anchors = (
{
name = bottom;
pos = (124,0);
},
{
name = ogonek;
pos = (181,0);
},
{
name = top;
pos = (124,700);
}
);
layerId = m01;
shapes = (
{
closed = 1;
nodes = (
(141,-208,o),
(185,-194,q),
(185,-125,l),
(148,-140,o),
(116,-140,qs),
(91,-140,o),
(61,-116,o),
(61,-96,qs),
(61,-77,o),
(92,-44,o),
(127,-27,qs),
(181,0,l),
(181,700,l),
(67,700,l),
(67,14,l),
(17,-13,o),
(-26,-72,o),
(-26,-107,qs),
(-26,-157,o),
(46,-208,o),
(102,-208,qs)
);
}
);
userData = {
assembly = "NPUSHB[ ]	/* 12 values pushed */
17 8 5 3 1 0 18 1 2 1 2 76
MPPEM[ ]	/* MeasurePixelPerEm */
PUSHB[ ]	/* 1 value pushed */
41
LT[ ]	/* LessThan */
IF[ ]	/* If */
NPUSHB[ ]	/* 17 values pushed */
0 0 0 33 77 0 1 1 2 98 3 1 2 2 38 2 78
ELSE[ ]	/* Else */
NPUSHB[ ]	/* 14 values pushed */
0 1 3 1 2 1 2 102 0 0 0 33 0 78
EIF[ ]	/* EndIf */
NPUSHB[ ]	/* 11 values pushed */
0 0 0 20 0 19 39 22 4 8 24
CALL[ ]	/* CallFunction */";
};
width = 248;
}
);
note = Iogonek;
unicode = 302;
},
{
glyphname = J;
kernLeft = J;
kernRight = J;
layers = (
{
anchors = (
{
name = bottom;
pos = (258,0);
},
{
name = top;
pos = (393,700);
}
);
layerId = m01;
shapes = (
{
closed = 1;
nodes = (
(338,-12,o),
(448,97,o),
(448,196,qs),
(448,700,l),
(335,700,l),
(335,196,ls),
(335,146,o),
(289,89,o),
(239,89,qs),
(187,89,o),
(138,149,o),
(137,202,q),
(24,202,l),
(24,101,o),
(140,-12,o),
(241,-12,qs)
);
}
);
userData = {
assembly = "NPUSHB[ ]	/* 37 values pushed */
0 0 2 1 2 0 1 128 0 2 2 33 77 0 1 1 3 98 4 1 3 3 40 3 78 0 0 0 15 0 14 19 34 18 5 8 25
CALL[ ]	/* CallFunction */";
};
width = 516;
}
);
note = J;
unicode = 74;
},
{
glyphname = K;
kernRight = K;
layers = (
{
anchors = (
{
name = bottom;
pos = (307,0);
},
{
name = top;
pos = (307,700);
}
);
layerId = m01;
shapes = (
{
closed = 1;
nodes = (
(183,0,l),
(183,327,l),
(453,0,l),
(609,0,l),
(300,359,l),
(594,700,l),
(449,700,l),
(183,375,l),
(183,700,l),
(69,700,l),
(69,0,l)
);
}
);
userData = {
assembly = "NPUSHB[ ]	/* 28 values pushed */
8 5 2 3 2 0 1 76 1 1 0 0 33 77 3 1 2 2 34 2 78 18 18 18 16 4 8 26
CALL[ ]	/* CallFunction */";
};
width = 615;
}
);
note = K;
unicode = 75;
},
{
glyphname = L;
kernRight = L;
layers = (
{
anchors = (
{
name = bottom;
pos = (266,0);
},
{
name = top;
pos = (176,700);
},
{
name = topright;
pos = (274,700);
}
);
layerId = m01;
shapes = (
{
closed = 1;
nodes = (
(491,0,l),
(491,95,l),
(181,95,l),
(181,700,l),
(67,700,l),
(67,0,l)
);
}
);
userData = {
assembly = "NPUSHB[ ]	/* 22 values pushed */
0 0 0 33 77 0 1 1 2 96 0 2 2 34 2 78 17 17 16 3 8 25
CALL[ ]	/* CallFunction */";
};
width = 532;
}
);
note = L;
unicode = 76;
},
{
glyphname = Ldot;
kernRight = L;
layers = (
{
layerId = m01;
shapes = (
{
closed = 1;
nodes = (
(491,0,l),
(491,95,l),
(181,95,l),
(181,700,l),
(67,700,l),
(67,0,l)
);
},
{
closed = 1;
nodes = (
(396,276,o),
(439,319,o),
(439,350,qs),
(439,381,o),
(396,424,o),
(365,424,qs),
(333,424,o),
(290,381,o),
(290,350,qs),
(290,319,o),
(334,276,o),
(365,276,qs)
);
}
);
userData = {
assembly = "NPUSHB[ ]	/* 38 values pushed */
0 3 5 1 4 1 3 4 105 0 0 0 33 77 0 1 1 2 96 0 2 2 34 2 78 6 6 6 17 6 16 37 17 17 16 6 8 26
CALL[ ]	/* CallFunction */";
};
width = 532;
}
);
note = Ldot;
unicode = 319;
},
{
glyphname = Lslash;
kernRight = L;
layers = (
{
layerId = m01;
shapes = (
{
closed = 1;
nodes = (
(515,0,l),
(515,95,l),
(205,95,l),
(205,339,l),
(315,377,l),
(315,470,l),
(205,432,l),
(205,700,l),
(92,700,l),
(92,393,l),
(17,366,l),
(17,273,l),
(92,300,l),
(92,0,l)
);
}
);
userData = {
assembly = "NPUSHB[ ]	/* 35 values pushed */
9 8 7 6 3 2 1 0 8 1 0 1 76 0 0 0 33 77 0 1 1 2 96 0 2 2 34 2 78 17 21 20 3 8 25
CALL[ ]	/* CallFunction */";
};
width = 556;
}
);
note = Lslash;
unicode = 321;
},
{
glyphname = M;
kernRight = M;
layers = (
{
layerId = m01;
shapes = (
{
closed = 1;
nodes = (
(181,0,l),
(181,497,l),
(369,93,l),
(458,93,l),
(646,497,l),
(646,0,l),
(760,0,l),
(760,700,l),
(625,700,l),
(415,237,l),
(201,700,l),
(67,700,l),
(67,0,l)
);
}
);
userData = {
assembly = "NPUSHB[ ]	/* 37 values pushed */
10 7 2 3 3 0 1 76 0 3 0 2 0 3 2 128 1 1 0 0 33 77 4 1 2 2 34 2 78 18 18 17 18 16 5 8 27
CALL[ ]	/* CallFunction */";
};
width = 827;
}
);
note = M;
unicode = 77;
},
{
glyphname = N;
kernLeft = N;
kernRight = N;
layers = (
{
anchors = (
{
name = bottom;
pos = (353,0);
},
{
name = top;
pos = (353,700);
}
);
layerId = m01;
shapes = (
{
closed = 1;
nodes = (
(181,0,l),
(181,512,l),
(524,0,l),
(638,0,l),
(638,700,l),
(524,700,l),
(524,187,l),
(181,700,l),
(67,700,l),
(67,0,l)
);
}
);
userData = {
assembly = "NPUSHB[ ]	/* 27 values pushed */
7 2 2 2 0 1 76 1 1 0 0 33 77 3 1 2 2 34 2 78 18 17 18 16 4 8 26
CALL[ ]	/* CallFunction */";
};
width = 705;
}
);
note = N;
unicode = 78;
},
{
glyphname = Eng;
layers = (
{
layerId = m01;
shapes = (
{
closed = 1;
nodes = (
(181,0,l),
(181,512,l),
(524,0,l),
(524,-63,ls),
(524,-96,o),
(494,-123,o),
(460,-123,qs),
(429,-123,l),
(429,-220,l),
(478,-220,ls),
(554,-220,o),
(638,-146,o),
(638,-63,qs),
(638,700,l),
(524,700,l),
(524,187,l),
(181,700,l),
(67,700,l),
(67,0,l)
);
}
);
userData = {
assembly = "NPUSHB[ ]	/* 42 values pushed */
16 2 2 4 0 1 76 15 1 4 1 75 1 1 0 0 33 77 0 4 4 34 77 0 3 3 2 98 0 2 2 38 2 78 21 33 35 18 16 5 8 27
CALL[ ]	/* CallFunction */";
};
width = 705;
}
);
note = Eng;
unicode = 330;
},
{
glyphname = O;
kernLeft = C;
kernRight = D;
layers = (
{
anchors = (
{
name = bottom;
pos = (397,0);
},
{
name = ogonek;
pos = (477,10);
},
{
name = top;
pos = (397,700);
},
{
name = topright;
pos = (773,700);
}
);
layerId = m01;
shapes = (
{
closed = 1;
nodes = (
(495,-12,o),
(656,78,o),
(750,243,o),
(750,350,qs),
(750,457,o),
(656,622,o),
(495,712,o),
(396,712,qs),
(298,712,o),
(136,621,o),
(43,457,o),
(43,350,qs),
(43,243,o),
(136,79,o),
(298,-12,o),
(396,-12,qs)
);
},
{
closed = 1;
nodes = (
(331,90,o),
(223,151,o),
(160,269,o),
(160,350,qs),
(160,431,o),
(223,549,o),
(331,610,o),
(396,610,qs),
(462,610,o),
(570,549,o),
(633,432,o),
(633,350,qs),
(633,269,o),
(570,151,o),
(462,90,o),
(396,90,qs)
);
}
);
userData = {
assembly = "NPUSHB[ ]	/* 41 values pushed */
0 2 2 0 97 0 0 0 39 77 5 1 3 3 1 97 4 1 1 1 40 1 78 16 16 0 0 16 31 16 30 24 22 0 15 0 14 38 6 8 23
CALL[ ]	/* CallFunction */";
};
width = 793;
}
);
note = O;
unicode = 79;
},
{
glyphname = Oslash;
kernLeft = Oslash;
kernRight = Oslash;
layers = (
{
layerId = m01;
shapes = (
{
closed = 1;
nodes = (
(496,-12,o),
(654,81,o),
(740,245,o),
(740,350,qs),
(740,496,o),
(658,595,q),
(749,700,l),
(638,700,l),
(596,652,l),
(508,712,o),
(391,712,qs),
(286,712,o),
(128,619,o),
(43,454,o),
(43,350,qs),
(43,278,o),
(84,153,o),
(123,107,q),
(31,0,l),
(142,0,l),
(186,49,l),
(272,-12,o),
(391,-12,qs)
);
},
{
closed = 1;
nodes = (
(313,89,o),
(255,130,q),
(584,509,l),
(624,443,o),
(624,350,qs),
(624,271,o),
(567,153,o),
(462,89,o),
(391,89,qs)
);
},
{
closed = 1;
nodes = (
(197,193,l),
(158,259,o),
(158,350,qs),
(158,428,o),
(215,546,o),
(320,610,o),
(391,610,qs),
(469,610,o),
(526,571,q)
);
}
);
userData = {
assembly = "MPPEM[ ]	/* MeasurePixelPerEm */
PUSHB[ ]	/* 1 value pushed */
21
LT[ ]	/* LessThan */
IF[ ]	/* If */
NPUSHB[ ]	/* 19 values pushed */
13 1 5 1 40 39 29 28 16 4 6 4 5 1 1 0 4 3 76
ELSE[ ]	/* Else */
NPUSHB[ ]	/* 19 values pushed */
13 1 5 2 40 39 29 28 16 4 6 4 5 1 1 0 4 3 76
EIF[ ]	/* EndIf */
MPPEM[ ]	/* MeasurePixelPerEm */
PUSHB[ ]	/* 1 value pushed */
21
LT[ ]	/* LessThan */
IF[ ]	/* If */
NPUSHB[ ]	/* 25 values pushed */
0 5 5 1 97 2 1 1 1 39 77 7 1 4 4 0 97 6 3 2 0 0 34 0 78
ELSE[ ]	/* Else */
NPUSHB[ ]	/* 33 values pushed */
0 2 2 33 77 0 5 5 1 97 0 1 1 39 77 0 0 0 34 77 7 1 4 4 3 97 6 1 3 3 40 3 78
EIF[ ]	/* EndIf */
NPUSHB[ ]	/* 20 values pushed */
23 23 0 0 34 32 23 31 23 30 0 22 0 21 18 39 18 8 8 25
CALL[ ]	/* CallFunction */";
};
width = 779;
}
);
note = Oslash;
unicode = 216;
},
{
glyphname = OE;
kernLeft = C;
layers = (
{
layerId = m01;
shapes = (
{
closed = 1;
nodes = (
(462,-12,o),
(592,49,o),
(632,105,q),
(632,0,l),
(1051,0,l),
(1051,96,l),
(746,96,l),
(746,322,l),
(1007,322,l),
(1007,417,l),
(746,417,l),
(746,604,l),
(1051,604,l),
(1051,700,l),
(632,700,l),
(632,592,l),
(592,649,o),
(462,712,o),
(388,712,qs),
(289,712,o),
(132,618,o),
(43,453,o),
(43,350,qs),
(43,248,o),
(131,83,o),
(288,-12,o),
(388,-12,qs)
);
},
{
closed = 1;
nodes = (
(332,89,o),
(224,150,o),
(159,269,o),
(159,350,qs),
(159,419,o),
(213,538,o),
(320,610,o),
(395,610,qs),
(461,610,o),
(569,547,o),
(632,429,o),
(632,350,qs),
(632,281,o),
(576,161,o),
(469,89,o),
(395,89,qs)
);
}
);
userData = {
assembly = "NPUSHB[ ]	/* 10 values pushed */
10 1 3 2 23 1 5 4 2 76
MPPEM[ ]	/* MeasurePixelPerEm */
PUSHB[ ]	/* 1 value pushed */
21
LT[ ]	/* LessThan */
IF[ ]	/* If */
NPUSHB[ ]	/* 35 values pushed */
0 3 0 4 5 3 4 103 8 1 2 2 0 97 1 1 0 0 39 77 11 9 2 5 5 6 97 10 7 2 6 6 34 6 78
ELSE[ ]	/* Else */
MPPEM[ ]	/* MeasurePixelPerEm */
PUSHB[ ]	/* 1 value pushed */
33
LT[ ]	/* LessThan */
IF[ ]	/* If */
NPUSHB[ ]	/* 56 values pushed */
0 3 0 4 5 3 4 103 8 1 2 2 0 97 0 0 0 39 77 8 1 2 2 1 95 0 1 1 33 77 11 9 2 5 5 6 95 0 6 6 34 77 11 9 2 5 5 7 97 10 1 7 7 40 7 78
ELSE[ ]	/* Else */
MPPEM[ ]	/* MeasurePixelPerEm */
PUSHB[ ]	/* 1 value pushed */
39
LT[ ]	/* LessThan */
IF[ ]	/* If */
NPUSHB[ ]	/* 53 values pushed */
0 3 0 4 5 3 4 103 8 1 2 2 0 97 0 0 0 39 77 8 1 2 2 1 95 0 1 1 33 77 0 5 5 6 95 0 6 6 34 77 11 1 9 9 7 97 10 1 7 7 40 7 78
ELSE[ ]	/* Else */
NPUSHB[ ]	/* 51 values pushed */
0 3 0 4 5 3 4 103 0 8 8 0 97 0 0 0 39 77 0 2 2 1 95 0 1 1 33 77 0 5 5 6 95 0 6 6 34 77 11 1 9 9 7 97 10 1 7 7 40 7 78
EIF[ ]	/* EndIf */
EIF[ ]	/* EndIf */
EIF[ ]	/* EndIf */
NPUSHB[ ]	/* 24 values pushed */
27 27 0 0 27 42 27 41 35 33 0 26 0 25 17 17 17 17 17 19 38 12 8 29
CALL[ ]	/* CallFunction */";
};
width = 1103;
}
);
note = OE;
unicode = 338;
},
{
glyphname = P;
kernRight = P;
layers = (
{
layerId = m01;
shapes = (
{
closed = 1;
nodes = (
(181,0,l),
(181,287,l),
(317,287,ls),
(428,287,o),
(562,395,o),
(562,494,qs),
(562,592,o),
(429,700,o),
(317,700,qs),
(67,700,l),
(67,0,l)
);
},
{
closed = 1;
nodes = (
(181,384,l),
(181,604,l),
(314,604,ls),
(384,604,o),
(446,547,o),
(446,494,qs),
(446,440,o),
(384,384,o),
(314,384,qs)
);
}
);
userData = {
assembly = "NPUSHB[ ]	/* 38 values pushed */
5 1 4 0 1 2 4 1 103 0 3 3 0 95 0 0 0 33 77 0 2 2 34 2 78 11 11 11 19 11 18 37 17 36 32 6 8 26
CALL[ ]	/* CallFunction */";
};
width = 592;
}
);
note = P;
unicode = 80;
},
{
glyphname = Thorn;
kernRight = Thorn;
layers = (
{
layerId = m01;
shapes = (
{
closed = 1;
nodes = (
(181,0,l),
(181,140,l),
(317,140,ls),
(404,140,o),
(456,169,qs),
(509,197,o),
(562,290,o),
(562,349,qs),
(562,410,o),
(535,458,qs),
(508,507,o),
(398,561,o),
(317,561,qs),
(181,561,l),
(181,700,l),
(67,700,l),
(67,0,l)
);
},
{
closed = 1;
nodes = (
(181,232,l),
(181,468,l),
(311,468,ls),
(446,468,o),
(446,349,qs),
(446,293,o),
(380,232,o),
(311,232,qs)
);
}
);
userData = {
assembly = "NPUSHB[ ]	/* 42 values pushed */
0 1 0 4 5 1 4 103 6 1 5 0 2 3 5 2 103 0 0 0 33 77 0 3 3 34 3 78 17 17 17 24 17 23 36 17 40 33 16 7 8 27
CALL[ ]	/* CallFunction */";
};
width = 592;
}
);
note = Thorn;
unicode = 222;
},
{
glyphname = Q;
kernLeft = C;
kernRight = Q;
layers = (
{
layerId = m01;
shapes = (
{
closed = 1;
nodes = (
(681,-12,l),
(754,64,l),
(683,131,l),
(750,221,o),
(750,350,qs),
(750,457,o),
(656,622,o),
(495,712,o),
(396,712,qs),
(298,712,o),
(136,621,o),
(43,457,o),
(43,350,qs),
(43,243,o),
(136,79,o),
(298,-12,o),
(396,-12,qs),
(457,-12,o),
(567,23,o),
(611,56,q)
);
},
{
closed = 1;
nodes = (
(160,431,o),
(223,549,o),
(331,610,o),
(396,610,qs),
(462,610,o),
(570,549,o),
(633,432,o),
(633,350,qs),
(633,263,o),
(603,209,q),
(500,310,l),
(427,234,l),
(535,129,l),
(478,90,o),
(396,90,qs),
(331,90,o),
(223,151,o),
(160,269,o),
(160,350,qs)
);
}
);
userData = {
assembly = "NPUSHB[ ]	/* 47 values pushed */
28 27 26 25 16 5 2 3 19 17 2 0 2 2 76 18 1 0 73 0 3 3 1 97 0 1 1 39 77 0 2 2 0 97 0 0 0 40 0 78 41 43 38 33 4 8 26
CALL[ ]	/* CallFunction */";
};
width = 798;
}
);
note = Q;
unicode = 81;
},
{
glyphname = R;
kernRight = R;
layers = (
{
anchors = (
{
name = bottom;
pos = (308,0);
},
{
name = top;
pos = (298,700);
}
);
layerId = m01;
shapes = (
{
closed = 1;
nodes = (
(181,0,l),
(181,300,l),
(271,300,l),
(446,0,l),
(581,0,l),
(384,319,l),
(457,335,o),
(536,425,o),
(536,500,qs),
(536,596,o),
(409,700,o),
(298,700,qs),
(67,700,l),
(67,0,l)
);
},
{
closed = 1;
nodes = (
(181,396,l),
(181,604,l),
(296,604,ls),
(365,604,o),
(421,551,o),
(421,500,qs),
(421,449,o),
(364,396,o),
(296,396,qs)
);
}
);
userData = {
assembly = "NPUSHB[ ]	/* 46 values pushed */
7 1 2 5 1 76 6 1 5 0 2 1 5 2 103 0 4 4 0 95 0 0 0 33 77 3 1 1 1 34 1 78 14 14 14 22 14 21 37 17 17 22 32 7 8 27
CALL[ ]	/* CallFunction */";
};
width = 608;
}
);
note = R;
unicode = 82;
},
{
glyphname = S;
kernLeft = S;
kernRight = S;
layers = (
{
anchors = (
{
name = bottom;
pos = (293,0);
},
{
name = top;
pos = (293,700);
}
);
layerId = m01;
shapes = (
{
closed = 1;
nodes = (
(369,-12,o),
(480,37,o),
(544,128,o),
(544,190,qs),
(544,252,o),
(488,334,o),
(406,379,o),
(349,398,qs),
(284,420,o),
(216,450,o),
(178,492,o),
(178,523,qs),
(178,567,o),
(238,616,o),
(283,616,qs),
(337,616,o),
(403,557,o),
(403,513,q),
(524,513,l),
(523,575,o),
(460,665,o),
(355,712,o),
(290,712,qs),
(225,712,o),
(121,667,o),
(60,579,o),
(60,517,qs),
(60,447,o),
(146,351,o),
(240,321,qs),
(319,295,o),
(392,262,o),
(424,219,o),
(424,183,qs),
(424,137,o),
(356,84,o),
(300,84,qs),
(237,84,o),
(162,154,o),
(160,211,q),
(41,211,l),
(42,140,o),
(110,39,o),
(227,-12,o),
(301,-12,qs)
);
}
);
userData = {
assembly = "NPUSHB[ ]	/* 51 values pushed */
0 3 4 0 4 3 0 128 0 0 1 4 0 1 126 0 4 4 2 97 0 2 2 39 77 0 1 1 5 97 6 1 5 5 40 5 78 0 0 0 44 0 43 34 19 44 34 19 7 8 27
CALL[ ]	/* CallFunction */";
};
width = 585;
}
);
note = S;
unicode = 83;
},
{
glyphname = Scedilla;
kernLeft = S;
kernRight = S;
layers = (
{
anchors = (
{
name = bottom;
pos = (293,-262);
},
{
name = top;
pos = (293,700);
}
);
layerId = m01;
shapes = (
{
closed = 1;
nodes = (
(331,-262,ls),
(386,-262,o),
(458,-206,o),
(458,-156,qs),
(458,-106,o),
(385,-53,o),
(328,-54,q),
(328,-11,l),
(423,-4,o),
(544,104,o),
(544,190,qs),
(544,252,o),
(488,334,o),
(406,379,o),
(349,398,qs),
(284,420,o),
(216,450,o),
(178,492,o),
(178,523,qs),
(178,567,o),
(238,616,o),
(283,616,qs),
(337,616,o),
(403,557,o),
(403,513,q),
(524,513,l),
(523,575,o),
(460,665,o),
(355,712,o),
(290,712,qs),
(225,712,o),
(121,667,o),
(60,579,o),
(60,517,qs),
(60,447,o),
(146,351,o),
(240,321,qs),
(319,295,o),
(392,262,o),
(424,219,o),
(424,183,qs),
(424,137,o),
(356,84,o),
(300,84,qs),
(237,84,o),
(162,154,o),
(160,211,q),
(41,211,l),
(42,116,o),
(160,2,o),
(256,-9,q),
(256,-116,l),
(313,-116,ls),
(371,-116,o),
(371,-155,qs),
(371,-195,o),
(313,-195,qs),
(208,-195,l),
(208,-262,l)
);
}
);
userData = {
assembly = "PUSHB[ ]	/* 7 values pushed */
50 7 2 7 3 1 76
MPPEM[ ]	/* MeasurePixelPerEm */
PUSHB[ ]	/* 1 value pushed */
9
LT[ ]	/* LessThan */
IF[ ]	/* If */
NPUSHB[ ]	/* 47 values pushed */
0 5 6 2 6 5 2 128 0 2 3 6 2 3 126 0 3 7 7 3 112 0 7 0 1 0 7 1 106 0 0 0 8 0 8 99 0 6 6 4 97 0 4 4 39 6 78
ELSE[ ]	/* Else */
NPUSHB[ ]	/* 48 values pushed */
0 5 6 2 6 5 2 128 0 2 3 6 2 3 126 0 3 7 6 3 7 126 0 7 0 1 0 7 1 106 0 0 0 8 0 8 99 0 6 6 4 97 0 4 4 39 6 78
EIF[ ]	/* EndIf */
NPUSHB[ ]	/* 12 values pushed */
36 30 34 19 44 34 20 34 32 9 8 31
CALL[ ]	/* CallFunction */";
};
width = 585;
}
);
note = Scedilla;
unicode = 350;
},
{
glyphname = uni1E9E;
layers = (
{
layerId = m01;
shapes = (
{
closed = 1;
nodes = (
(536,-10,o),
(646,78,o),
(646,156,qs),
(646,219,o),
(575,291,o),
(506,316,qs),
(447,337,o),
(400,365,o),
(400,389,qs),
(400,405,o),
(423,427,o),
(446,443,qs),
(486,468,o),
(531,518,o),
(531,560,qs),
(531,614,o),
(470,692,o),
(366,732,o),
(303,732,qs),
(231,732,o),
(118,681,o),
(54,582,o),
(54,513,qs),
(54,0,l),
(167,0,l),
(167,503,ls),
(167,567,o),
(231,637,o),
(299,637,qs),
(350,637,o),
(418,593,o),
(418,549,qs),
(418,527,o),
(394,494,o),
(372,479,qs),
(333,453,ls),
(286,420,o),
(286,372,qs),
(286,321,o),
(366,265,o),
(438,241,qs),
(486,225,o),
(534,186,o),
(534,149,qs),
(534,112,o),
(487,75,o),
(448,75,qs),
(403,75,o),
(350,128,o),
(345,173,q),
(237,173,l),
(246,84,o),
(362,-10,o),
(450,-10,qs)
);
}
);
userData = {
assembly = "MPPEM[ ]	/* MeasurePixelPerEm */
PUSHB[ ]	/* 1 value pushed */
25
LT[ ]	/* LessThan */
IF[ ]	/* If */
NPUSHB[ ]	/* 31 values pushed */
0 0 2 1 2 0 1 128 0 2 2 4 97 0 4 4 41 77 0 1 1 3 97 6 5 2 3 3 34 3 78
ELSE[ ]	/* Else */
MPPEM[ ]	/* MeasurePixelPerEm */
PUSHB[ ]	/* 1 value pushed */
33
LT[ ]	/* LessThan */
IF[ ]	/* If */
NPUSHB[ ]	/* 35 values pushed */
0 0 2 1 2 0 1 128 0 2 2 4 97 0 4 4 41 77 0 3 3 34 77 0 1 1 5 97 6 1 5 5 40 5 78
ELSE[ ]	/* Else */
NPUSHB[ ]	/* 33 values pushed */
0 0 2 1 2 0 1 128 0 4 0 2 0 4 2 105 0 3 3 34 77 0 1 1 5 97 6 1 5 5 40 5 78
EIF[ ]	/* EndIf */
EIF[ ]	/* EndIf */
NPUSHB[ ]	/* 17 values pushed */
0 0 0 53 0 52 35 33 29 28 25 23 34 18 7 8 24
CALL[ ]	/* CallFunction */";
};
width = 666;
}
);
note = uni1E9E;
unicode = 7838;
},
{
glyphname = T;
kernLeft = T;
kernRight = T;
layers = (
{
anchors = (
{
name = bottom;
pos = (288,0);
},
{
name = top;
pos = (288,700);
}
);
layerId = m01;
shapes = (
{
closed = 1;
nodes = (
(344,0,l),
(344,604,l),
(550,604,l),
(550,700,l),
(25,700,l),
(25,604,l),
(231,604,l),
(231,0,l)
);
}
);
userData = {
assembly = "NPUSHB[ ]	/* 24 values pushed */
2 1 0 0 1 95 0 1 1 33 77 0 3 3 34 3 78 17 17 17 16 4 8 26
CALL[ ]	/* CallFunction */";
};
width = 575;
}
);
note = T;
unicode = 84;
},
{
glyphname = uni0162;
kernLeft = T;
kernRight = T;
layers = (
{
anchors = (
{
name = bottom;
pos = (288,-262);
},
{
name = top;
pos = (288,700);
}
);
layerId = m01;
shapes = (
{
closed = 1;
nodes = (
(251,0,l),
(251,-116,l),
(308,-116,ls),
(366,-116,o),
(366,-155,qs),
(366,-195,o),
(308,-195,qs),
(203,-195,l),
(203,-262,l),
(326,-262,ls),
(381,-262,o),
(453,-206,o),
(453,-156,qs),
(453,-106,o),
(380,-53,o),
(323,-54,q),
(323,0,l),
(344,0,l),
(344,604,l),
(550,604,l),
(550,700,l),
(25,700,l),
(25,604,l),
(231,604,l),
(231,0,l)
);
}
);
userData = {
assembly = "NPUSHB[ ]	/* 45 values pushed */
0 4 0 7 6 4 7 105 0 6 0 5 6 5 99 2 1 0 0 1 95 0 1 1 33 77 8 1 3 3 34 3 78 17 34 33 36 17 17 17 17 16 9 8 31
CALL[ ]	/* CallFunction */";
};
width = 575;
}
);
note = uni0162;
unicode = 354;
},
{
glyphname = U;
kernLeft = U;
kernRight = U;
layers = (
{
anchors = (
{
name = bottom;
pos = (334,0);
},
{
name = ogonek;
pos = (413,10);
},
{
name = top;
pos = (334,700);
},
{
name = topright;
pos = (647,700);
}
);
layerId = m01;
shapes = (
{
closed = 1;
nodes = (
(402,-12,o),
(525,42,o),
(605,166,o),
(605,265,qs),
(605,700,l),
(492,700,l),
(492,264,ls),
(492,178,o),
(409,91,o),
(334,91,qs),
(259,91,o),
(176,178,o),
(176,264,qs),
(176,700,l),
(63,700,l),
(63,265,ls),
(63,187,o),
(120,62,o),
(241,-12,o),
(332,-12,qs)
);
}
);
userData = {
assembly = "NPUSHB[ ]	/* 30 values pushed */
2 1 0 0 33 77 0 1 1 3 97 4 1 3 3 40 3 78 0 0 0 19 0 18 19 35 20 5 8 25
CALL[ ]	/* CallFunction */";
};
width = 667;
}
);
note = U;
unicode = 85;
},
{
glyphname = Uogonek;
kernLeft = U;
kernRight = U;
layers = (
{
anchors = (
{
name = bottom;
pos = (334,0);
},
{
name = ogonek;
pos = (413,10);
},
{
name = top;
pos = (334,700);
},
{
name = topright;
pos = (647,700);
}
);
layerId = m01;
shapes = (
{
closed = 1;
nodes = (
(373,-198,o),
(417,-184,q),
(417,-115,l),
(380,-130,o),
(348,-130,qs),
(323,-130,o),
(293,-106,o),
(293,-86,qs),
(293,-67,o),
(324,-34,o),
(359,-17,qs),
(374,-10,l),
(472,2,o),
(605,135,o),
(605,265,qs),
(605,700,l),
(492,700,l),
(492,264,ls),
(492,178,o),
(409,91,o),
(334,91,qs),
(259,91,o),
(176,178,o),
(176,264,qs),
(176,700,l),
(63,700,l),
(63,265,ls),
(63,164,o),
(159,17,o),
(256,-4,q),
(206,-43,o),
(206,-97,qs),
(206,-147,o),
(278,-198,o),
(334,-198,qs)
);
}
);
userData = {
assembly = "NPUSHB[ ]	/* 11 values pushed */
31 4 2 3 1 32 1 4 3 2 76
MPPEM[ ]	/* MeasurePixelPerEm */
PUSHB[ ]	/* 1 value pushed */
23
LT[ ]	/* LessThan */
IF[ ]	/* If */
NPUSHB[ ]	/* 26 values pushed */
0 1 0 3 0 1 3 128 2 1 0 0 33 77 0 3 3 4 98 5 1 4 4 38 4 78
ELSE[ ]	/* Else */
NPUSHB[ ]	/* 23 values pushed */
0 1 0 3 0 1 3 128 0 3 5 1 4 3 4 102 2 1 0 0 33 0 78
EIF[ ]	/* EndIf */
NPUSHB[ ]	/* 13 values pushed */
0 0 0 34 0 33 42 19 35 24 6 8 26
CALL[ ]	/* CallFunction */";
};
width = 667;
}
);
note = Uogonek;
unicode = 370;
},
{
glyphname = V;
kernLeft = V;
kernRight = V;
layers = (
{
layerId = m01;
shapes = (
{
closed = 1;
nodes = (
(410,0,l),
(669,700,l),
(549,700,l),
(342,117,l),
(136,700,l),
(15,700,l),
(273,0,l)
);
}
);
userData = {
assembly = "NPUSHB[ ]	/* 24 values pushed */
2 1 2 0 1 76 1 1 0 0 33 77 0 2 2 34 2 78 17 18 16 3 8 25
CALL[ ]	/* CallFunction */";
};
width = 683;
}
);
note = V;
unicode = 86;
},
{
glyphname = W;
kernLeft = W;
kernRight = W;
layers = (
{
anchors = (
{
name = bottom;
pos = (510,0);
},
{
name = top;
pos = (510,700);
}
);
layerId = m01;
shapes = (
{
closed = 1;
nodes = (
(511,549,l),
(657,0,l),
(797,0,l),
(991,700,l),
(868,700,l),
(727,134,l),
(578,700,l),
(446,700,l),
(293,137,l),
(153,700,l),
(31,700,l),
(220,0,l),
(359,0,l)
);
}
);
userData = {
assembly = "NPUSHB[ ]	/* 36 values pushed */
11 6 3 3 3 0 1 76 2 1 2 0 0 33 77 5 4 2 3 3 34 3 78 0 0 0 12 0 12 17 18 18 17 6 8 26
CALL[ ]	/* CallFunction */";
};
width = 1022;
}
);
note = W;
unicode = 87;
},
{
glyphname = X;
kernLeft = X;
kernRight = X;
layers = (
{
layerId = m01;
shapes = (
{
closed = 1;
nodes = (
(158,0,l),
(314,276,l),
(479,0,l),
(607,0,l),
(381,380,l),
(569,700,l),
(441,700,l),
(318,482,l),
(188,700,l),
(60,700,l),
(251,379,l),
(30,0,l)
);
}
);
userData = {
assembly = "NPUSHB[ ]	/* 28 values pushed */
9 6 3 3 2 0 1 76 1 1 0 0 33 77 3 1 2 2 34 2 78 18 18 18 17 4 8 26
CALL[ ]	/* CallFunction */";
};
width = 635;
}
);
note = X;
unicode = 88;
},
{
glyphname = Y;
kernLeft = Y;
kernRight = Y;
layers = (
{
anchors = (
{
name = bottom;
pos = (303,0);
},
{
name = top;
pos = (303,700);
}
);
layerId = m01;
shapes = (
{
closed = 1;
nodes = (
(359,0,l),
(359,276,l),
(591,700,l),
(464,700,l),
(303,388,l),
(142,700,l),
(13,700,l),
(246,276,l),
(246,0,l)
);
}
);
userData = {
assembly = "NPUSHB[ ]	/* 26 values pushed */
6 3 0 3 2 0 1 76 1 1 0 0 33 77 0 2 2 34 2 78 18 18 17 3 8 25
CALL[ ]	/* CallFunction */";
};
width = 604;
}
);
note = Y;
unicode = 89;
},
{
glyphname = Z;
kernRight = Z;
layers = (
{
anchors = (
{
name = bottom;
pos = (275,0);
},
{
name = top;
pos = (275,700);
}
);
layerId = m01;
shapes = (
{
closed = 1;
nodes = (
(507,0,l),
(507,97,l),
(174,97,l),
(504,613,l),
(504,700,l),
(47,700,l),
(47,604,l),
(372,604,l),
(43,87,l),
(43,0,l)
);
}
);
userData = {
assembly = "NPUSHB[ ]	/* 38 values pushed */
5 1 0 1 0 1 3 2 2 76 0 0 0 1 95 0 1 1 33 77 0 2 2 3 95 0 3 3 34 3 78 17 18 17 17 4 8 26
CALL[ ]	/* CallFunction */";
};
width = 550;
}
);
note = Z;
unicode = 90;
},
{
glyphname = uniA78B;
layers = (
{
layerId = m01;
shapes = (
{
closed = 1;
nodes = (
(170,216,l),
(183,700,l),
(62,700,l),
(74,216,l)
);
}
);
userData = {
assembly = "NPUSHB[ ]	/* 16 values pushed */
0 1 1 0 95 0 0 0 33 1 78 17 16 2 8 24
CALL[ ]	/* CallFunction */";
};
width = 245;
}
);
note = uniA78B;
unicode = 42891;
},
{
glyphname = a;
kernLeft = a;
kernRight = a;
layers = (
{
anchors = (
{
name = bottom;
pos = (241,0);
},
{
name = ogonek;
pos = (538,0);
},
{
name = top;
pos = (269,496);
}
);
layerId = m01;
shapes = (
{
closed = 1;
nodes = (
(268,-12,o),
(354,36,o),
(378,74,q),
(381,0,l),
(485,0,l),
(485,299,ls),
(485,394,o),
(374,508,o),
(271,508,qs),
(215,508,o),
(115,467,o),
(51,389,o),
(47,336,q),
(161,336,l),
(167,375,o),
(225,413,o),
(268,413,qs),
(315,413,o),
(371,354,o),
(371,297,q),
(247,297,ls),
(153,297,o),
(37,218,o),
(37,138,qs),
(37,69,o),
(137,-12,o),
(211,-12,qs)
);
},
{
closed = 1;
nodes = (
(201,80,o),
(153,115,o),
(153,149,qs),
(153,186,o),
(211,221,o),
(255,221,qs),
(371,221,l),
(371,218,ls),
(371,160,o),
(295,80,o),
(238,80,qs)
);
}
);
userData = {
assembly = "PUSHB[ ]	/* 6 values pushed */
23 1 4 7 1 76
MPPEM[ ]	/* MeasurePixelPerEm */
PUSHB[ ]	/* 1 value pushed */
21
LT[ ]	/* LessThan */
IF[ ]	/* If */
NPUSHB[ ]	/* 40 values pushed */
0 2 1 0 1 2 0 128 0 0 0 6 7 0 6 103 0 1 1 3 97 0 3 3 42 77 9 1 7 7 4 97 8 5 2 4 4 34 4 78
ELSE[ ]	/* Else */
NPUSHB[ ]	/* 44 values pushed */
0 2 1 0 1 2 0 128 0 0 0 6 7 0 6 103 0 1 1 3 97 0 3 3 42 77 0 4 4 34 77 9 1 7 7 5 97 8 1 5 5 40 5 78
EIF[ ]	/* EndIf */
NPUSHB[ ]	/* 22 values pushed */
27 27 0 0 27 37 27 36 32 29 0 26 0 25 19 35 18 34 36 10 8 27
CALL[ ]	/* CallFunction */";
};
width = 529;
}
);
note = a;
unicode = 97;
},
{
glyphname = aogonek;
kernLeft = a;
kernRight = aacute;
layers = (
{
anchors = (
{
name = bottom;
pos = (241,0);
},
{
name = ogonek;
pos = (538,0);
},
{
name = top;
pos = (269,496);
}
);
layerId = m01;
shapes = (
{
closed = 1;
nodes = (
(268,-12,o),
(354,36,o),
(378,74,q),
(381,0,l),
(401,0,l),
(332,-45,o),
(332,-107,qs),
(332,-157,o),
(404,-208,o),
(460,-208,qs),
(499,-208,o),
(543,-194,q),
(543,-125,l),
(506,-140,o),
(474,-140,qs),
(449,-140,o),
(419,-116,o),
(419,-96,qs),
(419,-77,o),
(450,-44,o),
(485,-27,qs),
(539,0,l),
(512,54,l),
(485,42,l),
(485,299,ls),
(485,394,o),
(374,508,o),
(271,508,qs),
(215,508,o),
(115,467,o),
(51,389,o),
(47,336,q),
(161,336,l),
(167,375,o),
(225,413,o),
(268,413,qs),
(315,413,o),
(371,354,o),
(371,297,q),
(247,297,ls),
(153,297,o),
(37,218,o),
(37,138,qs),
(37,69,o),
(137,-12,o),
(211,-12,qs)
);
},
{
closed = 1;
nodes = (
(201,80,o),
(153,115,o),
(153,149,qs),
(153,186,o),
(211,221,o),
(255,221,qs),
(371,221,l),
(371,218,ls),
(371,160,o),
(295,80,o),
(238,80,qs)
);
}
);
userData = {
assembly = "MPPEM[ ]	/* MeasurePixelPerEm */
PUSHB[ ]	/* 1 value pushed */
21
LT[ ]	/* LessThan */
IF[ ]	/* If */
NPUSHB[ ]	/* 21 values pushed */
42 22 21 3 6 9 32 1 4 6 33 1 5 4 3 76 23 1 6 1 75
ELSE[ ]	/* Else */
NPUSHB[ ]	/* 21 values pushed */
42 22 21 3 6 9 32 1 4 7 33 1 5 4 3 76 23 1 6 1 75
EIF[ ]	/* EndIf */
MPPEM[ ]	/* MeasurePixelPerEm */
PUSHB[ ]	/* 1 value pushed */
21
LT[ ]	/* LessThan */
IF[ ]	/* If */
NPUSHB[ ]	/* 50 values pushed */
0 2 1 0 1 2 0 128 0 0 0 8 9 0 8 103 0 1 1 3 97 0 3 3 42 77 11 1 9 9 6 97 10 7 2 6 6 34 77 0 4 4 5 97 0 5 5 38 5 78
ELSE[ ]	/* Else */
MPPEM[ ]	/* MeasurePixelPerEm */
PUSHB[ ]	/* 1 value pushed */
41
LT[ ]	/* LessThan */
IF[ ]	/* If */
NPUSHB[ ]	/* 54 values pushed */
0 2 1 0 1 2 0 128 0 0 0 8 9 0 8 103 0 1 1 3 97 0 3 3 42 77 0 6 6 34 77 11 1 9 9 7 97 10 1 7 7 40 77 0 4 4 5 97 0 5 5 38 5 78
ELSE[ ]	/* Else */
NPUSHB[ ]	/* 51 values pushed */
0 2 1 0 1 2 0 128 0 0 0 8 9 0 8 103 0 4 0 5 4 5 101 0 1 1 3 97 0 3 3 42 77 0 6 6 34 77 11 1 9 9 7 97 10 1 7 7 40 7 78
EIF[ ]	/* EndIf */
EIF[ ]	/* EndIf */
NPUSHB[ ]	/* 24 values pushed */
46 46 0 0 46 56 46 55 51 48 0 45 0 44 20 35 43 35 18 34 36 12 8 29
CALL[ ]	/* CallFunction */";
};
width = 529;
}
);
note = aogonek;
unicode = 261;
},
{
glyphname = ae;
kernLeft = a;
kernRight = ae;
layers = (
{
anchors = (
{
name = bottom;
pos = (453,0);
},
{
name = top;
pos = (453,496);
}
);
layerId = m01;
shapes = (
{
closed = 1;
nodes = (
(361,-12,o),
(429,95,q),
(462,44,o),
(570,-12,o),
(635,-12,qs),
(720,-12,o),
(840,80,o),
(862,152,q),
(749,152,l),
(733,119,o),
(675,82,o),
(634,82,qs),
(579,82,o),
(503,157,o),
(499,221,q),
(874,221,l),
(876,269,ls),
(876,338,o),
(814,447,o),
(704,508,o),
(635,508,qs),
(582,508,o),
(488,467,o),
(456,430,q),
(429,468,o),
(337,508,o),
(277,508,qs),
(223,508,o),
(127,469,o),
(63,391,o),
(57,336,q),
(170,336,l),
(177,374,o),
(236,415,o),
(277,415,qs),
(325,415,o),
(383,356,o),
(383,296,q),
(248,296,ls),
(146,296,o),
(37,213,o),
(37,140,qs),
(37,70,o),
(145,-12,o),
(229,-12,qs)
);
},
{
closed = 1;
nodes = (
(203,78,o),
(156,118,o),
(156,150,qs),
(156,183,o),
(208,221,o),
(262,221,qs),
(379,221,l),
(379,209,l),
(370,154,o),
(295,78,o),
(243,78,qs)
);
},
{
closed = 1;
nodes = (
(500,296,l),
(509,353,o),
(584,415,o),
(636,415,qs),
(688,415,o),
(758,351,o),
(762,296,q)
);
}
);
userData = {
assembly = "NPUSHB[ ]	/* 97 values pushed */
20 1 1 3 47 1 7 5 42 1 6 7 3 76 0 2 1 0 1 2 0 128 0 7 5 6 5 7 6 128 13 1 0 10 1 5 7 0 5 103 12 1 1 1 3 97 4 1 3 3 42 77 15 11 2 6 6 8 97 14 9 2 8 8 40 8 78 45 45 0 0 62 61 59 57 45 55 45 54 50 48 0 44 0 43 34 18 34 20 36 35 18 34 36 16 8 31
CALL[ ]	/* CallFunction */";
};
width = 905;
}
);
note = ae;
unicode = 230;
},
{
glyphname = b;
kernLeft = b;
kernRight = b;
layers = (
{
layerId = m01;
shapes = (
{
closed = 1;
nodes = (
(407,-12,o),
(515,57,o),
(573,176,o),
(573,249,qs),
(573,322,o),
(515,440,o),
(408,508,o),
(338,508,qs),
(282,508,o),
(193,462,o),
(166,422,q),
(166,700,l),
(53,700,l),
(53,0,l),
(164,0,l),
(166,73,l),
(193,31,o),
(282,-12,o),
(337,-12,qs)
);
},
{
closed = 1;
nodes = (
(249,87,o),
(167,178,o),
(167,248,qs),
(167,319,o),
(248,409,o),
(312,409,qs),
(375,409,o),
(458,321,o),
(458,249,qs),
(458,179,o),
(377,87,o),
(312,87,qs)
);
}
);
userData = {
assembly = "NPUSHB[ ]	/* 10 values pushed */
7 1 4 2 2 1 0 5 2 76
MPPEM[ ]	/* MeasurePixelPerEm */
PUSHB[ ]	/* 1 value pushed */
21
LT[ ]	/* LessThan */
IF[ ]	/* If */
NPUSHB[ ]	/* 29 values pushed */
0 1 1 33 77 0 4 4 2 97 0 2 2 42 77 7 1 5 5 0 97 6 3 2 0 0 34 0 78
ELSE[ ]	/* Else */
NPUSHB[ ]	/* 33 values pushed */
0 1 1 33 77 0 4 4 2 97 0 2 2 42 77 0 0 0 34 77 7 1 5 5 3 97 6 1 3 3 40 3 78
EIF[ ]	/* EndIf */
NPUSHB[ ]	/* 20 values pushed */
19 19 0 0 19 30 19 29 25 23 0 18 0 17 35 17 19 8 8 25
CALL[ ]	/* CallFunction */";
};
width = 608;
}
);
note = b;
unicode = 98;
},
{
glyphname = c;
kernLeft = c;
kernRight = c;
layers = (
{
anchors = (
{
name = bottom;
pos = (284,0);
},
{
name = top;
pos = (282,496);
}
);
layerId = m01;
shapes = (
{
closed = 1;
nodes = (
(373,-12,o),
(499,82,o),
(517,163,q),
(397,163,l),
(386,124,o),
(327,84,o),
(283,84,qs),
(221,84,o),
(151,176,o),
(151,248,qs),
(151,319,o),
(219,412,o),
(283,412,qs),
(327,412,o),
(388,368,o),
(397,333,q),
(517,333,l),
(498,416,o),
(374,508,o),
(284,508,qs),
(210,508,o),
(97,441,o),
(35,323,o),
(35,248,qs),
(35,172,o),
(98,54,o),
(211,-12,o),
(284,-12,qs)
);
}
);
userData = {
assembly = "NPUSHB[ ]	/* 51 values pushed */
0 1 2 4 2 1 4 128 0 4 3 2 4 3 126 0 2 2 0 97 0 0 0 42 77 0 3 3 5 97 6 1 5 5 40 5 78 0 0 0 27 0 26 18 36 34 18 38 7 8 27
CALL[ ]	/* CallFunction */";
};
width = 553;
}
);
note = c;
unicode = 99;
},
{
glyphname = ccedilla;
layers = (
{
anchors = (
{
name = bottom;
pos = (284,-262);
},
{
name = top;
pos = (282,496);
}
);
layerId = m01;
shapes = (
{
closed = 1;
nodes = (
(320,-262,ls),
(375,-262,o),
(447,-206,o),
(447,-156,qs),
(447,-106,o),
(374,-53,o),
(317,-54,q),
(317,-10,l),
(394,-2,o),
(501,90,o),
(517,163,q),
(397,163,l),
(386,124,o),
(327,84,o),
(283,84,qs),
(221,84,o),
(151,176,o),
(151,248,qs),
(151,319,o),
(219,412,o),
(283,412,qs),
(327,412,o),
(388,368,o),
(397,333,q),
(517,333,l),
(498,416,o),
(374,508,o),
(284,508,qs),
(210,508,o),
(97,441,o),
(35,323,o),
(35,248,qs),
(35,144,o),
(150,4,o),
(245,-9,q),
(245,-116,l),
(302,-116,ls),
(360,-116,o),
(360,-155,qs),
(360,-195,o),
(302,-195,qs),
(197,-195,l),
(197,-262,l)
);
}
);
userData = {
assembly = "PUSHB[ ]	/* 7 values pushed */
34 7 2 7 5 1 76
MPPEM[ ]	/* MeasurePixelPerEm */
PUSHB[ ]	/* 1 value pushed */
9
LT[ ]	/* LessThan */
IF[ ]	/* If */
NPUSHB[ ]	/* 47 values pushed */
0 3 4 6 4 3 6 128 0 6 5 4 6 5 126 0 5 7 7 5 112 0 7 0 1 0 7 1 106 0 0 0 8 0 8 99 0 4 4 2 97 0 2 2 42 4 78
ELSE[ ]	/* Else */
NPUSHB[ ]	/* 48 values pushed */
0 3 4 6 4 3 6 128 0 6 5 4 6 5 126 0 5 7 4 5 7 126 0 7 0 1 0 7 1 106 0 0 0 8 0 8 99 0 4 4 2 97 0 2 2 42 4 78
EIF[ ]	/* EndIf */
NPUSHB[ ]	/* 12 values pushed */
36 20 18 36 34 18 39 34 32 9 8 31
CALL[ ]	/* CallFunction */";
};
width = 553;
}
);
note = ccedilla;
unicode = 231;
},
{
glyphname = d;
kernLeft = c;
layers = (
{
anchors = (
{
name = bottom;
pos = (304,0);
},
{
name = top;
pos = (304,992);
},
{
name = topright;
pos = (588,992);
}
);
layerId = m01;
shapes = (
{
closed = 1;
nodes = (
(326,-12,o),
(417,35,o),
(441,75,q),
(444,0,l),
(555,0,l),
(555,700,l),
(441,700,l),
(441,424,l),
(413,464,o),
(324,508,o),
(271,508,qs),
(200,508,o),
(93,440,o),
(35,322,o),
(35,250,qs),
(35,177,o),
(92,58,o),
(199,-12,o),
(271,-12,qs)
);
},
{
closed = 1;
nodes = (
(255,87,o),
(189,128,o),
(151,202,o),
(151,249,qs),
(151,320,o),
(232,409,o),
(295,409,qs),
(334,409,o),
(401,372,o),
(441,299,o),
(441,248,qs),
(441,178,o),
(362,87,o),
(296,87,qs)
);
}
);
userData = {
assembly = "NPUSHB[ ]	/* 10 values pushed */
10 1 4 0 15 1 2 5 2 76
MPPEM[ ]	/* MeasurePixelPerEm */
PUSHB[ ]	/* 1 value pushed */
21
LT[ ]	/* LessThan */
IF[ ]	/* If */
NPUSHB[ ]	/* 29 values pushed */
0 1 1 33 77 0 4 4 0 97 0 0 0 42 77 7 1 5 5 2 97 6 3 2 2 2 34 2 78
ELSE[ ]	/* Else */
NPUSHB[ ]	/* 33 values pushed */
0 1 1 33 77 0 4 4 0 97 0 0 0 42 77 0 2 2 34 77 7 1 5 5 3 97 6 1 3 3 40 3 78
EIF[ ]	/* EndIf */
NPUSHB[ ]	/* 20 values pushed */
19 19 0 0 19 32 19 31 26 24 0 18 0 17 17 19 38 8 8 25
CALL[ ]	/* CallFunction */";
};
width = 608;
}
);
note = d;
unicode = 100;
},
{
glyphname = dcroat;
kernLeft = c;
layers = (
{
layerId = m01;
shapes = (
{
closed = 1;
nodes = (
(326,-12,o),
(417,35,o),
(441,75,q),
(444,0,l),
(555,0,l),
(555,562,l),
(597,562,l),
(597,643,l),
(555,643,l),
(555,700,l),
(441,700,l),
(441,643,l),
(281,643,l),
(281,562,l),
(441,562,l),
(441,424,l),
(413,464,o),
(324,508,o),
(271,508,qs),
(200,508,o),
(93,440,o),
(35,322,o),
(35,250,qs),
(35,177,o),
(92,58,o),
(199,-12,o),
(271,-12,qs)
);
},
{
closed = 1;
nodes = (
(151,320,o),
(232,409,o),
(295,409,qs),
(334,409,o),
(401,372,o),
(441,299,o),
(441,248,qs),
(441,178,o),
(362,87,o),
(296,87,qs),
(255,87,o),
(189,128,o),
(151,202,o),
(151,249,qs)
);
}
);
userData = {
assembly = "NPUSHB[ ]	/* 10 values pushed */
10 1 9 0 23 1 6 8 2 76
MPPEM[ ]	/* MeasurePixelPerEm */
PUSHB[ ]	/* 1 value pushed */
21
LT[ ]	/* LessThan */
IF[ ]	/* If */
NPUSHB[ ]	/* 38 values pushed */
4 1 2 5 1 1 0 2 1 103 0 3 3 33 77 0 9 9 0 97 0 0 0 42 77 0 8 8 6 97 10 7 2 6 6 34 6 78
ELSE[ ]	/* Else */
NPUSHB[ ]	/* 42 values pushed */
4 1 2 5 1 1 0 2 1 103 0 3 3 33 77 0 9 9 0 97 0 0 0 42 77 0 6 6 34 77 0 8 8 7 97 10 1 7 7 40 7 78
EIF[ ]	/* EndIf */
NPUSHB[ ]	/* 20 values pushed */
0 0 38 36 31 29 0 26 0 25 17 17 17 17 17 19 38 11 8 29
CALL[ ]	/* CallFunction */";
};
width = 608;
}
);
note = dcroat;
unicode = 273;
},
{
glyphname = eth;
kernLeft = c;
layers = (
{
layerId = m01;
shapes = (
{
closed = 1;
nodes = (
(380,-12,o),
(442,25,qs),
(505,62,o),
(577,196,o),
(577,283,qs),
(577,370,o),
(518,538,o),
(460,612,q),
(536,638,l),
(536,709,l),
(411,667,l),
(406,673,o),
(376,700,q),
(267,700,l),
(307,666,o),
(330,640,q),
(247,612,l),
(247,542,l),
(375,585,l),
(425,518,o),
(450,447,q),
(389,504,o),
(295,504,qs),
(222,504,o),
(163,471,qs),
(103,437,o),
(35,320,o),
(35,246,qs),
(35,175,o),
(70,116,qs),
(105,56,o),
(226,-12,o),
(303,-12,qs)
);
},
{
closed = 1;
nodes = (
(264,86,o),
(193,127,o),
(152,202,o),
(152,249,qs),
(152,294,o),
(191,367,o),
(261,409,o),
(306,409,qs),
(345,409,o),
(416,373,o),
(461,300,o),
(461,247,qs),
(461,178,o),
(375,86,o),
(306,86,qs)
);
}
);
userData = {
assembly = "NPUSHB[ ]	/* 67 values pushed */
24 23 21 16 15 14 13 7 0 1 11 1 3 0 2 76 22 1 1 74 0 1 1 33 77 0 3 3 0 97 0 0 0 42 77 6 1 4 4 2 97 5 1 2 2 40 2 78 33 33 0 0 33 47 33 46 40 38 0 32 0 31 24 40 7 8 24
CALL[ ]	/* CallFunction */";
};
width = 612;
}
);
note = eth;
unicode = 240;
},
{
glyphname = e;
kernLeft = c;
kernRight = ae;
layers = (
{
anchors = (
{
name = bottom;
pos = (282,0);
},
{
name = ogonek;
pos = (391,10);
},
{
name = top;
pos = (281,496);
}
);
layerId = m01;
shapes = (
{
closed = 1;
nodes = (
(374,-12,o),
(493,80,o),
(516,152,q),
(397,152,l),
(365,82,o),
(283,82,qs),
(227,82,o),
(154,156,o),
(149,216,q),
(526,216,l),
(529,243,o),
(529,265,qs),
(529,334,o),
(467,445,o),
(357,508,o),
(286,508,qs),
(212,508,o),
(98,443,o),
(35,326,o),
(35,248,qs),
(35,173,o),
(98,54,o),
(211,-12,o),
(285,-12,qs)
);
},
{
closed = 1;
nodes = (
(150,295,l),
(157,353,o),
(232,414,o),
(283,414,qs),
(337,414,o),
(412,349,o),
(413,295,q)
);
}
);
userData = {
assembly = "NPUSHB[ ]	/* 55 values pushed */
0 3 1 2 1 3 2 128 0 6 0 1 3 6 1 103 0 5 5 0 97 0 0 0 42 77 0 2 2 4 97 7 1 4 4 40 4 78 0 0 30 29 27 25 0 23 0 22 17 34 21 38 8 8 26
CALL[ ]	/* CallFunction */";
};
width = 558;
}
);
note = e;
unicode = 101;
},
{
glyphname = eogonek;
kernLeft = c;
kernRight = ae;
layers = (
{
anchors = (
{
name = bottom;
pos = (282,0);
},
{
name = ogonek;
pos = (391,10);
},
{
name = top;
pos = (281,496);
}
);
layerId = m01;
shapes = (
{
closed = 1;
nodes = (
(150,295,l),
(157,353,o),
(232,414,o),
(283,414,qs),
(337,414,o),
(412,349,o),
(413,295,q)
);
},
{
closed = 1;
nodes = (
(351,-198,o),
(395,-184,q),
(395,-115,l),
(358,-130,o),
(326,-130,qs),
(301,-130,o),
(271,-106,o),
(271,-86,qs),
(271,-67,o),
(302,-34,o),
(337,-17,qs),
(382,6,l),
(432,26,o),
(500,103,o),
(516,152,q),
(397,152,l),
(365,82,o),
(283,82,qs),
(227,82,o),
(154,156,o),
(149,216,q),
(526,216,l),
(529,243,o),
(529,265,qs),
(529,334,o),
(467,445,o),
(357,508,o),
(286,508,qs),
(212,508,o),
(98,443,o),
(35,326,o),
(35,248,qs),
(35,148,o),
(141,10,o),
(230,-7,q),
(184,-45,o),
(184,-97,qs),
(184,-147,o),
(256,-198,o),
(312,-198,qs)
);
}
);
userData = {
assembly = "NPUSHB[ ]	/* 11 values pushed */
43 11 2 6 4 44 1 7 6 2 76
MPPEM[ ]	/* MeasurePixelPerEm */
PUSHB[ ]	/* 1 value pushed */
23
LT[ ]	/* LessThan */
IF[ ]	/* If */
NPUSHB[ ]	/* 45 values pushed */
0 5 3 4 3 5 4 128 0 4 6 3 4 6 126 0 1 0 3 5 1 3 103 0 0 0 2 97 0 2 2 42 77 0 6 6 7 98 8 1 7 7 38 7 78
ELSE[ ]	/* Else */
NPUSHB[ ]	/* 42 values pushed */
0 5 3 4 3 5 4 128 0 4 6 3 4 6 126 0 1 0 3 5 1 3 103 0 6 8 1 7 6 7 102 0 0 0 2 97 0 2 2 42 0 78
EIF[ ]	/* EndIf */
NPUSHB[ ]	/* 16 values pushed */
7 7 7 46 7 45 41 17 34 21 43 18 33 9 8 29
CALL[ ]	/* CallFunction */";
};
width = 558;
}
);
note = eogonek;
unicode = 281;
},
{
glyphname = uni0259;
kernLeft = c;
kernRight = b;
layers = (
{
layerId = m01;
shapes = (
{
closed = 1;
nodes = (
(346,-12,o),
(460,53,o),
(523,171,o),
(523,248,qs),
(523,323,o),
(462,441,o),
(349,508,o),
(273,508,qs),
(184,508,o),
(65,415,o),
(43,344,q),
(162,344,l),
(192,414,o),
(275,414,qs),
(332,414,o),
(405,340,o),
(409,280,q),
(32,280,l),
(29,255,o),
(29,231,qs),
(29,162,o),
(91,51,o),
(201,-12,o),
(272,-12,qs)
);
},
{
closed = 1;
nodes = (
(221,82,o),
(147,147,o),
(145,201,q),
(408,201,l),
(401,143,o),
(326,82,o),
(276,82,qs)
);
}
);
userData = {
assembly = "NPUSHB[ ]	/* 60 values pushed */
0 2 1 0 1 2 0 128 0 0 0 5 6 0 5 103 0 1 1 3 97 0 3 3 42 77 8 1 6 6 4 97 7 1 4 4 40 4 78 24 24 0 0 24 30 24 29 27 26 0 23 0 22 34 17 34 21 9 8 26
CALL[ ]	/* CallFunction */";
};
width = 558;
}
);
note = uni0259;
unicode = 601;
},
{
glyphname = f;
kernLeft = f;
kernRight = f;
layers = (
{
layerId = m01;
shapes = (
{
closed = 1;
nodes = (
(184,0,l),
(184,401,l),
(284,401,l),
(284,496,l),
(184,496,l),
(184,543,ls),
(184,575,o),
(214,603,o),
(248,603,qs),
(275,603,l),
(275,700,l),
(230,700,ls),
(152,700,o),
(71,625,o),
(71,543,qs),
(71,496,l),
(7,496,l),
(7,401,l),
(71,401,l),
(71,0,l)
);
}
);
userData = {
assembly = "NPUSHB[ ]	/* 38 values pushed */
0 3 3 2 97 0 2 2 33 77 5 1 0 0 1 95 4 1 1 1 36 77 0 6 6 34 6 78 17 17 19 33 35 17 16 7 8 29
CALL[ ]	/* CallFunction */";
};
width = 317;
}
);
note = f;
unicode = 102;
},
{
glyphname = g;
kernLeft = g;
kernRight = g;
layers = (
{
anchors = (
{
name = bottom;
pos = (264,-310);
},
{
name = top;
pos = (253,496);
}
);
layerId = m01;
shapes = (
{
closed = 1;
nodes = (
(328,-232,o),
(433,-192,o),
(495,-115,o),
(495,-62,qs),
(495,92,o),
(305,92,qs),
(217,92,ls),
(178,92,o),
(140,114,o),
(140,138,qs),
(140,149,o),
(153,170,o),
(163,175,q),
(203,155,o),
(254,155,qs),
(310,155,o),
(402,199,o),
(455,279,o),
(455,331,qs),
(455,367,o),
(436,408,q),
(508,408,l),
(508,496,l),
(333,496,l),
(296,508,o),
(254,508,qs),
(164,508,o),
(53,412,o),
(53,331,qs),
(53,264,o),
(98,217,q),
(38,180,o),
(38,117,qs),
(38,59,o),
(91,28,q),
(27,-8,o),
(27,-78,qs),
(27,-157,o),
(158,-232,o),
(265,-232,qs)
);
},
{
closed = 1;
nodes = (
(206,-142,o),
(133,-107,o),
(133,-70,qs),
(133,-37,o),
(180,-2,o),
(223,-2,qs),
(299,-2,ls),
(389,-2,o),
(389,-70,qs),
(389,-105,o),
(319,-142,o),
(264,-142,qs)
);
},
{
closed = 1;
nodes = (
(208,245,o),
(157,292,o),
(157,331,qs),
(157,369,o),
(210,418,o),
(252,418,qs),
(295,418,o),
(350,369,o),
(350,331,qs),
(350,293,o),
(295,245,o),
(252,245,qs)
);
}
);
userData = {
assembly = "NPUSHB[ ]	/* 11 values pushed */
26 8 2 3 9 4 1 6 4 2 76
MPPEM[ ]	/* MeasurePixelPerEm */
PUSHB[ ]	/* 1 value pushed */
21
LT[ ]	/* LessThan */
IF[ ]	/* If */
NPUSHB[ ]	/* 44 values pushed */
12 1 9 0 3 4 9 3 105 8 1 2 2 0 97 1 1 0 0 42 77 0 4 4 6 95 0 6 6 34 77 11 1 7 7 5 97 10 1 5 5 38 5 78
ELSE[ ]	/* Else */
MPPEM[ ]	/* MeasurePixelPerEm */
PUSHB[ ]	/* 1 value pushed */
25
LT[ ]	/* LessThan */
IF[ ]	/* If */
NPUSHB[ ]	/* 54 values pushed */
12 1 9 0 3 4 9 3 105 8 1 2 2 0 97 0 0 0 42 77 8 1 2 2 1 95 0 1 1 36 77 0 4 4 6 95 0 6 6 34 77 11 1 7 7 5 97 10 1 5 5 38 5 78
ELSE[ ]	/* Else */
MPPEM[ ]	/* MeasurePixelPerEm */
PUSHB[ ]	/* 1 value pushed */
41
LT[ ]	/* LessThan */
IF[ ]	/* If */
NPUSHB[ ]	/* 52 values pushed */
12 1 9 0 3 4 9 3 105 0 8 8 0 97 0 0 0 42 77 0 2 2 1 95 0 1 1 36 77 0 4 4 6 95 0 6 6 34 77 11 1 7 7 5 97 10 1 5 5 38 5 78
ELSE[ ]	/* Else */
NPUSHB[ ]	/* 49 values pushed */
12 1 9 0 3 4 9 3 105 11 1 7 10 1 5 7 5 101 0 8 8 0 97 0 0 0 42 77 0 2 2 1 95 0 1 1 36 77 0 4 4 6 95 0 6 6 34 6 78
EIF[ ]	/* EndIf */
EIF[ ]	/* EndIf */
EIF[ ]	/* EndIf */
NPUSHB[ ]	/* 30 values pushed */
52 52 40 40 0 0 52 63 52 62 58 56 40 51 40 50 46 43 0 39 0 38 54 37 17 17 44 13 8 27
CALL[ ]	/* CallFunction */";
};
width = 528;
}
);
note = g;
unicode = 103;
},
{
glyphname = h;
kernLeft = b;
kernRight = a;
layers = (
{
layerId = m01;
shapes = (
{
closed = 1;
nodes = (
(166,0,l),
(166,269,ls),
(166,335,o),
(234,412,o),
(293,412,qs),
(349,412,o),
(409,341,o),
(409,277,qs),
(409,0,l),
(521,0,l),
(521,291,ls),
(521,396,o),
(416,508,o),
(327,508,qs),
(278,508,o),
(190,467,o),
(166,429,q),
(166,700,l),
(53,700,l),
(53,0,l)
);
}
);
userData = {
assembly = "NPUSHB[ ]	/* 36 values pushed */
2 1 3 1 1 76 0 0 0 33 77 0 3 3 1 97 0 1 1 42 77 4 1 2 2 34 2 78 19 35 19 35 16 5 8 27
CALL[ ]	/* CallFunction */";
};
width = 565;
}
);
note = h;
unicode = 104;
},
{
glyphname = hbar;
layers = (
{
layerId = m01;
shapes = (
{
closed = 1;
nodes = (
(166,0,l),
(166,269,ls),
(166,335,o),
(234,412,o),
(293,412,qs),
(349,412,o),
(409,341,o),
(409,277,qs),
(409,0,l),
(521,0,l),
(521,291,ls),
(521,396,o),
(416,508,o),
(327,508,qs),
(278,508,o),
(190,467,o),
(166,429,q),
(166,562,l),
(327,562,l),
(327,643,l),
(166,643,l),
(166,700,l),
(53,700,l),
(53,643,l),
(11,643,l),
(11,562,l),
(53,562,l),
(53,0,l)
);
}
);
userData = {
assembly = "NPUSHB[ ]	/* 50 values pushed */
10 1 7 5 1 76 3 1 1 4 1 0 5 1 0 103 0 2 2 33 77 0 7 7 5 97 0 5 5 42 77 8 1 6 6 34 6 78 19 35 19 35 17 17 17 17 16 9 8 31
CALL[ ]	/* CallFunction */";
};
width = 565;
}
);
note = hbar;
unicode = 295;
},
{
glyphname = i;
kernLeft = i;
kernRight = i;
layers = (
{
anchors = (
{
name = bottom;
pos = (116,0);
}
);
layerId = m01;
shapes = (
{
closed = 1;
nodes = (
(148,575,o),
(191,619,o),
(191,650,qs),
(191,681,o),
(147,724,o),
(116,724,qs),
(85,724,o),
(41,681,o),
(41,650,qs),
(41,619,o),
(85,575,o),
(116,575,qs)
);
},
{
closed = 1;
nodes = (
(173,0,l),
(173,496,l),
(59,496,l),
(59,0,l)
);
}
);
userData = {
assembly = "MPPEM[ ]	/* MeasurePixelPerEm */
PUSHB[ ]	/* 1 value pushed */
33
LT[ ]	/* LessThan */
IF[ ]	/* If */
NPUSHB[ ]	/* 22 values pushed */
4 1 1 1 0 97 0 0 0 41 77 0 2 2 36 77 0 3 3 34 3 78
ELSE[ ]	/* Else */
MPPEM[ ]	/* MeasurePixelPerEm */
PUSHB[ ]	/* 1 value pushed */
41
LT[ ]	/* LessThan */
IF[ ]	/* If */
NPUSHB[ ]	/* 22 values pushed */
4 1 1 1 0 97 0 0 0 39 77 0 2 2 36 77 0 3 3 34 3 78
ELSE[ ]	/* Else */
NPUSHB[ ]	/* 20 values pushed */
0 0 4 1 1 2 0 1 105 0 2 2 36 77 0 3 3 34 3 78
EIF[ ]	/* EndIf */
EIF[ ]	/* EndIf */
NPUSHB[ ]	/* 14 values pushed */
0 0 15 14 13 12 0 11 0 10 36 5 8 23
CALL[ ]	/* CallFunction */";
};
width = 231;
}
);
note = i;
unicode = 105;
},
{
glyphname = dotlessi;
kernLeft = dotlessi;
layers = (
{
anchors = (
{
name = bottom;
pos = (110,0);
},
{
name = ogonek;
pos = (166,0);
},
{
name = top;
pos = (110,496);
}
);
layerId = m01;
shapes = (
{
closed = 1;
nodes = (
(166,0,l),
(166,496,l),
(53,496,l),
(53,0,l)
);
}
);
userData = {
assembly = "NPUSHB[ ]	/* 16 values pushed */
0 0 0 36 77 0 1 1 34 1 78 17 16 2 8 24
CALL[ ]	/* CallFunction */";
};
width = 220;
}
);
note = dotlessi;
unicode = 305;
},
{
glyphname = iogonek;
kernLeft = dotlessi;
layers = (
{
anchors = (
{
name = bottom;
pos = (110,0);
},
{
name = ogonek;
pos = (166,0);
},
{
name = top;
pos = (110,724);
}
);
layerId = m01;
shapes = (
{
closed = 1;
nodes = (
(142,575,o),
(185,618,o),
(185,650,qs),
(185,682,o),
(143,724,o),
(111,724,qs),
(79,724,o),
(36,682,o),
(36,650,qs),
(36,618,o),
(79,575,o),
(111,575,qs)
);
},
{
closed = 1;
nodes = (
(127,-208,o),
(171,-194,q),
(171,-125,l),
(134,-140,o),
(102,-140,qs),
(77,-140,o),
(47,-116,o),
(47,-96,qs),
(47,-77,o),
(78,-44,o),
(113,-27,qs),
(167,0,l),
(166,2,l),
(166,496,l),
(53,496,l),
(53,14,l),
(3,-13,o),
(-40,-72,o),
(-40,-107,qs),
(-40,-157,o),
(32,-208,o),
(88,-208,qs)
);
}
);
userData = {
assembly = "NPUSHB[ ]	/* 12 values pushed */
30 20 17 3 3 2 31 1 4 3 2 76
MPPEM[ ]	/* MeasurePixelPerEm */
PUSHB[ ]	/* 1 value pushed */
33
LT[ ]	/* LessThan */
IF[ ]	/* If */
NPUSHB[ ]	/* 28 values pushed */
5 1 1 1 0 97 0 0 0 41 77 0 2 2 36 77 0 3 3 4 98 6 1 4 4 38 4 78
ELSE[ ]	/* Else */
MPPEM[ ]	/* MeasurePixelPerEm */
PUSHB[ ]	/* 1 value pushed */
41
LT[ ]	/* LessThan */
IF[ ]	/* If */
NPUSHB[ ]	/* 28 values pushed */
5 1 1 1 0 97 0 0 0 39 77 0 2 2 36 77 0 3 3 4 98 6 1 4 4 38 4 78
ELSE[ ]	/* Else */
NPUSHB[ ]	/* 23 values pushed */
0 0 5 1 1 2 0 1 105 0 3 6 1 4 3 4 102 0 2 2 36 2 78
EIF[ ]	/* EndIf */
EIF[ ]	/* EndIf */
NPUSHB[ ]	/* 20 values pushed */
12 12 0 0 12 33 12 32 29 27 19 18 0 11 0 10 36 7 8 23
CALL[ ]	/* CallFunction */";
};
width = 220;
}
);
note = iogonek;
unicode = 303;
},
{
glyphname = j;
kernLeft = j;
layers = (
{
layerId = m01;
shapes = (
{
closed = 1;
nodes = (
(15,-220,ls),
(91,-220,o),
(174,-146,o),
(174,-63,qs),
(174,496,l),
(61,496,l),
(61,-63,ls),
(61,-95,o),
(31,-123,o),
(-3,-123,qs),
(-34,-123,l),
(-34,-220,l)
);
},
{
closed = 1;
nodes = (
(150,575,o),
(193,619,o),
(193,650,qs),
(193,681,o),
(150,724,o),
(119,724,qs),
(88,724,o),
(44,681,o),
(44,650,qs),
(44,619,o),
(88,575,o),
(119,575,qs)
);
}
);
userData = {
assembly = "MPPEM[ ]	/* MeasurePixelPerEm */
PUSHB[ ]	/* 1 value pushed */
33
LT[ ]	/* LessThan */
IF[ ]	/* If */
NPUSHB[ ]	/* 27 values pushed */
5 1 4 4 3 97 0 3 3 41 77 0 1 1 36 77 0 0 0 2 98 0 2 2 38 2 78
ELSE[ ]	/* Else */
MPPEM[ ]	/* MeasurePixelPerEm */
PUSHB[ ]	/* 1 value pushed */
41
LT[ ]	/* LessThan */
IF[ ]	/* If */
NPUSHB[ ]	/* 27 values pushed */
5 1 4 4 3 97 0 3 3 39 77 0 1 1 36 77 0 0 0 2 98 0 2 2 38 2 78
ELSE[ ]	/* Else */
NPUSHB[ ]	/* 25 values pushed */
0 3 5 1 4 1 3 4 105 0 1 1 36 77 0 0 0 2 98 0 2 2 38 2 78
EIF[ ]	/* EndIf */
EIF[ ]	/* EndIf */
NPUSHB[ ]	/* 13 values pushed */
12 12 12 23 12 22 37 35 19 32 6 8 26
CALL[ ]	/* CallFunction */";
};
width = 233;
}
);
note = j;
unicode = 106;
},
{
glyphname = uni0237;
layers = (
{
anchors = (
{
name = bottom;
pos = (116,-310);
},
{
name = top;
pos = (116,496);
}
);
layerId = m01;
shapes = (
{
closed = 1;
nodes = (
(15,-220,ls),
(91,-220,o),
(174,-146,o),
(174,-63,qs),
(174,496,l),
(61,496,l),
(61,-63,ls),
(61,-95,o),
(31,-123,o),
(-3,-123,qs),
(-34,-123,l),
(-34,-220,l)
);
}
);
userData = {
assembly = "NPUSHB[ ]	/* 22 values pushed */
0 1 1 36 77 0 0 0 2 98 0 2 2 38 2 78 35 19 32 3 8 25
CALL[ ]	/* CallFunction */";
};
width = 233;
}
);
note = uni0237;
unicode = 567;
},
{
glyphname = k;
kernLeft = b;
kernRight = k;
layers = (
{
anchors = (
{
name = bottom;
pos = (259,0);
},
{
name = top;
pos = (259,992);
}
);
layerId = m01;
shapes = (
{
closed = 1;
nodes = (
(166,0,l),
(166,226,l),
(354,0,l),
(500,0,l),
(270,255,l),
(488,496,l),
(344,496,l),
(166,286,l),
(166,700,l),
(53,700,l),
(53,0,l)
);
}
);
userData = {
assembly = "NPUSHB[ ]	/* 32 values pushed */
8 5 2 3 2 1 1 76 0 0 0 33 77 0 1 1 36 77 3 1 2 2 34 2 78 18 18 18 16 4 8 26
CALL[ ]	/* CallFunction */";
};
width = 517;
}
);
note = k;
unicode = 107;
},
{
glyphname = l;
kernLeft = b;
kernRight = l;
layers = (
{
anchors = (
{
name = bottom;
pos = (110,0);
},
{
name = top;
pos = (110,700);
},
{
name = topright;
pos = (202,992);
}
);
layerId = m01;
shapes = (
{
closed = 1;
nodes = (
(166,0,l),
(166,700,l),
(53,700,l),
(53,0,l)
);
}
);
userData = {
assembly = "NPUSHB[ ]	/* 16 values pushed */
0 0 0 33 77 0 1 1 34 1 78 17 16 2 8 24
CALL[ ]	/* CallFunction */";
};
width = 220;
}
);
note = l;
unicode = 108;
},
{
glyphname = ldot;
kernLeft = b;
layers = (
{
layerId = m01;
shapes = (
{
closed = 1;
nodes = (
(173,0,l),
(173,700,l),
(59,700,l),
(59,0,l)
);
},
{
closed = 1;
nodes = (
(313,309,o),
(346,341,o),
(346,366,qs),
(346,390,o),
(313,424,o),
(288,424,qs),
(263,424,o),
(230,390,o),
(230,366,qs),
(230,341,o),
(263,309,o),
(288,309,qs)
);
}
);
userData = {
assembly = "NPUSHB[ ]	/* 32 values pushed */
0 2 4 1 3 1 2 3 105 0 0 0 33 77 0 1 1 34 1 78 4 4 4 15 4 14 37 17 16 5 8 25
CALL[ ]	/* CallFunction */";
};
width = 351;
}
);
note = ldot;
unicode = 320;
},
{
glyphname = lslash;
kernLeft = b;
kernRight = lslash;
layers = (
{
layerId = m01;
shapes = (
{
closed = 1;
nodes = (
(195,0,l),
(195,373,l),
(266,399,l),
(266,493,l),
(195,466,l),
(195,700,l),
(81,700,l),
(81,426,l),
(11,399,l),
(11,306,l),
(81,332,l),
(81,0,l)
);
}
);
userData = {
assembly = "NPUSHB[ ]	/* 29 values pushed */
9 8 7 6 3 2 1 0 8 1 0 1 76 0 0 0 33 77 0 1 1 34 1 78 21 20 2 8 24
CALL[ ]	/* CallFunction */";
};
width = 295;
}
);
note = lslash;
unicode = 322;
},
{
glyphname = m;
kernLeft = dotlessi;
kernRight = a;
layers = (
{
layerId = m01;
shapes = (
{
closed = 1;
nodes = (
(166,0,l),
(166,269,ls),
(166,338,o),
(234,410,o),
(286,410,qs),
(341,410,o),
(400,341,o),
(400,277,qs),
(400,0,l),
(512,0,l),
(512,269,ls),
(512,335,o),
(576,410,o),
(633,410,qs),
(689,410,o),
(746,341,o),
(746,277,qs),
(746,0,l),
(858,0,l),
(858,292,ls),
(858,397,o),
(748,508,o),
(657,508,qs),
(604,508,o),
(514,457,o),
(489,411,q),
(464,459,o),
(372,508,o),
(314,508,qs),
(268,508,o),
(190,470,o),
(165,434,q),
(163,496,l),
(53,496,l),
(53,0,l)
);
}
);
userData = {
assembly = "PUSHB[ ]	/* 7 values pushed */
8 2 2 4 0 1 76
MPPEM[ ]	/* MeasurePixelPerEm */
PUSHB[ ]	/* 1 value pushed */
21
LT[ ]	/* LessThan */
IF[ ]	/* If */
NPUSHB[ ]	/* 21 values pushed */
6 1 4 4 0 97 2 1 2 0 0 36 77 7 5 2 3 3 34 3 78
ELSE[ ]	/* Else */
NPUSHB[ ]	/* 25 values pushed */
0 0 0 36 77 6 1 4 4 1 97 2 1 1 1 42 77 7 5 2 3 3 34 3 78
EIF[ ]	/* EndIf */
NPUSHB[ ]	/* 11 values pushed */
19 35 19 35 19 36 35 16 8 8 30
CALL[ ]	/* CallFunction */";
};
width = 902;
}
);
note = m;
unicode = 109;
},
{
glyphname = n;
kernLeft = dotlessi;
kernRight = a;
layers = (
{
anchors = (
{
name = bottom;
pos = (293,0);
},
{
name = top;
pos = (293,496);
}
);
layerId = m01;
shapes = (
{
closed = 1;
nodes = (
(166,0,l),
(166,269,ls),
(166,335,o),
(233,412,o),
(291,412,qs),
(348,412,o),
(409,341,o),
(409,277,qs),
(409,0,l),
(521,0,l),
(521,291,ls),
(521,396,o),
(415,508,o),
(326,508,qs),
(277,508,o),
(189,466,o),
(165,428,q),
(163,496,l),
(53,496,l),
(53,0,l)
);
}
);
userData = {
assembly = "PUSHB[ ]	/* 6 values pushed */
2 1 3 0 1 76
MPPEM[ ]	/* MeasurePixelPerEm */
PUSHB[ ]	/* 1 value pushed */
21
LT[ ]	/* LessThan */
IF[ ]	/* If */
NPUSHB[ ]	/* 18 values pushed */
0 3 3 0 97 1 1 0 0 36 77 4 1 2 2 34 2 78
ELSE[ ]	/* Else */
NPUSHB[ ]	/* 22 values pushed */
0 0 0 36 77 0 3 3 1 97 0 1 1 42 77 4 1 2 2 34 2 78
EIF[ ]	/* EndIf */
PUSHB[ ]	/* 8 values pushed */
19 35 19 35 16 5 8 27
CALL[ ]	/* CallFunction */";
};
width = 566;
}
);
note = n;
unicode = 110;
},
{
glyphname = eng;
kernLeft = dotlessi;
kernRight = a;
layers = (
{
layerId = m01;
shapes = (
{
closed = 1;
nodes = (
(362,-220,ls),
(438,-220,o),
(521,-146,o),
(521,-63,qs),
(521,291,ls),
(521,396,o),
(415,508,o),
(326,508,qs),
(277,508,o),
(189,466,o),
(165,428,q),
(163,496,l),
(53,496,l),
(53,0,l),
(166,0,l),
(166,269,ls),
(166,335,o),
(233,412,o),
(291,412,qs),
(348,412,o),
(409,341,o),
(409,277,qs),
(409,-63,ls),
(409,-95,o),
(379,-123,o),
(345,-123,qs),
(313,-123,l),
(313,-220,l)
);
}
);
userData = {
assembly = "PUSHB[ ]	/* 6 values pushed */
16 1 1 3 1 76
MPPEM[ ]	/* MeasurePixelPerEm */
PUSHB[ ]	/* 1 value pushed */
21
LT[ ]	/* LessThan */
IF[ ]	/* If */
NPUSHB[ ]	/* 27 values pushed */
0 1 1 3 97 4 1 3 3 36 77 0 2 2 34 77 0 0 0 5 97 0 5 5 38 5 78
ELSE[ ]	/* Else */
NPUSHB[ ]	/* 31 values pushed */
0 3 3 36 77 0 1 1 4 97 0 4 4 42 77 0 2 2 34 77 0 0 0 5 97 0 5 5 38 5 78
EIF[ ]	/* EndIf */
NPUSHB[ ]	/* 9 values pushed */
37 35 17 19 37 32 6 8 28
CALL[ ]	/* CallFunction */";
};
width = 565;
}
);
note = eng;
unicode = 331;
},
{
glyphname = o;
kernLeft = c;
kernRight = b;
layers = (
{
anchors = (
{
name = bottom;
pos = (295,0);
},
{
name = ogonek;
pos = (403,10);
},
{
name = top;
pos = (295,496);
},
{
name = topright;
pos = (567,496);
}
);
layerId = m01;
shapes = (
{
closed = 1;
nodes = (
(367,-12,o),
(487,55,o),
(554,173,o),
(554,248,qs),
(554,326,o),
(486,444,o),
(368,508,o),
(295,508,qs),
(222,508,o),
(104,445,o),
(35,326,o),
(35,248,qs),
(35,170,o),
(101,52,o),
(218,-12,o),
(291,-12,qs)
);
},
{
closed = 1;
nodes = (
(253,86,o),
(189,125,o),
(150,198,o),
(150,248,qs),
(150,319,o),
(228,410,o),
(293,410,qs),
(356,410,o),
(438,322,o),
(438,250,qs),
(438,204,o),
(400,129,o),
(334,86,o),
(292,86,qs)
);
}
);
userData = {
assembly = "NPUSHB[ ]	/* 41 values pushed */
0 2 2 0 97 0 0 0 42 77 5 1 3 3 1 97 4 1 1 1 40 1 78 16 16 0 0 16 29 16 28 23 21 0 15 0 14 38 6 8 23
CALL[ ]	/* CallFunction */";
};
width = 589;
}
);
note = o;
unicode = 111;
},
{
glyphname = oslash;
layers = (
{
layerId = m01;
shapes = (
{
closed = 1;
nodes = (
(368,-12,o),
(486,54,o),
(552,173,o),
(552,248,qs),
(552,350,o),
(494,421,q),
(560,496,l),
(466,496,l),
(441,467,l),
(377,508,o),
(295,508,qs),
(224,508,o),
(106,444,o),
(38,326,o),
(38,248,qs),
(38,145,o),
(95,75,q),
(30,0,l),
(125,0,l),
(149,28,l),
(211,-12,o),
(292,-12,qs)
);
},
{
closed = 1;
nodes = (
(252,85,o),
(219,107,q),
(418,335,l),
(437,299,o),
(437,249,qs),
(437,180,o),
(357,85,o),
(293,85,qs)
);
},
{
closed = 1;
nodes = (
(171,161,l),
(152,199,o),
(152,248,qs),
(152,319,o),
(229,411,o),
(294,411,qs),
(336,411,o),
(371,388,q)
);
}
);
userData = {
assembly = "MPPEM[ ]	/* MeasurePixelPerEm */
PUSHB[ ]	/* 1 value pushed */
21
LT[ ]	/* LessThan */
IF[ ]	/* If */
NPUSHB[ ]	/* 19 values pushed */
15 12 2 5 1 37 36 27 26 4 4 5 4 1 2 0 4 3 76
ELSE[ ]	/* Else */
NPUSHB[ ]	/* 19 values pushed */
15 12 2 5 2 37 36 27 26 4 4 5 4 1 2 0 4 3 76
EIF[ ]	/* EndIf */
MPPEM[ ]	/* MeasurePixelPerEm */
PUSHB[ ]	/* 1 value pushed */
21
LT[ ]	/* LessThan */
IF[ ]	/* If */
NPUSHB[ ]	/* 25 values pushed */
0 5 5 1 97 2 1 1 1 42 77 7 1 4 4 0 97 6 3 2 0 0 34 0 78
ELSE[ ]	/* Else */
NPUSHB[ ]	/* 33 values pushed */
0 2 2 36 77 0 5 5 1 97 0 1 1 42 77 0 0 0 34 77 7 1 4 4 3 97 6 1 3 3 40 3 78
EIF[ ]	/* EndIf */
NPUSHB[ ]	/* 20 values pushed */
22 22 0 0 32 30 22 29 22 28 0 21 0 20 18 38 18 8 8 25
CALL[ ]	/* CallFunction */";
};
width = 588;
}
);
note = oslash;
unicode = 248;
},
{
glyphname = oe;
kernLeft = c;
kernRight = ae;
layers = (
{
layerId = m01;
shapes = (
{
closed = 1;
nodes = (
(348,-12,o),
(446,39,o),
(477,85,q),
(510,39,o),
(613,-12,o),
(677,-12,qs),
(763,-12,o),
(884,80,o),
(907,152,q),
(793,152,l),
(777,119,o),
(717,82,o),
(676,82,qs),
(618,82,o),
(540,157,o),
(535,221,q),
(918,221,l),
(920,269,ls),
(920,338,o),
(890,389,qs),
(859,445,o),
(749,508,o),
(677,508,qs),
(613,508,o),
(510,457,o),
(477,410,q),
(447,457,o),
(350,508,o),
(288,508,qs),
(217,508,o),
(160,475,qs),
(102,442,o),
(35,324,o),
(35,248,qs),
(35,170,o),
(69,112,qs),
(102,53,o),
(216,-12,o),
(287,-12,qs)
);
},
{
closed = 1;
nodes = (
(228,86,o),
(151,173,o),
(151,248,qs),
(151,322,o),
(227,410,o),
(288,410,qs),
(347,410,o),
(424,323,o),
(424,248,qs),
(424,174,o),
(348,86,o),
(287,86,qs)
);
},
{
closed = 1;
nodes = (
(539,296,l),
(546,352,o),
(623,415,o),
(676,415,qs),
(731,415,o),
(804,350,o),
(807,296,q)
);
}
);
userData = {
assembly = "NPUSHB[ ]	/* 11 values pushed */
35 1 3 4 1 76 12 1 7 1 75
MPPEM[ ]	/* MeasurePixelPerEm */
PUSHB[ ]	/* 1 value pushed */
46
LT[ ]	/* LessThan */
IF[ ]	/* If */
NPUSHB[ ]	/* 43 values pushed */
0 4 2 3 2 4 3 128 0 10 0 2 4 10 2 103 9 1 7 7 0 97 1 1 0 0 42 77 12 8 2 3 3 5 97 11 6 2 5 5 40 5 78
ELSE[ ]	/* Else */
NPUSHB[ ]	/* 53 values pushed */
0 4 2 3 2 4 3 128 0 10 0 2 4 10 2 103 0 9 9 0 97 1 1 0 0 42 77 0 7 7 0 97 1 1 0 0 42 77 12 8 2 3 3 5 97 11 6 2 5 5 40 5 78
EIF[ ]	/* EndIf */
NPUSHB[ ]	/* 27 values pushed */
39 39 0 0 57 56 54 52 39 50 39 49 45 43 0 38 0 37 34 18 34 21 36 40 13 8 28
CALL[ ]	/* CallFunction */";
};
width = 950;
}
);
note = oe;
unicode = 339;
},
{
glyphname = p;
kernLeft = p;
kernRight = b;
layers = (
{
layerId = m01;
shapes = (
{
closed = 1;
nodes = (
(166,-220,l),
(166,73,l),
(190,36,o),
(278,-12,o),
(337,-12,qs),
(407,-12,o),
(515,57,o),
(573,176,o),
(573,249,qs),
(573,321,o),
(515,439,o),
(409,508,o),
(338,508,qs),
(283,508,o),
(194,463,o),
(166,423,q),
(163,496,l),
(53,496,l),
(53,-220,l)
);
},
{
closed = 1;
nodes = (
(248,87,o),
(166,179,o),
(166,248,qs),
(166,318,o),
(248,409,o),
(312,409,qs),
(375,409,o),
(458,321,o),
(458,249,qs),
(458,180,o),
(376,87,o),
(312,87,qs)
);
}
);
userData = {
assembly = "NPUSHB[ ]	/* 10 values pushed */
2 1 4 0 16 1 2 5 2 76
MPPEM[ ]	/* MeasurePixelPerEm */
PUSHB[ ]	/* 1 value pushed */
21
LT[ ]	/* LessThan */
IF[ ]	/* If */
NPUSHB[ ]	/* 28 values pushed */
0 4 4 0 97 1 1 0 0 36 77 6 1 5 5 2 97 0 2 2 40 77 0 3 3 38 3 78
ELSE[ ]	/* Else */
NPUSHB[ ]	/* 32 values pushed */
0 0 0 36 77 0 4 4 1 97 0 1 1 42 77 6 1 5 5 2 97 0 2 2 40 77 0 3 3 38 3 78
EIF[ ]	/* EndIf */
NPUSHB[ ]	/* 14 values pushed */
19 19 19 30 19 29 37 19 38 35 16 7 8 27
CALL[ ]	/* CallFunction */";
};
width = 608;
}
);
note = p;
unicode = 112;
},
{
glyphname = thorn;
kernRight = b;
layers = (
{
layerId = m01;
shapes = (
{
closed = 1;
nodes = (
(166,-220,l),
(166,73,l),
(193,32,o),
(280,-12,o),
(337,-12,qs),
(409,-12,o),
(520,56,o),
(582,174,o),
(582,247,qs),
(582,320,o),
(521,439,o),
(410,508,o),
(338,508,qs),
(227,508,o),
(166,421,q),
(166,700,l),
(53,700,l),
(53,-220,l)
);
},
{
closed = 1;
nodes = (
(249,87,o),
(166,178,o),
(166,248,qs),
(166,319,o),
(249,409,o),
(316,409,qs),
(383,409,o),
(467,318,o),
(467,247,qs),
(467,176,o),
(382,87,o),
(316,87,qs)
);
}
);
userData = {
assembly = "NPUSHB[ ]	/* 56 values pushed */
2 1 4 1 15 1 2 5 2 76 0 0 0 33 77 0 4 4 1 97 0 1 1 42 77 6 1 5 5 2 97 0 2 2 40 77 0 3 3 38 3 78 18 18 18 29 18 28 37 19 38 34 16 7 8 27
CALL[ ]	/* CallFunction */";
};
width = 617;
}
);
note = thorn;
unicode = 254;
},
{
glyphname = q;
kernLeft = c;
layers = (
{
layerId = m01;
shapes = (
{
closed = 1;
nodes = (
(443,-220,l),
(556,-220,l),
(556,496,l),
(445,496,l),
(443,427,l),
(416,466,o),
(327,507,o),
(274,507,qs),
(204,507,o),
(95,439,o),
(35,321,o),
(35,249,qs),
(36,175,o),
(97,57,o),
(204,-11,o),
(273,-11,qs),
(331,-11,o),
(418,37,o),
(443,71,q)
);
},
{
closed = 1;
nodes = (
(255,87,o),
(189,128,o),
(151,202,o),
(151,249,qs),
(151,318,o),
(233,409,o),
(296,409,qs),
(361,409,o),
(442,318,o),
(442,248,qs),
(442,199,o),
(403,126,o),
(336,87,o),
(296,87,qs)
);
}
);
userData = {
assembly = "MPPEM[ ]	/* MeasurePixelPerEm */
PUSHB[ ]	/* 1 value pushed */
23
LT[ ]	/* LessThan */
IF[ ]	/* If */
NPUSHB[ ]	/* 10 values pushed */
13 1 4 1 18 1 0 5 2 76
ELSE[ ]	/* Else */
NPUSHB[ ]	/* 10 values pushed */
13 1 4 2 18 1 0 5 2 76
EIF[ ]	/* EndIf */
MPPEM[ ]	/* MeasurePixelPerEm */
PUSHB[ ]	/* 1 value pushed */
23
LT[ ]	/* LessThan */
IF[ ]	/* If */
NPUSHB[ ]	/* 28 values pushed */
0 4 4 1 97 2 1 1 1 42 77 6 1 5 5 0 97 0 0 0 40 77 0 3 3 38 3 78
ELSE[ ]	/* Else */
NPUSHB[ ]	/* 32 values pushed */
0 2 2 36 77 0 4 4 1 97 0 1 1 42 77 6 1 5 5 0 97 0 0 0 40 77 0 3 3 38 3 78
EIF[ ]	/* EndIf */
NPUSHB[ ]	/* 14 values pushed */
19 19 19 32 19 31 39 17 19 38 33 7 8 27
CALL[ ]	/* CallFunction */";
};
width = 609;
}
);
note = q;
unicode = 113;
},
{
glyphname = r;
kernLeft = dotlessi;
kernRight = r;
layers = (
{
anchors = (
{
name = bottom;
pos = (116,0);
},
{
name = top;
pos = (175,496);
}
);
layerId = m01;
shapes = (
{
closed = 1;
nodes = (
(166,0,l),
(166,249,ls),
(166,321,o),
(232,389,o),
(300,389,qs),
(331,389,l),
(331,508,l),
(275,508,o),
(191,460,o),
(165,415,q),
(163,496,l),
(53,496,l),
(53,0,l)
);
}
);
userData = {
assembly = "PUSHB[ ]	/* 6 values pushed */
2 1 2 0 1 76
MPPEM[ ]	/* MeasurePixelPerEm */
PUSHB[ ]	/* 1 value pushed */
21
LT[ ]	/* LessThan */
IF[ ]	/* If */
NPUSHB[ ]	/* 17 values pushed */
0 2 2 0 97 1 1 0 0 36 77 0 3 3 34 3 78
ELSE[ ]	/* Else */
NPUSHB[ ]	/* 21 values pushed */
0 0 0 36 77 0 2 2 1 97 0 1 1 42 77 0 3 3 34 3 78
EIF[ ]	/* EndIf */
PUSHB[ ]	/* 7 values pushed */
19 33 19 16 4 8 26
CALL[ ]	/* CallFunction */";
};
width = 349;
}
);
note = r;
unicode = 114;
},
{
glyphname = s;
kernLeft = s;
kernRight = s;
layers = (
{
anchors = (
{
name = bottom;
pos = (249,0);
},
{
name = top;
pos = (241,496);
}
);
layerId = m01;
shapes = (
{
closed = 1;
nodes = (
(336,-12,o),
(447,71,o),
(447,141,qs),
(446,188,o),
(401,247,o),
(327,279,o),
(268,293,qs),
(218,305,o),
(159,335,o),
(159,362,qs),
(159,389,o),
(202,417,o),
(238,417,qs),
(277,417,o),
(326,380,o),
(330,347,q),
(438,347,l),
(432,424,o),
(324,508,o),
(241,508,qs),
(158,508,o),
(48,426,o),
(48,358,qs),
(48,293,o),
(140,230,o),
(226,210,qs),
(266,200,o),
(306,187,o),
(337,160,o),
(337,138,qs),
(337,111,o),
(288,78,o),
(251,78,qs),
(211,78,o),
(153,121,o),
(147,156,q),
(33,156,l),
(37,106,o),
(97,29,o),
(194,-12,o),
(252,-12,qs)
);
}
);
userData = {
assembly = "NPUSHB[ ]	/* 51 values pushed */
0 3 4 0 4 3 0 128 0 0 1 4 0 1 126 0 4 4 2 97 0 2 2 42 77 0 1 1 5 97 6 1 5 5 40 5 78 0 0 0 40 0 39 34 18 43 34 19 7 8 27
CALL[ ]	/* CallFunction */";
};
width = 483;
}
);
note = s;
unicode = 115;
},
{
glyphname = scedilla;
kernLeft = s;
kernRight = s;
layers = (
{
anchors = (
{
name = bottom;
pos = (249,-262);
},
{
name = top;
pos = (241,496);
}
);
layerId = m01;
shapes = (
{
closed = 1;
nodes = (
(285,-262,ls),
(340,-262,o),
(412,-206,o),
(412,-156,qs),
(412,-106,o),
(339,-53,o),
(282,-54,q),
(282,-11,l),
(355,-3,o),
(447,78,o),
(447,141,qs),
(446,188,o),
(401,247,o),
(327,279,o),
(268,293,qs),
(218,305,o),
(159,335,o),
(159,362,qs),
(159,389,o),
(202,417,o),
(238,417,qs),
(277,417,o),
(326,380,o),
(330,347,q),
(438,347,l),
(432,424,o),
(324,508,o),
(241,508,qs),
(158,508,o),
(48,426,o),
(48,358,qs),
(48,293,o),
(140,230,o),
(226,210,qs),
(266,200,o),
(306,187,o),
(337,160,o),
(337,138,qs),
(337,111,o),
(288,78,o),
(251,78,qs),
(211,78,o),
(153,121,o),
(147,156,q),
(33,156,l),
(38,90,o),
(136,2,o),
(210,-9,q),
(210,-116,l),
(267,-116,ls),
(325,-116,o),
(325,-155,qs),
(325,-195,o),
(267,-195,qs),
(162,-195,l),
(162,-262,l)
);
}
);
userData = {
assembly = "PUSHB[ ]	/* 7 values pushed */
47 7 2 7 3 1 76
MPPEM[ ]	/* MeasurePixelPerEm */
PUSHB[ ]	/* 1 value pushed */
9
LT[ ]	/* LessThan */
IF[ ]	/* If */
NPUSHB[ ]	/* 47 values pushed */
0 5 6 2 6 5 2 128 0 2 3 6 2 3 126 0 3 7 7 3 112 0 7 0 1 0 7 1 106 0 0 0 8 0 8 99 0 6 6 4 97 0 4 4 42 6 78
ELSE[ ]	/* Else */
NPUSHB[ ]	/* 48 values pushed */
0 5 6 2 6 5 2 128 0 2 3 6 2 3 126 0 3 7 6 3 7 126 0 7 0 1 0 7 1 106 0 0 0 8 0 8 99 0 6 6 4 97 0 4 4 42 6 78
EIF[ ]	/* EndIf */
NPUSHB[ ]	/* 12 values pushed */
36 29 34 18 43 34 20 34 32 9 8 31
CALL[ ]	/* CallFunction */";
};
width = 483;
}
);
note = scedilla;
unicode = 351;
},
{
glyphname = germandbls;
kernLeft = b;
kernRight = germandbls;
layers = (
{
layerId = m01;
shapes = (
{
closed = 1;
nodes = (
(536,-10,o),
(646,78,o),
(646,156,qs),
(646,219,o),
(575,291,o),
(506,316,qs),
(447,337,o),
(400,365,o),
(400,389,qs),
(400,405,o),
(423,427,o),
(446,443,qs),
(486,468,o),
(531,518,o),
(531,560,qs),
(531,614,o),
(470,692,o),
(366,732,o),
(303,732,qs),
(231,732,o),
(118,681,o),
(54,582,o),
(54,513,qs),
(54,0,l),
(167,0,l),
(167,503,ls),
(167,567,o),
(231,637,o),
(299,637,qs),
(350,637,o),
(418,593,o),
(418,549,qs),
(418,527,o),
(394,494,o),
(372,479,qs),
(333,453,ls),
(286,420,o),
(286,372,qs),
(286,321,o),
(366,265,o),
(438,241,qs),
(486,225,o),
(534,186,o),
(534,149,qs),
(534,112,o),
(487,75,o),
(448,75,qs),
(403,75,o),
(350,128,o),
(345,173,q),
(237,173,l),
(246,84,o),
(362,-10,o),
(450,-10,qs)
);
}
);
userData = {
assembly = "MPPEM[ ]	/* MeasurePixelPerEm */
PUSHB[ ]	/* 1 value pushed */
25
LT[ ]	/* LessThan */
IF[ ]	/* If */
NPUSHB[ ]	/* 31 values pushed */
0 0 2 1 2 0 1 128 0 2 2 4 97 0 4 4 41 77 0 1 1 3 97 6 5 2 3 3 34 3 78
ELSE[ ]	/* Else */
MPPEM[ ]	/* MeasurePixelPerEm */
PUSHB[ ]	/* 1 value pushed */
33
LT[ ]	/* LessThan */
IF[ ]	/* If */
NPUSHB[ ]	/* 35 values pushed */
0 0 2 1 2 0 1 128 0 2 2 4 97 0 4 4 41 77 0 3 3 34 77 0 1 1 5 97 6 1 5 5 40 5 78
ELSE[ ]	/* Else */
NPUSHB[ ]	/* 33 values pushed */
0 0 2 1 2 0 1 128 0 4 0 2 0 4 2 105 0 3 3 34 77 0 1 1 5 97 6 1 5 5 40 5 78
EIF[ ]	/* EndIf */
EIF[ ]	/* EndIf */
NPUSHB[ ]	/* 17 values pushed */
0 0 0 53 0 52 35 33 29 28 25 23 34 18 7 8 24
CALL[ ]	/* CallFunction */";
};
width = 666;
}
);
note = germandbls;
unicode = 223;
},
{
glyphname = t;
kernLeft = t;
kernRight = t;
layers = (
{
anchors = (
{
name = bottom;
pos = (225,0);
},
{
name = top;
pos = (182,496);
},
{
name = topright;
pos = (253,992);
}
);
layerId = m01;
shapes = (
{
closed = 1;
nodes = (
(327,0,l),
(327,95,l),
(270,95,ls),
(237,95,o),
(206,121,o),
(206,154,qs),
(206,401,l),
(327,401,l),
(327,496,l),
(206,496,l),
(206,616,l),
(92,616,l),
(92,496,l),
(21,496,l),
(21,401,l),
(92,401,l),
(92,155,ls),
(92,75,o),
(171,0,o),
(248,0,qs)
);
}
);
userData = {
assembly = "NPUSHB[ ]	/* 44 values pushed */
0 2 1 2 133 4 1 0 0 1 95 3 1 1 1 36 77 0 5 5 6 96 7 1 6 6 34 6 78 0 0 0 19 0 18 35 17 17 17 17 19 8 8 28
CALL[ ]	/* CallFunction */";
};
width = 363;
}
);
note = t;
unicode = 116;
},
{
glyphname = uni0163;
kernLeft = t;
kernRight = t;
layers = (
{
anchors = (
{
name = bottom;
pos = (225,-262);
},
{
name = top;
pos = (182,496);
},
{
name = topright;
pos = (253,992);
}
);
layerId = m01;
shapes = (
{
closed = 1;
nodes = (
(261,-262,ls),
(316,-262,o),
(388,-206,o),
(388,-156,qs),
(388,-106,o),
(315,-53,o),
(258,-54,q),
(258,0,l),
(327,0,l),
(327,95,l),
(270,95,ls),
(237,95,o),
(206,121,o),
(206,154,qs),
(206,401,l),
(327,401,l),
(327,496,l),
(206,496,l),
(206,616,l),
(92,616,l),
(92,496,l),
(21,496,l),
(21,401,l),
(92,401,l),
(92,155,ls),
(92,34,o),
(186,8,q),
(186,-116,l),
(243,-116,ls),
(301,-116,o),
(301,-155,qs),
(301,-195,o),
(243,-195,qs),
(138,-195,l),
(138,-262,l)
);
}
);
userData = {
assembly = "NPUSHB[ ]	/* 65 values pushed */
7 1 8 7 1 76 0 4 3 4 133 0 9 0 1 0 9 1 106 0 0 0 10 0 10 99 6 1 2 2 3 95 5 1 3 3 36 77 0 7 7 8 95 0 8 8 34 8 78 34 32 28 27 17 35 17 17 17 17 20 34 32 11 8 31
CALL[ ]	/* CallFunction */";
};
width = 363;
}
);
note = uni0163;
unicode = 355;
},
{
glyphname = u;
kernLeft = u;
layers = (
{
anchors = (
{
name = bottom;
pos = (283,0);
},
{
name = ogonek;
pos = (512,0);
},
{
name = top;
pos = (281,496);
},
{
name = topright;
pos = (545,496);
}
);
layerId = m01;
shapes = (
{
closed = 1;
nodes = (
(292,-12,o),
(376,30,o),
(400,68,q),
(402,0,l),
(512,0,l),
(512,496,l),
(399,496,l),
(399,227,ls),
(399,160,o),
(333,84,o),
(274,84,qs),
(217,84,o),
(157,156,o),
(157,219,qs),
(157,496,l),
(44,496,l),
(44,203,ls),
(44,104,o),
(150,-12,o),
(243,-12,qs)
);
}
);
userData = {
assembly = "PUSHB[ ]	/* 6 values pushed */
16 1 3 1 1 76
MPPEM[ ]	/* MeasurePixelPerEm */
PUSHB[ ]	/* 1 value pushed */
21
LT[ ]	/* LessThan */
IF[ ]	/* If */
NPUSHB[ ]	/* 19 values pushed */
2 1 0 0 36 77 0 1 1 3 98 5 4 2 3 3 34 3 78
ELSE[ ]	/* Else */
NPUSHB[ ]	/* 23 values pushed */
2 1 0 0 36 77 0 3 3 34 77 0 1 1 4 98 5 1 4 4 40 4 78
EIF[ ]	/* EndIf */
NPUSHB[ ]	/* 13 values pushed */
0 0 0 19 0 18 17 19 35 19 6 8 26
CALL[ ]	/* CallFunction */";
};
width = 565;
}
);
note = u;
unicode = 117;
},
{
glyphname = uogonek;
kernLeft = u;
layers = (
{
anchors = (
{
name = bottom;
pos = (283,0);
},
{
name = ogonek;
pos = (512,0);
},
{
name = top;
pos = (281,496);
},
{
name = topright;
pos = (545,496);
}
);
layerId = m01;
shapes = (
{
closed = 1;
nodes = (
(292,-12,o),
(376,30,o),
(400,68,q),
(402,16,l),
(350,-11,o),
(306,-72,o),
(306,-107,qs),
(306,-157,o),
(378,-208,o),
(434,-208,qs),
(473,-208,o),
(517,-194,q),
(517,-125,l),
(480,-140,o),
(448,-140,qs),
(423,-140,o),
(393,-116,o),
(393,-96,qs),
(393,-77,o),
(424,-44,o),
(459,-27,qs),
(513,0,l),
(512,2,l),
(512,496,l),
(399,496,l),
(399,227,ls),
(399,160,o),
(333,84,o),
(274,84,qs),
(217,84,o),
(157,156,o),
(157,219,qs),
(157,496,l),
(44,496,l),
(44,203,ls),
(44,104,o),
(150,-12,o),
(243,-12,qs)
);
}
);
userData = {
assembly = "NPUSHB[ ]	/* 16 values pushed */
34 33 14 3 5 1 24 1 3 5 25 1 4 3 3 76
MPPEM[ ]	/* MeasurePixelPerEm */
PUSHB[ ]	/* 1 value pushed */
41
LT[ ]	/* LessThan */
IF[ ]	/* If */
NPUSHB[ ]	/* 28 values pushed */
2 1 0 0 36 77 0 1 1 5 98 6 1 5 5 40 77 0 3 3 4 97 0 4 4 38 4 78
ELSE[ ]	/* Else */
NPUSHB[ ]	/* 25 values pushed */
0 3 0 4 3 4 101 2 1 0 0 36 77 0 1 1 5 98 6 1 5 5 40 5 78
EIF[ ]	/* EndIf */
NPUSHB[ ]	/* 14 values pushed */
0 0 0 37 0 36 35 40 19 35 19 7 8 27
CALL[ ]	/* CallFunction */";
};
width = 565;
}
);
note = uogonek;
unicode = 371;
},
{
glyphname = v;
kernLeft = v;
kernRight = v;
layers = (
{
layerId = m01;
shapes = (
{
closed = 1;
nodes = (
(329,0,l),
(516,496,l),
(397,496,l),
(262,104,l),
(127,496,l),
(7,496,l),
(194,0,l)
);
}
);
userData = {
assembly = "NPUSHB[ ]	/* 24 values pushed */
2 1 2 0 1 76 1 1 0 0 36 77 0 2 2 34 2 78 17 18 16 3 8 25
CALL[ ]	/* CallFunction */";
};
width = 523;
}
);
note = v;
unicode = 118;
},
{
glyphname = w;
kernLeft = w;
kernRight = w;
layers = (
{
anchors = (
{
name = bottom;
pos = (375,0);
},
{
name = top;
pos = (376,496);
}
);
layerId = m01;
shapes = (
{
closed = 1;
nodes = (
(274,0,l),
(376,368,l),
(478,1,l),
(598,1,l),
(744,496,l),
(634,496,l),
(540,116,l),
(439,496,l),
(317,496,l),
(214,115,l),
(120,496,l),
(6,496,l),
(153,0,l)
);
}
);
userData = {
assembly = "NPUSHB[ ]	/* 30 values pushed */
10 5 2 3 3 0 1 76 2 1 2 0 0 36 77 4 1 3 3 34 3 78 18 17 18 18 16 5 8 27
CALL[ ]	/* CallFunction */";
};
width = 749;
}
);
note = w;
unicode = 119;
},
{
glyphname = x;
kernLeft = x;
kernRight = x;
layers = (
{
layerId = m01;
shapes = (
{
closed = 1;
nodes = (
(127,0,l),
(235,171,l),
(351,0,l),
(476,0,l),
(308,249,l),
(475,496,l),
(354,496,l),
(246,326,l),
(131,496,l),
(5,496,l),
(173,249,l),
(6,0,l)
);
}
);
userData = {
assembly = "NPUSHB[ ]	/* 28 values pushed */
9 6 3 3 2 0 1 76 1 1 0 0 36 77 3 1 2 2 34 2 78 18 18 18 17 4 8 26
CALL[ ]	/* CallFunction */";
};
width = 481;
}
);
note = x;
unicode = 120;
},
{
glyphname = y;
kernLeft = y;
kernRight = y;
layers = (
{
anchors = (
{
name = bottom;
pos = (271,0);
},
{
name = top;
pos = (271,496);
}
);
layerId = m01;
shapes = (
{
closed = 1;
nodes = (
(221,-220,l),
(536,496,l),
(417,496,l),
(272,142,l),
(132,496,l),
(6,496,l),
(211,22,l),
(102,-220,l)
);
}
);
userData = {
assembly = "NPUSHB[ ]	/* 24 values pushed */
3 1 2 0 1 76 1 1 0 0 36 77 0 2 2 38 2 78 17 18 17 3 8 25
CALL[ ]	/* CallFunction */";
};
width = 542;
}
);
note = y;
unicode = 121;
},
{
glyphname = z;
kernLeft = z;
layers = (
{
anchors = (
{
name = bottom;
pos = (213,0);
},
{
name = top;
pos = (213,496);
}
);
layerId = m01;
shapes = (
{
closed = 1;
nodes = (
(397,0,l),
(397,93,l),
(154,93,l),
(394,405,l),
(394,496,l),
(29,496,l),
(29,403,l),
(265,403,l),
(26,92,l),
(26,0,l)
);
}
);
userData = {
assembly = "NPUSHB[ ]	/* 38 values pushed */
5 1 0 1 0 1 3 2 2 76 0 0 0 1 95 0 1 1 36 77 0 2 2 3 95 0 3 3 34 3 78 17 18 17 17 4 8 26
CALL[ ]	/* CallFunction */";
};
width = 426;
}
);
note = z;
unicode = 122;
},
{
glyphname = uniA78C;
layers = (
{
layerId = m01;
shapes = (
{
closed = 1;
nodes = (
(165,333,l),
(183,700,l),
(62,700,l),
(79,333,l)
);
}
);
userData = {
assembly = "NPUSHB[ ]	/* 16 values pushed */
0 1 1 0 95 0 0 0 33 1 78 17 16 2 8 24
CALL[ ]	/* CallFunction */";
};
width = 245;
}
);
note = uniA78C;
unicode = 42892;
},
{
glyphname = fi;
layers = (
{
anchors = (
{
name = caret_1;
pos = (273,0);
}
);
layerId = m01;
shapes = (
{
closed = 1;
nodes = (
(184,0,l),
(184,401,l),
(284,401,l),
(284,496,l),
(184,496,l),
(184,543,ls),
(184,575,o),
(214,603,o),
(248,603,qs),
(275,603,l),
(275,700,l),
(230,700,ls),
(152,700,o),
(71,625,o),
(71,543,qs),
(71,496,l),
(7,496,l),
(7,401,l),
(71,401,l),
(71,0,l)
);
},
{
closed = 1;
nodes = (
(485,0,l),
(485,496,l),
(372,496,l),
(372,0,l)
);
},
{
closed = 1;
nodes = (
(461,570,o),
(504,614,o),
(504,645,qs),
(504,676,o),
(460,719,o),
(429,719,qs),
(398,719,o),
(354,676,o),
(354,645,qs),
(354,614,o),
(398,570,o),
(429,570,qs)
);
}
);
userData = {
assembly = "MPPEM[ ]	/* MeasurePixelPerEm */
PUSHB[ ]	/* 1 value pushed */
9
LT[ ]	/* LessThan */
IF[ ]	/* If */
NPUSHB[ ]	/* 43 values pushed */
0 3 3 2 97 9 1 2 2 33 77 11 1 10 10 2 97 9 1 2 2 33 77 5 1 0 0 1 95 7 4 2 1 1 36 77 8 1 6 6 34 6 78
ELSE[ ]	/* Else */
MPPEM[ ]	/* MeasurePixelPerEm */
PUSHB[ ]	/* 1 value pushed */
33
LT[ ]	/* LessThan */
IF[ ]	/* If */
NPUSHB[ ]	/* 41 values pushed */
0 3 3 2 97 0 2 2 33 77 11 1 10 10 9 97 0 9 9 41 77 5 1 0 0 1 95 7 4 2 1 1 36 77 8 1 6 6 34 6 78
ELSE[ ]	/* Else */
NPUSHB[ ]	/* 41 values pushed */
0 3 3 2 97 0 2 2 33 77 11 1 10 10 9 97 0 9 9 39 77 5 1 0 0 1 95 7 4 2 1 1 36 77 8 1 6 6 34 6 78
EIF[ ]	/* EndIf */
EIF[ ]	/* EndIf */
NPUSHB[ ]	/* 20 values pushed */
24 24 24 35 24 34 30 28 17 17 17 17 19 33 35 17 16 12 8 31
CALL[ ]	/* CallFunction */";
};
width = 545;
}
);
note = fi;
unicode = 64257;
},
{
glyphname = fl;
kernRight = fl;
layers = (
{
anchors = (
{
name = caret_1;
pos = (268,0);
}
);
layerId = m01;
shapes = (
{
closed = 1;
nodes = (
(184,0,l),
(184,401,l),
(284,401,l),
(284,496,l),
(184,496,l),
(184,543,ls),
(184,575,o),
(214,603,o),
(248,603,qs),
(275,603,l),
(275,700,l),
(230,700,ls),
(152,700,o),
(71,625,o),
(71,543,qs),
(71,496,l),
(7,496,l),
(7,401,l),
(71,401,l),
(71,0,l)
);
},
{
closed = 1;
nodes = (
(483,0,l),
(483,700,l),
(369,700,l),
(369,0,l)
);
}
);
userData = {
assembly = "NPUSHB[ ]	/* 42 values pushed */
0 3 3 2 97 7 1 2 2 33 77 5 1 0 0 1 95 4 1 1 1 36 77 8 1 6 6 34 6 78 17 17 17 17 19 33 35 17 16 9 8 31
CALL[ ]	/* CallFunction */";
};
width = 536;
}
);
note = fl;
unicode = 64258;
},
{
glyphname = ordfeminine;
layers = (
{
layerId = m01;
shapes = (
{
closed = 1;
nodes = (
(234,347,o),
(273,410,q),
(284,382,o),
(333,354,o),
(368,354,qs),
(382,354,l),
(382,421,l),
(345,421,o),
(345,458,qs),
(345,562,ls),
(345,633,o),
(262,710,o),
(194,710,qs),
(134,710,o),
(50,646,o),
(41,590,q),
(120,590,l),
(126,615,o),
(165,643,o),
(192,643,qs),
(226,643,o),
(264,601,o),
(265,562,q),
(179,562,ls),
(114,562,o),
(32,508,o),
(32,451,qs),
(32,402,o),
(102,347,o),
(152,347,qs)
);
},
{
closed = 1;
nodes = (
(146,411,o),
(113,435,o),
(113,459,qs),
(113,485,o),
(154,509,o),
(184,509,qs),
(265,509,l),
(265,467,o),
(213,411,o),
(173,411,qs)
);
}
);
userData = {
assembly = "MPPEM[ ]	/* MeasurePixelPerEm */
PUSHB[ ]	/* 1 value pushed */
24
LT[ ]	/* LessThan */
IF[ ]	/* If */
PUSHB[ ]	/* 6 values pushed */
27 1 5 4 1 76
ELSE[ ]	/* Else */
PUSHB[ ]	/* 6 values pushed */
27 1 5 8 1 76
EIF[ ]	/* EndIf */
MPPEM[ ]	/* MeasurePixelPerEm */
PUSHB[ ]	/* 1 value pushed */
24
LT[ ]	/* LessThan */
IF[ ]	/* If */
NPUSHB[ ]	/* 41 values pushed */
0 2 1 0 1 2 0 128 0 0 0 7 4 0 7 103 0 1 1 3 97 0 3 3 59 77 10 8 2 4 4 5 97 9 6 2 5 5 58 5 78
ELSE[ ]	/* Else */
MPPEM[ ]	/* MeasurePixelPerEm */
PUSHB[ ]	/* 1 value pushed */
34
LT[ ]	/* LessThan */
IF[ ]	/* If */
NPUSHB[ ]	/* 52 values pushed */
0 2 1 0 1 2 0 128 0 0 0 7 4 0 7 103 0 1 1 3 97 0 3 3 59 77 0 4 4 5 97 9 6 2 5 5 58 77 10 1 8 8 5 97 9 6 2 5 5 58 5 78
ELSE[ ]	/* Else */
NPUSHB[ ]	/* 49 values pushed */
0 2 1 0 1 2 0 128 0 0 0 7 4 0 7 103 0 1 1 3 97 0 3 3 59 77 0 4 4 5 97 0 5 5 58 77 10 1 8 8 6 97 9 1 6 6 58 6 78
EIF[ ]	/* EndIf */
EIF[ ]	/* EndIf */
NPUSHB[ ]	/* 23 values pushed */
30 30 0 0 30 39 30 38 34 32 0 29 0 28 33 20 34 18 34 36 11 10 28
CALL[ ]	/* CallFunction */";
};
width = 405;
}
);
note = ordfeminine;
unicode = 170;
},
{
glyphname = ordmasculine;
layers = (
{
layerId = m01;
shapes = (
{
closed = 1;
nodes = (
(263,349,o),
(347,396,o),
(393,479,o),
(393,531,qs),
(393,586,o),
(345,668,o),
(263,712,o),
(212,712,qs),
(161,712,o),
(78,668,o),
(31,586,o),
(31,531,qs),
(31,476,o),
(78,393,o),
(160,349,o),
(210,349,qs)
);
},
{
closed = 1;
nodes = (
(167,419,o),
(114,481,o),
(114,531,qs),
(114,581,o),
(167,643,o),
(211,643,qs),
(256,643,o),
(310,582,o),
(310,531,qs),
(310,481,o),
(255,419,o),
(210,419,qs)
);
}
);
userData = {
assembly = "NPUSHB[ ]	/* 41 values pushed */
0 2 2 0 97 0 0 0 59 77 5 1 3 3 1 97 4 1 1 1 58 1 78 16 16 0 0 16 27 16 26 22 20 0 15 0 14 38 6 10 23
CALL[ ]	/* CallFunction */";
};
width = 424;
}
);
note = ordmasculine;
unicode = 186;
},
{
glyphname = uni042F;
layers = (
{
layerId = m01;
shapes = (
{
closed = 1;
nodes = (
(26,0,l),
(162,0,l),
(336,300,l),
(427,300,l),
(427,0,l),
(540,0,l),
(540,700,l),
(309,700,ls),
(198,700,o),
(71,596,o),
(71,500,qs),
(71,425,o),
(151,335,o),
(223,319,q)
);
},
{
closed = 1;
nodes = (
(243,396,o),
(187,449,o),
(187,500,qs),
(187,551,o),
(243,604,o),
(312,604,qs),
(427,604,l),
(427,396,l),
(312,396,ls)
);
}
);
userData = {
assembly = "NPUSHB[ ]	/* 52 values pushed */
13 1 2 5 1 76 3 1 1 2 1 134 0 0 0 4 5 0 4 103 6 1 5 2 2 5 87 6 1 5 5 2 95 0 2 5 2 79 14 14 14 22 14 21 35 17 17 17 36 7 6 27
CALL[ ]	/* CallFunction */";
};
width = 608;
}
);
note = uni042F;
unicode = (1071,1103);
},
{
glyphname = uni0394;
layers = (
{
layerId = m01;
shapes = (
{
closed = 1;
nodes = (
(680,0,l),
(680,87,l),
(399,700,l),
(306,700,l),
(25,87,l),
(25,0,l)
);
},
{
closed = 1;
nodes = (
(352,571,l),
(565,87,l),
(141,87,l)
);
}
);
userData = {
assembly = "NPUSHB[ ]	/* 12 values pushed */
7 1 2 0 1 76 3 0 2 2 1 75
MPPEM[ ]	/* MeasurePixelPerEm */
PUSHB[ ]	/* 1 value pushed */
42
LT[ ]	/* LessThan */
IF[ ]	/* If */
NPUSHB[ ]	/* 17 values pushed */
0 0 0 23 77 3 1 2 2 1 95 0 1 1 24 1 78
ELSE[ ]	/* Else */
NPUSHB[ ]	/* 17 values pushed */
0 0 2 0 133 3 1 2 2 1 95 0 1 1 24 1 78
EIF[ ]	/* EndIf */
NPUSHB[ ]	/* 11 values pushed */
6 6 6 8 6 8 18 17 4 7 24
CALL[ ]	/* CallFunction */";
};
width = 706;
}
);
note = uni0394;
unicode = 916;
},
{
glyphname = Pi;
layers = (
{
layerId = m01;
shapes = (
{
closed = 1;
nodes = (
(226,0,l),
(226,409,l),
(420,409,l),
(420,0,l),
(533,0,l),
(533,409,l),
(609,409,l),
(609,496,l),
(37,496,l),
(37,409,l),
(113,409,l),
(113,0,l)
);
}
);
userData = {
assembly = "NPUSHB[ ]	/* 26 values pushed */
0 1 4 2 2 0 3 1 0 103 5 1 3 3 24 3 78 17 17 17 17 17 16 6 7 28
CALL[ ]	/* CallFunction */";
};
width = 647;
}
);
note = Pi;
unicode = 928;
},
{
glyphname = uni03A9;
layers = (
{
layerId = m01;
shapes = (
{
closed = 1;
nodes = (
(324,0,l),
(324,91,l),
(247,119,o),
(155,257,o),
(155,351,qs),
(155,417,o),
(207,535,o),
(315,609,o),
(394,609,qs),
(461,609,o),
(570,549,o),
(634,432,o),
(634,351,qs),
(634,258,o),
(543,119,o),
(465,91,q),
(465,0,l),
(737,0,l),
(737,87,l),
(612,87,l),
(680,131,o),
(749,274,o),
(749,361,qs),
(749,464,o),
(656,623,o),
(494,712,o),
(394,712,qs),
(294,712,o),
(133,623,o),
(40,463,o),
(40,361,qs),
(40,274,o),
(109,131,o),
(176,87,q),
(51,87,l),
(51,0,l)
);
}
);
userData = {
assembly = "NPUSHB[ ]	/* 39 values pushed */
33 19 2 0 4 1 76 0 4 4 1 97 0 1 1 23 77 2 1 0 0 3 95 5 1 3 3 24 3 78 23 39 17 22 38 16 6 7 28
CALL[ ]	/* CallFunction */";
};
width = 788;
}
);
note = uni03A9;
unicode = 937;
},
{
glyphname = uni03BC;
layers = (
{
layerId = m01;
shapes = (
{
closed = 1;
nodes = (
(180,-220,l),
(180,9,l),
(212,-12,o),
(260,-12,qs),
(317,-12,o),
(405,40,o),
(430,85,q),
(439,0,l),
(539,0,l),
(539,496,l),
(425,496,l),
(425,240,ls),
(425,167,o),
(353,84,o),
(294,84,qs),
(180,84,o),
(180,224,qs),
(180,496,l),
(66,496,l),
(66,-220,l)
);
}
);
userData = {
assembly = "NPUSHB[ ]	/* 10 values pushed */
12 1 1 0 17 1 3 1 2 76
MPPEM[ ]	/* MeasurePixelPerEm */
PUSHB[ ]	/* 1 value pushed */
42
LT[ ]	/* LessThan */
IF[ ]	/* If */
NPUSHB[ ]	/* 27 values pushed */
2 1 0 1 0 133 0 3 3 24 77 0 1 1 4 97 0 4 4 24 77 0 5 5 25 5 78
ELSE[ ]	/* Else */
NPUSHB[ ]	/* 25 values pushed */
2 1 0 1 0 133 0 1 0 4 5 1 4 105 0 3 3 24 77 0 5 5 25 5 78
EIF[ ]	/* EndIf */
NPUSHB[ ]	/* 9 values pushed */
18 35 17 19 34 16 6 7 28
CALL[ ]	/* CallFunction */";
};
width = 606;
}
);
note = uni03BC;
unicode = 956;
},
{
glyphname = zero;
layers = (
{
layerId = m01;
shapes = (
{
closed = 1;
nodes = (
(431,-12,o),
(557,183,o),
(557,350,qs),
(557,517,o),
(431,712,o),
(294,712,qs),
(158,712,o),
(30,514,o),
(30,350,qs),
(30,186,o),
(158,-12,o),
(294,-12,qs)
);
},
{
closed = 1;
nodes = (
(219,89,o),
(146,226,o),
(146,350,qs),
(146,474,o),
(219,611,o),
(294,611,qs),
(369,611,o),
(442,474,o),
(442,350,qs),
(442,226,o),
(369,89,o),
(294,89,qs)
);
}
);
userData = {
assembly = "NPUSHB[ ]	/* 41 values pushed */
0 2 2 0 97 0 0 0 39 77 5 1 3 3 1 97 4 1 1 1 40 1 78 12 12 0 0 12 23 12 22 18 16 0 11 0 10 36 6 8 23
CALL[ ]	/* CallFunction */";
};
width = 587;
}
);
note = zero;
unicode = 48;
},
{
glyphname = one;
layers = (
{
layerId = m01;
shapes = (
{
closed = 1;
nodes = (
(556,0,l),
(556,96,l),
(387,96,l),
(387,700,l),
(328,700,l),
(87,612,l),
(87,517,l),
(279,581,l),
(279,96,l),
(82,96,l),
(82,0,l)
);
}
);
userData = {
assembly = "NPUSHB[ ]	/* 32 values pushed */
4 3 2 3 0 1 1 76 0 1 1 33 77 2 1 0 0 3 96 0 3 3 34 3 78 17 17 20 16 4 8 26
CALL[ ]	/* CallFunction */";
};
width = 587;
}
);
note = one;
unicode = 49;
},
{
glyphname = two;
layers = (
{
layerId = m01;
shapes = (
{
closed = 1;
nodes = (
(60,0,l),
(535,0,l),
(535,96,l),
(206,96,l),
(220,110,o),
(305,198,o),
(363,256,qs),
(420,314,o),
(475,376,o),
(516,457,o),
(516,502,qs),
(516,597,o),
(401,712,o),
(294,712,qs),
(190,712,o),
(64,592,o),
(62,485,q),
(172,485,l),
(172,542,o),
(235,616,o),
(292,616,qs),
(345,616,o),
(404,553,o),
(404,500,qs),
(404,462,o),
(346,384,o),
(279,314,qs),
(251,285,l),
(60,86,l)
);
}
);
userData = {
assembly = "NPUSHB[ ]	/* 43 values pushed */
28 1 4 3 1 76 0 1 0 3 0 1 3 128 0 0 0 2 97 0 2 2 39 77 0 3 3 4 95 0 4 4 34 4 78 17 25 34 18 38 5 8 27
CALL[ ]	/* CallFunction */";
};
width = 587;
}
);
note = two;
unicode = 50;
},
{
glyphname = three;
layers = (
{
layerId = m01;
shapes = (
{
closed = 1;
nodes = (
(369,-12,o),
(480,43,o),
(542,147,o),
(542,218,qs),
(542,278,o),
(489,372,o),
(392,427,o),
(328,428,q),
(520,607,l),
(520,700,l),
(69,700,l),
(69,604,l),
(380,604,l),
(158,398,l),
(222,323,l),
(258,344,o),
(297,344,qs),
(358,344,o),
(433,277,o),
(433,217,qs),
(433,155,o),
(359,85,o),
(296,85,qs),
(234,85,o),
(160,153,o),
(155,207,q),
(45,207,l),
(50,103,o),
(186,-12,o),
(296,-12,qs)
);
}
);
userData = {
assembly = "NPUSHB[ ]	/* 67 values pushed */
20 1 3 4 15 1 2 5 14 1 0 2 3 76 0 0 2 1 2 0 1 128 0 5 0 2 0 5 2 105 0 3 3 4 95 0 4 4 33 77 0 1 1 6 97 7 1 6 6 40 6 78 0 0 0 29 0 28 18 17 19 36 34 18 8 8 28
CALL[ ]	/* CallFunction */";
};
width = 587;
}
);
note = three;
unicode = 51;
},
{
glyphname = four;
layers = (
{
layerId = m01;
shapes = (
{
closed = 1;
nodes = (
(476,0,l),
(476,137,l),
(564,137,l),
(564,235,l),
(476,235,l),
(476,423,l),
(370,423,l),
(370,235,l),
(155,235,l),
(385,700,l),
(273,700,l),
(35,226,l),
(35,137,l),
(363,137,l),
(363,0,l)
);
}
);
userData = {
assembly = "NPUSHB[ ]	/* 45 values pushed */
2 1 0 2 1 76 0 3 1 2 1 3 2 128 4 1 2 5 1 0 6 2 0 104 0 1 1 33 77 0 6 6 34 6 78 17 17 17 17 17 18 16 7 8 29
CALL[ ]	/* CallFunction */";
};
width = 587;
}
);
note = four;
unicode = 52;
},
{
glyphname = five;
layers = (
{
layerId = m01;
shapes = (
{
closed = 1;
nodes = (
(373,-12,o),
(485,53,o),
(547,168,o),
(547,240,qs),
(547,306,o),
(520,361,qs),
(492,417,o),
(390,481,o),
(319,481,qs),
(271,481,o),
(191,449,o),
(168,422,q),
(203,601,l),
(498,601,l),
(498,700,l),
(117,700,l),
(57,305,l),
(166,305,l),
(182,342,o),
(254,388,o),
(302,388,qs),
(362,388,o),
(438,306,o),
(438,239,qs),
(438,172,o),
(362,85,o),
(300,85,qs),
(244,85,o),
(167,146,o),
(157,194,q),
(46,194,l),
(55,100,o),
(193,-12,o),
(299,-12,qs)
);
}
);
userData = {
assembly = "PUSHB[ ]	/* 6 values pushed */
21 1 2 6 1 76
MPPEM[ ]	/* MeasurePixelPerEm */
PUSHB[ ]	/* 1 value pushed */
33
LT[ ]	/* LessThan */
IF[ ]	/* If */
NPUSHB[ ]	/* 47 values pushed */
0 3 2 0 2 3 0 128 0 0 1 2 0 1 126 0 5 5 4 95 0 4 4 33 77 0 2 2 6 97 0 6 6 36 77 0 1 1 7 97 8 1 7 7 40 7 78
ELSE[ ]	/* Else */
NPUSHB[ ]	/* 45 values pushed */
0 3 2 0 2 3 0 128 0 0 1 2 0 1 126 0 6 0 2 3 6 2 105 0 5 5 4 95 0 4 4 33 77 0 1 1 7 97 8 1 7 7 40 7 78
EIF[ ]	/* EndIf */
NPUSHB[ ]	/* 16 values pushed */
0 0 0 33 0 32 35 17 17 18 36 34 18 9 8 29
CALL[ ]	/* CallFunction */";
};
width = 587;
}
);
note = five;
unicode = 53;
},
{
glyphname = six;
layers = (
{
layerId = m01;
shapes = (
{
closed = 1;
nodes = (
(383,-12,o),
(435,21,qs),
(487,55,o),
(545,162,o),
(545,224,qs),
(545,291,o),
(514,344,qs),
(484,395,o),
(387,451,o),
(331,451,qs),
(274,451,o),
(181,396,o),
(158,352,q),
(161,485,o),
(241,617,o),
(309,617,qs),
(356,617,o),
(415,563,o),
(425,513,q),
(529,513,l),
(523,568,o),
(497,611,qs),
(470,658,o),
(374,712,o),
(310,712,qs),
(227,712,o),
(169,663,qs),
(110,615,o),
(49,442,o),
(49,325,qs),
(49,186,o),
(107,94,qs),
(139,44,o),
(242,-12,o),
(313,-12,qs)
);
},
{
closed = 1;
nodes = (
(250,86,o),
(177,162,o),
(177,221,qs),
(177,276,o),
(251,354,o),
(306,354,qs),
(362,354,o),
(434,280,o),
(434,220,qs),
(434,162,o),
(363,86,o),
(307,86,qs)
);
}
);
userData = {
assembly = "NPUSHB[ ]	/* 66 values pushed */
21 1 6 5 1 76 0 1 2 3 2 1 3 128 0 3 0 5 6 3 5 105 0 2 2 0 97 0 0 0 39 77 8 1 6 6 4 97 7 1 4 4 40 4 78 35 35 0 0 35 46 35 45 41 39 0 34 0 33 36 34 20 40 9 8 26
CALL[ ]	/* CallFunction */";
};
width = 587;
}
);
note = six;
unicode = 54;
},
{
glyphname = seven;
layers = (
{
layerId = m01;
shapes = (
{
closed = 1;
nodes = (
(262,0,l),
(547,618,l),
(547,700,l),
(42,700,l),
(42,603,l),
(428,603,l),
(144,0,l)
);
}
);
userData = {
assembly = "NPUSHB[ ]	/* 28 values pushed */
4 1 0 1 1 76 0 0 0 1 95 0 1 1 33 77 0 2 2 34 2 78 18 17 16 3 8 25
CALL[ ]	/* CallFunction */";
};
width = 587;
}
);
note = seven;
unicode = 55;
},
{
glyphname = eight;
layers = (
{
layerId = m01;
shapes = (
{
closed = 1;
nodes = (
(359,-12,o),
(469,37,o),
(535,130,o),
(535,193,qs),
(535,256,o),
(471,355,o),
(413,375,q),
(461,394,o),
(518,476,o),
(518,525,qs),
(518,582,o),
(459,667,o),
(357,712,o),
(294,712,qs),
(232,712,o),
(130,668,o),
(70,583,o),
(70,525,qs),
(70,476,o),
(125,396,o),
(174,375,q),
(116,354,o),
(52,256,o),
(52,193,qs),
(52,132,o),
(117,39,o),
(227,-12,o),
(294,-12,qs)
);
},
{
closed = 1;
nodes = (
(233,84,o),
(164,148,o),
(164,202,qs),
(164,260,o),
(236,324,o),
(295,324,qs),
(354,324,o),
(424,260,o),
(424,202,qs),
(424,147,o),
(354,84,o),
(295,84,qs)
);
},
{
closed = 1;
nodes = (
(245,410,o),
(183,467,o),
(183,514,qs),
(183,564,o),
(243,619,o),
(294,619,qs),
(345,619,o),
(406,563,o),
(406,514,qs),
(406,467,o),
(343,410,o),
(294,410,qs)
);
}
);
userData = {
assembly = "NPUSHB[ ]	/* 65 values pushed */
20 6 2 2 5 1 76 8 1 5 0 2 3 5 2 105 0 4 4 0 97 0 0 0 39 77 7 1 3 3 1 97 6 1 1 1 40 1 78 40 40 28 28 0 0 40 51 40 50 46 44 28 39 28 38 34 32 0 27 0 26 44 9 8 23
CALL[ ]	/* CallFunction */";
};
width = 587;
}
);
note = eight;
unicode = 56;
},
{
glyphname = nine;
layers = (
{
layerId = m01;
shapes = (
{
closed = 1;
nodes = (
(363,-12,o),
(419,37,qs),
(478,85,o),
(540,258,o),
(540,375,qs),
(540,439,o),
(511,559,o),
(482,606,qs),
(450,656,o),
(347,712,o),
(275,712,qs),
(206,712,o),
(153,679,qs),
(101,645,o),
(44,538,o),
(44,476,qs),
(44,407,o),
(74,356,qs),
(104,305,o),
(202,249,o),
(258,249,qs),
(315,249,o),
(407,304,o),
(430,348,q),
(428,216,o),
(347,83,o),
(279,83,qs),
(232,83,o),
(173,137,o),
(164,187,q),
(60,187,l),
(64,136,o),
(91,89,qs),
(119,42,o),
(214,-12,o),
(278,-12,qs)
);
},
{
closed = 1;
nodes = (
(227,346,o),
(154,420,o),
(154,480,qs),
(154,538,o),
(225,614,o),
(282,614,qs),
(338,614,o),
(411,538,o),
(411,479,qs),
(411,443,o),
(378,382,o),
(319,346,o),
(283,346,qs)
);
}
);
userData = {
assembly = "NPUSHB[ ]	/* 66 values pushed */
11 1 6 5 1 76 0 0 2 1 2 0 1 128 8 1 6 0 2 0 6 2 105 0 5 5 3 97 0 3 3 39 77 0 1 1 4 97 7 1 4 4 40 4 78 36 36 0 0 36 48 36 47 43 41 0 35 0 34 40 36 34 20 9 8 26
CALL[ ]	/* CallFunction */";
};
width = 587;
}
);
note = nine;
unicode = 57;
},
{
glyphname = uni24EA;
layers = (
{
layerId = m01;
shapes = (
{
closed = 1;
nodes = (
(487,-12,o),
(654,85,o),
(751,252,o),
(751,350,qs),
(751,448,o),
(654,615,o),
(487,712,o),
(389,712,qs),
(291,712,o),
(124,615,o),
(27,448,o),
(27,350,qs),
(27,252,o),
(124,85,o),
(291,-12,o),
(389,-12,qs)
);
},
{
closed = 1;
nodes = (
(307,53,o),
(171,131,o),
(93,267,o),
(93,350,qs),
(93,433,o),
(171,569,o),
(307,647,o),
(389,647,qs),
(472,647,o),
(608,569,o),
(686,433,o),
(686,350,qs),
(686,267,o),
(608,131,o),
(472,53,o),
(389,53,qs)
);
},
{
closed = 1;
nodes = (
(459,165,o),
(492,215,qs),
(524,265,o),
(524,350,qs),
(524,435,o),
(492,485,qs),
(459,535,o),
(390,535,qs),
(320,535,o),
(287,484,qs),
(255,436,o),
(255,350,qs),
(255,264,o),
(287,216,qs),
(320,165,o),
(390,165,qs)
);
},
{
closed = 1;
nodes = (
(360,232,o),
(345,263,qs),
(331,296,o),
(331,350,qs),
(331,404,o),
(345,437,qs),
(360,468,o),
(390,468,qs),
(419,468,o),
(434,437,qs),
(448,404,o),
(448,350,qs),
(448,296,o),
(434,263,qs),
(419,232,o),
(390,232,qs)
);
}
);
userData = {
assembly = "NPUSHB[ ]	/* 75 values pushed */
0 4 0 6 7 4 6 105 11 1 7 10 1 5 3 7 5 105 0 2 2 0 97 0 0 0 39 77 9 1 3 3 1 97 8 1 1 1 40 1 78 48 48 32 32 16 16 0 0 48 63 48 62 56 54 32 47 32 46 40 38 16 31 16 30 24 22 0 15 0 14 38 12 8 23
CALL[ ]	/* CallFunction */";
};
width = 778;
}
);
note = uni24EA;
unicode = 9450;
},
{
glyphname = uni2780;
layers = (
{
layerId = m01;
shapes = (
{
closed = 1;
nodes = (
(487,-12,o),
(654,85,o),
(751,252,o),
(751,350,qs),
(751,448,o),
(654,615,o),
(487,712,o),
(389,712,qs),
(291,712,o),
(124,615,o),
(27,448,o),
(27,350,qs),
(27,252,o),
(124,85,o),
(291,-12,o),
(389,-12,qs)
);
},
{
closed = 1;
nodes = (
(307,53,o),
(171,131,o),
(93,267,o),
(93,350,qs),
(93,433,o),
(171,569,o),
(307,647,o),
(389,647,qs),
(472,647,o),
(608,569,o),
(686,433,o),
(686,350,qs),
(686,267,o),
(608,131,o),
(472,53,o),
(389,53,qs)
);
},
{
closed = 1;
nodes = (
(518,176,l),
(518,241,l),
(437,241,l),
(437,533,l),
(398,533,l),
(280,491,l),
(280,432,l),
(367,449,l),
(367,241,l),
(277,241,l),
(277,176,l)
);
}
);
userData = {
assembly = "NPUSHB[ ]	/* 74 values pushed */
36 35 34 3 4 5 1 76 0 5 2 4 2 5 4 128 6 1 4 0 7 3 4 7 104 0 2 2 0 97 0 0 0 39 77 9 1 3 3 1 97 8 1 1 1 40 1 78 16 16 0 0 42 41 40 39 38 37 33 32 16 31 16 30 24 22 0 15 0 14 38 10 8 23
CALL[ ]	/* CallFunction */";
};
width = 778;
}
);
note = uni2780;
unicode = 10112;
},
{
glyphname = uni2781;
layers = (
{
layerId = m01;
shapes = (
{
closed = 1;
nodes = (
(487,-12,o),
(654,85,o),
(751,252,o),
(751,350,qs),
(751,448,o),
(654,615,o),
(487,712,o),
(389,712,qs),
(291,712,o),
(124,615,o),
(27,448,o),
(27,350,qs),
(27,252,o),
(124,85,o),
(291,-12,o),
(389,-12,qs)
);
},
{
closed = 1;
nodes = (
(306,53,o),
(170,132,o),
(92,268,o),
(92,350,qs),
(92,432,o),
(170,568,o),
(306,647,o),
(389,647,qs),
(472,647,o),
(608,569,o),
(686,433,o),
(686,350,qs),
(686,267,o),
(608,131,o),
(472,53,o),
(389,53,qs)
);
},
{
closed = 1;
nodes = (
(517,176,l),
(517,241,l),
(369,241,l),
(424,296,ls),
(465,336,o),
(509,396,o),
(509,432,qs),
(509,481,o),
(445,540,o),
(391,540,qs),
(335,540,o),
(266,479,o),
(265,419,q),
(338,419,l),
(338,443,o),
(364,476,o),
(389,476,qs),
(411,476,o),
(436,451,o),
(436,429,qs),
(436,409,o),
(402,368,o),
(370,336,qs),
(265,228,l),
(265,176,l)
);
}
);
userData = {
assembly = "PUSHB[ ]	/* 6 values pushed */
32 1 8 7 1 76
MPPEM[ ]	/* MeasurePixelPerEm */
PUSHB[ ]	/* 1 value pushed */
23
LT[ ]	/* LessThan */
IF[ ]	/* If */
NPUSHB[ ]	/* 46 values pushed */
0 5 4 7 4 5 114 0 6 0 4 5 6 4 105 0 7 0 8 3 7 8 103 0 2 2 0 97 0 0 0 39 77 10 1 3 3 1 97 9 1 1 1 40 1 78
ELSE[ ]	/* Else */
NPUSHB[ ]	/* 47 values pushed */
0 5 4 7 4 5 7 128 0 6 0 4 5 6 4 105 0 7 0 8 3 7 8 103 0 2 2 0 97 0 0 0 39 77 10 1 3 3 1 97 9 1 1 1 40 1 78
EIF[ ]	/* EndIf */
NPUSHB[ ]	/* 28 values pushed */
16 16 0 0 56 55 54 53 47 45 43 42 40 38 16 31 16 30 24 22 0 15 0 14 38 11 8 23
CALL[ ]	/* CallFunction */";
};
width = 778;
}
);
note = uni2781;
unicode = 10113;
},
{
glyphname = uni2782;
layers = (
{
layerId = m01;
shapes = (
{
closed = 1;
nodes = (
(487,-12,o),
(654,85,o),
(751,252,o),
(751,350,qs),
(751,448,o),
(654,615,o),
(487,712,o),
(389,712,qs),
(291,712,o),
(124,615,o),
(27,448,o),
(27,350,qs),
(27,252,o),
(124,85,o),
(291,-12,o),
(389,-12,qs)
);
},
{
closed = 1;
nodes = (
(307,53,o),
(171,131,o),
(92,267,o),
(92,350,qs),
(92,433,o),
(171,569,o),
(307,647,o),
(389,647,qs),
(472,647,o),
(608,569,o),
(686,433,o),
(686,350,qs),
(686,267,o),
(608,131,o),
(472,53,o),
(389,53,qs)
);
},
{
closed = 1;
nodes = (
(448,158,o),
(519,224,o),
(519,279,qs),
(519,322,o),
(474,382,o),
(426,389,q),
(508,459,l),
(508,522,l),
(269,522,l),
(269,458,l),
(414,458,l),
(312,369,l),
(353,322,l),
(370,332,o),
(390,332,qs),
(414,332,o),
(447,304,o),
(447,278,qs),
(447,251,o),
(417,223,o),
(390,223,qs),
(365,223,o),
(332,252,o),
(332,280,q),
(260,280,l),
(259,221,o),
(331,158,o),
(390,158,qs)
);
}
);
userData = {
assembly = "NPUSHB[ ]	/* 15 values pushed */
52 1 7 8 53 47 2 6 7 46 1 4 6 3 76
MPPEM[ ]	/* MeasurePixelPerEm */
PUSHB[ ]	/* 1 value pushed */
10
LT[ ]	/* LessThan */
IF[ ]	/* If */
NPUSHB[ ]	/* 54 values pushed */
0 6 7 4 7 6 114 0 4 5 7 4 5 126 0 8 0 7 6 8 7 103 0 5 12 1 9 3 5 9 105 0 2 2 0 97 0 0 0 39 77 11 1 3 3 1 98 10 1 1 1 40 1 78
ELSE[ ]	/* Else */
NPUSHB[ ]	/* 55 values pushed */
0 6 7 4 7 6 4 128 0 4 5 7 4 5 126 0 8 0 7 6 8 7 103 0 5 12 1 9 3 5 9 105 0 2 2 0 97 0 0 0 39 77 11 1 3 3 1 98 10 1 1 1 40 1 78
EIF[ ]	/* EndIf */
NPUSHB[ ]	/* 34 values pushed */
32 32 16 16 0 0 32 59 32 58 51 50 49 48 45 43 39 37 35 34 16 31 16 30 24 22 0 15 0 14 38 13 8 23
CALL[ ]	/* CallFunction */";
};
width = 778;
}
);
note = uni2782;
unicode = 10114;
},
{
glyphname = uni2783;
layers = (
{
layerId = m01;
shapes = (
{
closed = 1;
nodes = (
(487,-12,o),
(654,85,o),
(751,252,o),
(751,350,qs),
(751,448,o),
(654,615,o),
(487,712,o),
(389,712,qs),
(291,712,o),
(124,615,o),
(27,448,o),
(27,350,qs),
(27,252,o),
(124,85,o),
(291,-12,o),
(389,-12,qs)
);
},
{
closed = 1;
nodes = (
(478,176,l),
(478,238,l),
(515,238,l),
(515,303,l),
(478,303,l),
(478,392,l),
(408,392,l),
(408,303,l),
(318,303,l),
(431,533,l),
(357,533,l),
(238,299,l),
(238,238,l),
(402,238,l),
(402,176,l)
);
},
{
closed = 1;
nodes = (
(307,53,o),
(171,131,o),
(92,267,o),
(92,350,qs),
(92,433,o),
(171,569,o),
(307,647,o),
(389,647,qs),
(472,647,o),
(608,569,o),
(686,433,o),
(686,350,qs),
(686,267,o),
(608,131,o),
(472,53,o),
(389,53,qs)
);
}
);
userData = {
assembly = "PUSHB[ ]	/* 6 values pushed */
18 1 2 4 1 76
MPPEM[ ]	/* MeasurePixelPerEm */
PUSHB[ ]	/* 1 value pushed */
15
LT[ ]	/* LessThan */
IF[ ]	/* If */
NPUSHB[ ]	/* 54 values pushed */
0 3 9 5 9 3 5 128 0 5 4 4 5 112 0 8 2 10 2 8 114 6 1 4 7 1 2 8 4 2 104 0 9 9 0 97 0 0 0 39 77 12 1 10 10 1 97 11 1 1 1 40 1 78
ELSE[ ]	/* Else */
MPPEM[ ]	/* MeasurePixelPerEm */
PUSHB[ ]	/* 1 value pushed */
21
LT[ ]	/* LessThan */
IF[ ]	/* If */
NPUSHB[ ]	/* 55 values pushed */
0 3 9 5 9 3 5 128 0 5 4 9 5 4 126 0 8 2 10 2 8 114 6 1 4 7 1 2 8 4 2 104 0 9 9 0 97 0 0 0 39 77 12 1 10 10 1 97 11 1 1 1 40 1 78
ELSE[ ]	/* Else */
NPUSHB[ ]	/* 56 values pushed */
0 3 9 5 9 3 5 128 0 5 4 9 5 4 126 0 8 2 10 2 8 10 128 6 1 4 7 1 2 8 4 2 104 0 9 9 0 97 0 0 0 39 77 12 1 10 10 1 97 11 1 1 1 40 1 78
EIF[ ]	/* EndIf */
EIF[ ]	/* EndIf */
NPUSHB[ ]	/* 32 values pushed */
31 31 0 0 31 46 31 45 39 37 30 29 28 27 26 25 24 23 22 21 20 19 17 16 0 15 0 14 38 13 8 23
CALL[ ]	/* CallFunction */";
};
width = 778;
}
);
note = uni2783;
unicode = 10115;
},
{
glyphname = uni2784;
layers = (
{
layerId = m01;
shapes = (
{
closed = 1;
nodes = (
(487,-12,o),
(654,85,o),
(751,252,o),
(751,350,qs),
(751,448,o),
(654,615,o),
(487,712,o),
(389,712,qs),
(291,712,o),
(124,615,o),
(27,448,o),
(27,350,qs),
(27,252,o),
(124,85,o),
(291,-12,o),
(389,-12,qs)
);
},
{
closed = 1;
nodes = (
(307,53,o),
(171,131,o),
(92,267,o),
(92,350,qs),
(92,433,o),
(171,569,o),
(307,647,o),
(389,647,qs),
(472,647,o),
(608,569,o),
(686,433,o),
(686,350,qs),
(686,267,o),
(608,131,o),
(472,53,o),
(389,53,qs)
);
},
{
closed = 1;
nodes = (
(449,160,o),
(521,233,o),
(521,291,qs),
(521,342,o),
(462,413,o),
(406,413,qs),
(386,413,o),
(348,400,o),
(336,387,q),
(351,458,l),
(498,458,l),
(498,524,l),
(294,524,l),
(264,316,l),
(337,316,l),
(344,332,o),
(375,352,o),
(393,352,qs),
(419,352,o),
(449,317,o),
(449,290,qs),
(449,263,o),
(418,225,o),
(392,225,qs),
(371,225,o),
(338,248,o),
(333,269,q),
(260,269,l),
(262,219,o),
(336,160,o),
(392,160,qs)
);
}
);
userData = {
assembly = "PUSHB[ ]	/* 6 values pushed */
53 1 6 10 1 76
MPPEM[ ]	/* MeasurePixelPerEm */
PUSHB[ ]	/* 1 value pushed */
9
LT[ ]	/* LessThan */
IF[ ]	/* If */
NPUSHB[ ]	/* 62 values pushed */
0 7 6 4 9 7 114 0 4 5 6 4 5 126 0 8 0 9 10 8 9 103 0 10 0 6 7 10 6 105 0 5 14 1 11 3 5 11 105 0 2 2 0 97 0 0 0 39 77 13 1 3 3 1 98 12 1 1 1 40 1 78
ELSE[ ]	/* Else */
NPUSHB[ ]	/* 63 values pushed */
0 7 6 4 6 7 4 128 0 4 5 6 4 5 126 0 8 0 9 10 8 9 103 0 10 0 6 7 10 6 105 0 5 14 1 11 3 5 11 105 0 2 2 0 97 0 0 0 39 77 13 1 3 3 1 98 12 1 1 1 40 1 78
EIF[ ]	/* EndIf */
NPUSHB[ ]	/* 38 values pushed */
32 32 16 16 0 0 32 62 32 61 57 55 52 51 50 49 48 47 45 43 39 37 35 34 16 31 16 30 24 22 0 15 0 14 38 15 8 23
CALL[ ]	/* CallFunction */";
};
width = 778;
}
);
note = uni2784;
unicode = 10116;
},
{
glyphname = uni2785;
layers = (
{
layerId = m01;
shapes = (
{
closed = 1;
nodes = (
(487,-12,o),
(654,85,o),
(751,252,o),
(751,350,qs),
(751,448,o),
(654,615,o),
(487,712,o),
(389,712,qs),
(291,712,o),
(124,615,o),
(27,448,o),
(27,350,qs),
(27,252,o),
(124,85,o),
(291,-12,o),
(389,-12,qs)
);
},
{
closed = 1;
nodes = (
(307,53,o),
(171,131,o),
(93,267,o),
(93,350,qs),
(93,433,o),
(171,569,o),
(307,647,o),
(389,647,qs),
(472,647,o),
(608,569,o),
(686,433,o),
(686,350,qs),
(686,267,o),
(608,131,o),
(472,53,o),
(389,53,qs)
);
},
{
closed = 1;
nodes = (
(367,229,o),
(337,261,o),
(337,286,qs),
(337,309,o),
(368,340,o),
(390,340,qs),
(413,340,o),
(445,310,o),
(445,284,qs),
(445,258,o),
(412,229,o),
(392,229,qs)
);
},
{
closed = 1;
nodes = (
(450,165,o),
(516,237,o),
(516,287,qs),
(516,334,o),
(457,403,o),
(411,403,qs),
(384,403,o),
(340,376,o),
(330,357,q),
(332,474,o),
(393,474,qs),
(432,474,o),
(442,429,q),
(510,429,l),
(508,473,o),
(444,535,o),
(393,535,qs),
(323,535,o),
(255,421,o),
(255,339,qs),
(255,264,o),
(324,165,o),
(396,165,qs)
);
}
);
userData = {
assembly = "NPUSHB[ ]	/* 103 values pushed */
57 1 4 9 1 76 0 7 8 9 8 7 9 128 0 6 0 8 7 6 8 105 0 9 0 4 5 9 4 105 13 1 5 14 1 10 3 5 10 105 0 2 2 0 97 0 0 0 39 77 12 1 3 3 1 97 11 1 1 1 40 1 78 44 44 32 32 16 16 0 0 44 66 44 65 61 59 56 54 53 52 50 48 32 43 32 42 38 36 16 31 16 30 24 22 0 15 0 14 38 15 8 23
CALL[ ]	/* CallFunction */";
};
width = 778;
}
);
note = uni2785;
unicode = 10117;
},
{
glyphname = uni2786;
layers = (
{
layerId = m01;
shapes = (
{
closed = 1;
nodes = (
(487,-12,o),
(654,85,o),
(751,252,o),
(751,350,qs),
(751,448,o),
(654,615,o),
(487,712,o),
(389,712,qs),
(291,712,o),
(124,615,o),
(27,448,o),
(27,350,qs),
(27,252,o),
(124,85,o),
(291,-12,o),
(389,-12,qs)
);
},
{
closed = 1;
nodes = (
(385,167,l),
(525,471,l),
(525,524,l),
(258,524,l),
(258,460,l),
(445,460,l),
(307,167,l)
);
},
{
closed = 1;
nodes = (
(307,53,o),
(171,131,o),
(93,267,o),
(93,350,qs),
(93,433,o),
(171,569,o),
(307,647,o),
(389,647,qs),
(472,647,o),
(608,569,o),
(686,433,o),
(686,350,qs),
(686,267,o),
(608,131,o),
(472,53,o),
(389,53,qs)
);
}
);
userData = {
assembly = "NPUSHB[ ]	/* 69 values pushed */
20 1 2 3 1 76 0 4 2 6 2 4 6 128 0 3 0 2 4 3 2 103 0 5 5 0 97 0 0 0 39 77 8 1 6 6 1 97 7 1 1 1 40 1 78 23 23 0 0 23 38 23 37 31 29 22 21 19 18 17 16 0 15 0 14 38 9 8 23
CALL[ ]	/* CallFunction */";
};
width = 778;
}
);
note = uni2786;
unicode = 10118;
},
{
glyphname = uni2787;
layers = (
{
layerId = m01;
shapes = (
{
closed = 1;
nodes = (
(487,-12,o),
(654,85,o),
(751,252,o),
(751,350,qs),
(751,448,o),
(654,615,o),
(487,712,o),
(389,712,qs),
(291,712,o),
(124,615,o),
(27,448,o),
(27,350,qs),
(27,252,o),
(124,85,o),
(291,-12,o),
(389,-12,qs)
);
},
{
closed = 1;
nodes = (
(336,227,o),
(336,279,qs),
(336,305,o),
(366,331,o),
(391,331,qs),
(415,331,o),
(443,304,o),
(443,279,qs),
(443,254,o),
(415,227,o),
(391,227,qs)
);
},
{
closed = 1;
nodes = (
(307,53,o),
(171,131,o),
(93,267,o),
(93,350,qs),
(93,433,o),
(171,569,o),
(307,647,o),
(389,647,qs),
(472,647,o),
(608,568,o),
(686,432,o),
(686,350,qs),
(686,268,o),
(608,132,o),
(472,53,o),
(389,53,qs)
);
},
{
closed = 1;
nodes = (
(443,165,o),
(517,221,o),
(517,272,qs),
(517,304,o),
(489,352,o),
(461,364,q),
(482,374,o),
(508,414,o),
(508,439,qs),
(508,485,o),
(439,535,o),
(390,535,qs),
(337,535,o),
(270,484,o),
(270,439,qs),
(270,391,o),
(318,364,q),
(290,352,o),
(262,303,o),
(262,272,qs),
(262,223,o),
(338,165,o),
(390,165,qs)
);
},
{
closed = 1;
nodes = (
(369,385,o),
(345,409,o),
(345,429,qs),
(345,475,o),
(390,475,qs),
(411,475,o),
(434,451,o),
(434,429,qs),
(434,408,o),
(411,385,o),
(390,385,qs)
);
}
);
userData = {
assembly = "NPUSHB[ ]	/* 99 values pushed */
59 48 2 2 9 1 76 0 6 0 8 9 6 8 105 14 1 9 0 2 3 9 2 105 11 1 3 13 1 7 5 3 7 105 0 4 4 0 97 0 0 0 39 77 12 1 5 5 1 97 10 1 1 1 40 1 78 66 66 43 43 27 27 16 16 0 0 66 76 66 75 72 70 43 65 43 64 54 52 27 42 27 41 35 33 16 26 16 25 22 20 0 15 0 14 38 15 8 23
CALL[ ]	/* CallFunction */";
};
width = 778;
}
);
note = uni2787;
unicode = 10119;
},
{
glyphname = uni2788;
layers = (
{
layerId = m01;
shapes = (
{
closed = 1;
nodes = (
(487,-12,o),
(654,85,o),
(751,252,o),
(751,350,qs),
(751,448,o),
(654,615,o),
(487,712,o),
(389,712,qs),
(291,712,o),
(124,615,o),
(27,448,o),
(27,350,qs),
(27,252,o),
(124,85,o),
(291,-12,o),
(389,-12,qs)
);
},
{
closed = 1;
nodes = (
(307,53,o),
(171,131,o),
(92,267,o),
(92,350,qs),
(92,433,o),
(171,569,o),
(307,647,o),
(389,647,qs),
(472,647,o),
(608,569,o),
(686,433,o),
(686,350,qs),
(686,267,o),
(608,131,o),
(472,53,o),
(389,53,qs)
);
},
{
closed = 1;
nodes = (
(453,165,o),
(522,276,o),
(522,361,qs),
(522,434,o),
(455,535,o),
(382,535,qs),
(329,535,o),
(262,463,o),
(262,413,qs),
(262,376,o),
(294,324,o),
(342,297,o),
(367,297,qs),
(394,297,o),
(436,323,o),
(448,343,q),
(446,226,o),
(385,226,qs),
(365,226,o),
(341,248,o),
(336,271,q),
(268,271,l),
(270,228,o),
(332,165,o),
(384,165,qs)
);
},
{
closed = 1;
nodes = (
(363,360,o),
(333,392,o),
(333,416,qs),
(333,440,o),
(364,471,o),
(386,471,qs),
(410,471,o),
(441,439,o),
(441,414,qs),
(441,391,o),
(410,360,o),
(387,360,qs)
);
}
);
userData = {
assembly = "PUSHB[ ]	/* 6 values pushed */
40 1 6 10 1 76
MPPEM[ ]	/* MeasurePixelPerEm */
PUSHB[ ]	/* 1 value pushed */
29
LT[ ]	/* LessThan */
IF[ ]	/* If */
NPUSHB[ ]	/* 56 values pushed */
0 4 6 5 5 4 114 0 7 0 9 10 7 9 105 14 1 10 0 6 4 10 6 105 0 5 13 1 8 3 5 8 106 0 2 2 0 97 0 0 0 39 77 12 1 3 3 1 97 11 1 1 1 40 1 78
ELSE[ ]	/* Else */
NPUSHB[ ]	/* 57 values pushed */
0 4 6 5 6 4 5 128 0 7 0 9 10 7 9 105 14 1 10 0 6 4 10 6 105 0 5 13 1 8 3 5 8 106 0 2 2 0 97 0 0 0 39 77 12 1 3 3 1 97 11 1 1 1 40 1 78
EIF[ ]	/* EndIf */
NPUSHB[ ]	/* 40 values pushed */
57 57 32 32 16 16 0 0 57 68 57 67 63 61 32 56 32 55 51 49 44 42 39 37 35 34 16 31 16 30 24 22 0 15 0 14 38 15 8 23
CALL[ ]	/* CallFunction */";
};
width = 778;
}
);
note = uni2788;
unicode = 10120;
},
{
glyphname = uni278A;
layers = (
{
layerId = m01;
shapes = (
{
closed = 1;
nodes = (
(487,-12,o),
(654,85,o),
(751,252,o),
(751,350,qs),
(751,448,o),
(654,615,o),
(487,712,o),
(389,712,qs),
(291,712,o),
(124,615,o),
(27,448,o),
(27,350,qs),
(27,252,o),
(124,85,o),
(291,-12,o),
(389,-12,qs)
);
},
{
closed = 1;
nodes = (
(276,241,l),
(366,241,l),
(366,449,l),
(280,432,l),
(280,491,l),
(398,533,l),
(437,533,l),
(437,241,l),
(518,241,l),
(518,176,l),
(276,176,l)
);
}
);
userData = {
assembly = "NPUSHB[ ]	/* 62 values pushed */
23 22 21 3 2 3 1 76 4 1 2 3 5 3 2 5 128 0 3 3 0 97 0 0 0 39 77 7 1 5 5 1 97 6 1 1 1 40 1 78 16 16 0 0 16 26 16 26 25 24 20 19 18 17 0 15 0 14 38 8 8 23
CALL[ ]	/* CallFunction */";
};
width = 778;
}
);
note = uni278A;
unicode = 10122;
},
{
glyphname = uni278B;
layers = (
{
layerId = m01;
shapes = (
{
closed = 1;
nodes = (
(487,-12,o),
(654,85,o),
(751,252,o),
(751,350,qs),
(751,448,o),
(654,615,o),
(487,712,o),
(389,712,qs),
(291,712,o),
(124,615,o),
(27,448,o),
(27,350,qs),
(27,252,o),
(124,85,o),
(291,-12,o),
(389,-12,qs)
);
},
{
closed = 1;
nodes = (
(265,228,l),
(370,336,ls),
(402,368,o),
(436,409,o),
(436,429,qs),
(436,451,o),
(411,476,o),
(389,476,qs),
(364,476,o),
(338,443,o),
(338,419,q),
(265,419,l),
(266,479,o),
(335,540,o),
(391,540,qs),
(445,540,o),
(509,481,o),
(509,432,qs),
(509,396,o),
(465,336,o),
(424,296,qs),
(369,241,l),
(517,241,l),
(517,176,l),
(265,176,l)
);
}
);
userData = {
assembly = "PUSHB[ ]	/* 6 values pushed */
39 1 6 2 1 76
MPPEM[ ]	/* MeasurePixelPerEm */
PUSHB[ ]	/* 1 value pushed */
25
LT[ ]	/* LessThan */
IF[ ]	/* If */
NPUSHB[ ]	/* 41 values pushed */
0 4 5 2 5 4 2 128 0 3 3 0 97 0 0 0 39 77 0 2 2 5 97 0 5 5 36 77 8 1 6 6 1 98 7 1 1 1 40 1 78
ELSE[ ]	/* Else */
NPUSHB[ ]	/* 39 values pushed */
0 4 5 2 5 4 2 128 0 5 0 2 6 5 2 103 0 3 3 0 97 0 0 0 39 77 8 1 6 6 1 98 7 1 1 1 40 1 78
EIF[ ]	/* EndIf */
NPUSHB[ ]	/* 24 values pushed */
16 16 0 0 16 40 16 40 33 31 29 28 26 24 18 17 0 15 0 14 38 9 8 23
CALL[ ]	/* CallFunction */";
};
width = 778;
}
);
note = uni278B;
unicode = 10123;
},
{
glyphname = uni278C;
layers = (
{
layerId = m01;
shapes = (
{
closed = 1;
nodes = (
(487,-12,o),
(654,85,o),
(751,252,o),
(751,350,qs),
(751,448,o),
(654,615,o),
(487,712,o),
(389,712,qs),
(291,712,o),
(124,615,o),
(27,448,o),
(27,350,qs),
(27,252,o),
(124,85,o),
(291,-12,o),
(389,-12,qs)
);
},
{
closed = 1;
nodes = (
(331,158,o),
(259,221,o),
(260,280,q),
(332,280,l),
(332,252,o),
(365,223,o),
(390,223,qs),
(417,223,o),
(447,251,o),
(447,278,qs),
(447,304,o),
(414,332,o),
(390,332,qs),
(370,332,o),
(353,322,q),
(312,369,l),
(414,458,l),
(269,458,l),
(269,522,l),
(508,522,l),
(508,459,l),
(426,389,l),
(474,382,o),
(519,322,o),
(519,279,qs),
(519,224,o),
(448,158,o),
(390,158,qs)
);
}
);
userData = {
assembly = "NPUSHB[ ]	/* 80 values pushed */
22 1 3 2 27 21 2 4 3 28 1 6 4 3 76 0 3 0 6 5 3 6 103 0 4 0 5 7 4 5 105 0 2 2 0 97 0 0 0 39 77 9 1 7 7 1 97 8 1 1 1 40 1 78 16 16 0 0 16 43 16 42 40 39 37 35 31 29 26 25 24 23 0 15 0 14 38 10 8 23
CALL[ ]	/* CallFunction */";
};
width = 778;
}
);
note = uni278C;
unicode = 10124;
},
{
glyphname = uni278D;
layers = (
{
layerId = m01;
shapes = (
{
closed = 1;
nodes = (
(487,-12,o),
(654,85,o),
(751,252,o),
(751,350,qs),
(751,448,o),
(654,615,o),
(487,712,o),
(389,712,qs),
(291,712,o),
(124,615,o),
(27,448,o),
(27,350,qs),
(27,252,o),
(124,85,o),
(291,-12,o),
(389,-12,qs)
);
},
{
closed = 1;
nodes = (
(402,238,l),
(239,238,l),
(239,299,l),
(357,533,l),
(431,533,l),
(318,303,l),
(408,303,l),
(408,392,l),
(478,392,l),
(478,303,l),
(515,303,l),
(515,238,l),
(478,238,l),
(478,176,l),
(402,176,l)
);
}
);
userData = {
assembly = "PUSHB[ ]	/* 6 values pushed */
27 1 2 3 1 76
MPPEM[ ]	/* MeasurePixelPerEm */
PUSHB[ ]	/* 1 value pushed */
9
LT[ ]	/* LessThan */
IF[ ]	/* If */
NPUSHB[ ]	/* 45 values pushed */
0 4 6 3 6 4 114 5 1 3 2 6 3 2 126 7 1 2 8 8 2 112 0 6 6 0 97 0 0 0 39 77 10 1 8 8 1 98 9 1 1 1 40 1 78
ELSE[ ]	/* Else */
MPPEM[ ]	/* MeasurePixelPerEm */
PUSHB[ ]	/* 1 value pushed */
21
LT[ ]	/* LessThan */
IF[ ]	/* If */
NPUSHB[ ]	/* 46 values pushed */
0 4 6 3 6 4 3 128 5 1 3 2 6 3 2 126 7 1 2 8 8 2 112 0 6 6 0 97 0 0 0 39 77 10 1 8 8 1 98 9 1 1 1 40 1 78
ELSE[ ]	/* Else */
NPUSHB[ ]	/* 47 values pushed */
0 4 6 3 6 4 3 128 5 1 3 2 6 3 2 126 7 1 2 8 6 2 8 126 0 6 6 0 97 0 0 0 39 77 10 1 8 8 1 98 9 1 1 1 40 1 78
EIF[ ]	/* EndIf */
EIF[ ]	/* EndIf */
NPUSHB[ ]	/* 28 values pushed */
16 16 0 0 16 30 16 30 29 28 26 25 24 23 22 21 20 19 18 17 0 15 0 14 38 11 8 23
CALL[ ]	/* CallFunction */";
};
width = 778;
}
);
note = uni278D;
unicode = 10125;
},
{
glyphname = uni278E;
layers = (
{
layerId = m01;
shapes = (
{
closed = 1;
nodes = (
(487,-12,o),
(654,85,o),
(751,252,o),
(751,350,qs),
(751,448,o),
(654,615,o),
(487,712,o),
(389,712,qs),
(291,712,o),
(124,615,o),
(27,448,o),
(27,350,qs),
(27,252,o),
(124,85,o),
(291,-12,o),
(389,-12,qs)
);
},
{
closed = 1;
nodes = (
(336,160,o),
(262,219,o),
(260,269,q),
(333,269,l),
(338,248,o),
(371,225,o),
(392,225,qs),
(418,225,o),
(449,263,o),
(449,290,qs),
(449,317,o),
(419,352,o),
(393,352,qs),
(375,352,o),
(344,332,o),
(337,316,q),
(264,316,l),
(294,524,l),
(498,524,l),
(498,458,l),
(351,458,l),
(336,387,l),
(348,400,o),
(386,413,o),
(406,413,qs),
(462,413,o),
(521,342,o),
(521,291,qs),
(521,233,o),
(449,160,o),
(392,160,qs)
);
}
);
userData = {
assembly = "NPUSHB[ ]	/* 83 values pushed */
24 1 6 2 1 76 0 3 0 2 6 3 2 105 0 5 0 8 7 5 8 103 0 6 0 7 9 6 7 105 0 4 4 0 97 0 0 0 39 77 11 1 9 9 1 97 10 1 1 1 40 1 78 16 16 0 0 16 46 16 45 43 42 40 38 34 32 30 29 28 27 26 25 22 20 0 15 0 14 38 12 8 23
CALL[ ]	/* CallFunction */";
};
width = 778;
}
);
note = uni278E;
unicode = 10126;
},
{
glyphname = uni278F;
layers = (
{
layerId = m01;
shapes = (
{
closed = 1;
nodes = (
(487,-12,o),
(654,85,o),
(751,252,o),
(751,350,qs),
(751,448,o),
(654,615,o),
(487,712,o),
(389,712,qs),
(291,712,o),
(124,615,o),
(27,448,o),
(27,350,qs),
(27,252,o),
(124,85,o),
(291,-12,o),
(389,-12,qs)
);
},
{
closed = 1;
nodes = (
(412,229,o),
(445,258,o),
(445,284,qs),
(445,310,o),
(413,340,o),
(390,340,qs),
(368,340,o),
(337,309,o),
(337,286,qs),
(337,261,o),
(367,229,o),
(392,229,qs)
);
},
{
closed = 1;
nodes = (
(324,165,o),
(255,264,o),
(255,339,qs),
(255,421,o),
(323,535,o),
(393,535,qs),
(444,535,o),
(508,473,o),
(510,429,q),
(442,429,l),
(432,474,o),
(393,474,qs),
(332,474,o),
(330,357,q),
(340,376,o),
(384,403,o),
(411,403,qs),
(457,403,o),
(516,334,o),
(516,287,qs),
(516,237,o),
(450,165,o),
(396,165,qs)
);
}
);
userData = {
assembly = "PUSHB[ ]	/* 6 values pushed */
36 1 2 4 1 76
MPPEM[ ]	/* MeasurePixelPerEm */
PUSHB[ ]	/* 1 value pushed */
23
LT[ ]	/* LessThan */
IF[ ]	/* If */
NPUSHB[ ]	/* 49 values pushed */
0 6 5 4 5 6 114 0 2 10 1 3 8 2 3 105 0 7 7 0 97 0 0 0 39 77 0 4 4 5 97 0 5 5 36 77 11 1 8 8 1 97 9 1 1 1 40 1 78
ELSE[ ]	/* Else */
MPPEM[ ]	/* MeasurePixelPerEm */
PUSHB[ ]	/* 1 value pushed */
29
LT[ ]	/* LessThan */
IF[ ]	/* If */
NPUSHB[ ]	/* 47 values pushed */
0 6 5 4 5 6 114 0 5 0 4 2 5 4 105 0 2 10 1 3 8 2 3 105 0 7 7 0 97 0 0 0 39 77 11 1 8 8 1 97 9 1 1 1 40 1 78
ELSE[ ]	/* Else */
NPUSHB[ ]	/* 48 values pushed */
0 6 5 4 5 6 4 128 0 5 0 4 2 5 4 105 0 2 10 1 3 8 2 3 105 0 7 7 0 97 0 0 0 39 77 11 1 8 8 1 97 9 1 1 1 40 1 78
EIF[ ]	/* EndIf */
EIF[ ]	/* EndIf */
NPUSHB[ ]	/* 32 values pushed */
28 28 16 16 0 0 28 50 28 49 45 43 41 40 39 37 34 32 16 27 16 26 22 20 0 15 0 14 38 12 8 23
CALL[ ]	/* CallFunction */";
};
width = 778;
}
);
note = uni278F;
unicode = 10127;
},
{
glyphname = uni2790;
layers = (
{
layerId = m01;
shapes = (
{
closed = 1;
nodes = (
(487,-12,o),
(654,85,o),
(751,252,o),
(751,350,qs),
(751,448,o),
(654,615,o),
(487,712,o),
(389,712,qs),
(291,712,o),
(124,615,o),
(27,448,o),
(27,350,qs),
(27,252,o),
(124,85,o),
(291,-12,o),
(389,-12,qs)
);
},
{
closed = 1;
nodes = (
(444,460,l),
(258,460,l),
(258,524,l),
(525,524,l),
(525,471,l),
(385,167,l),
(307,167,l)
);
}
);
userData = {
assembly = "NPUSHB[ ]	/* 57 values pushed */
17 1 3 2 1 76 0 3 2 4 2 3 4 128 0 2 2 0 97 0 0 0 39 77 6 1 4 4 1 98 5 1 1 1 40 1 78 16 16 0 0 16 22 16 22 21 20 19 18 0 15 0 14 38 7 8 23
CALL[ ]	/* CallFunction */";
};
width = 778;
}
);
note = uni2790;
unicode = 10128;
},
{
glyphname = uni2791;
layers = (
{
layerId = m01;
shapes = (
{
closed = 1;
nodes = (
(487,-12,o),
(654,85,o),
(751,252,o),
(751,350,qs),
(751,448,o),
(654,615,o),
(487,712,o),
(389,712,qs),
(291,712,o),
(124,615,o),
(27,448,o),
(27,350,qs),
(27,252,o),
(124,85,o),
(291,-12,o),
(389,-12,qs)
);
},
{
closed = 1;
nodes = (
(338,165,o),
(262,223,o),
(262,272,qs),
(262,303,o),
(290,352,o),
(318,364,q),
(270,391,o),
(270,439,qs),
(270,484,o),
(337,535,o),
(390,535,qs),
(439,535,o),
(508,485,o),
(508,439,qs),
(508,414,o),
(482,374,o),
(461,364,q),
(489,352,o),
(517,304,o),
(517,272,qs),
(517,221,o),
(443,165,o),
(390,165,qs)
);
},
{
closed = 1;
nodes = (
(415,227,o),
(443,254,o),
(443,279,qs),
(443,304,o),
(415,331,o),
(391,331,qs),
(366,331,o),
(336,305,o),
(336,279,qs),
(336,227,o),
(391,227,qs)
);
},
{
closed = 1;
nodes = (
(411,385,o),
(434,408,o),
(434,429,qs),
(434,451,o),
(411,475,o),
(390,475,qs),
(345,475,o),
(345,429,qs),
(345,409,o),
(369,385,o),
(390,385,qs)
);
}
);
userData = {
assembly = "PUSHB[ ]	/* 7 values pushed */
32 21 2 4 7 1 76
MPPEM[ ]	/* MeasurePixelPerEm */
PUSHB[ ]	/* 1 value pushed */
23
LT[ ]	/* LessThan */
IF[ ]	/* If */
NPUSHB[ ]	/* 43 values pushed */
0 4 10 1 5 3 4 5 105 0 2 2 0 97 0 0 0 39 77 11 1 7 7 6 97 0 6 6 36 77 9 1 3 3 1 97 8 1 1 1 40 1 78
ELSE[ ]	/* Else */
NPUSHB[ ]	/* 41 values pushed */
0 6 11 1 7 4 6 7 105 0 4 10 1 5 3 4 5 105 0 2 2 0 97 0 0 0 39 77 9 1 3 3 1 97 8 1 1 1 40 1 78
EIF[ ]	/* EndIf */
NPUSHB[ ]	/* 34 values pushed */
50 50 39 39 16 16 0 0 50 60 50 59 55 53 39 49 39 48 44 42 16 38 16 37 28 26 0 15 0 14 38 12 8 23
CALL[ ]	/* CallFunction */";
};
width = 778;
}
);
note = uni2791;
unicode = 10129;
},
{
glyphname = uni2792;
layers = (
{
layerId = m01;
shapes = (
{
closed = 1;
nodes = (
(487,-12,o),
(654,85,o),
(751,252,o),
(751,350,qs),
(751,448,o),
(654,615,o),
(487,712,o),
(389,712,qs),
(291,712,o),
(124,615,o),
(27,448,o),
(27,350,qs),
(27,252,o),
(124,85,o),
(291,-12,o),
(389,-12,qs)
);
},
{
closed = 1;
nodes = (
(332,165,o),
(270,228,o),
(268,271,q),
(336,271,l),
(341,248,o),
(365,226,o),
(385,226,qs),
(446,226,o),
(448,343,q),
(436,323,o),
(394,297,o),
(367,297,qs),
(342,297,o),
(294,324,o),
(262,376,o),
(262,413,qs),
(262,463,o),
(329,535,o),
(382,535,qs),
(455,535,o),
(522,434,o),
(522,361,qs),
(522,276,o),
(453,165,o),
(384,165,qs)
);
},
{
closed = 1;
nodes = (
(410,360,o),
(441,391,o),
(441,414,qs),
(441,439,o),
(410,471,o),
(386,471,qs),
(364,471,o),
(333,440,o),
(333,416,qs),
(333,392,o),
(363,360,o),
(387,360,qs)
);
}
);
userData = {
assembly = "NPUSHB[ ]	/* 86 values pushed */
31 1 3 8 1 76 0 5 3 4 3 5 4 128 0 7 11 1 8 3 7 8 105 0 3 0 4 6 3 4 105 0 2 2 0 97 0 0 0 39 77 10 1 6 6 1 97 9 1 1 1 40 1 78 41 41 16 16 0 0 41 52 41 51 47 45 16 40 16 39 37 36 34 32 29 27 22 20 0 15 0 14 38 12 8 23
CALL[ ]	/* CallFunction */";
};
width = 778;
}
);
note = uni2792;
unicode = 10130;
},
{
glyphname = uni24EA.solid;
layers = (
{
layerId = m01;
shapes = (
{
closed = 1;
nodes = (
(487,-12,o),
(654,85,o),
(751,252,o),
(751,350,qs),
(751,448,o),
(654,615,o),
(487,712,o),
(389,712,qs),
(291,712,o),
(124,615,o),
(27,448,o),
(27,350,qs),
(27,252,o),
(124,85,o),
(291,-12,o),
(389,-12,qs)
);
},
{
closed = 1;
nodes = (
(320,165,o),
(287,216,qs),
(255,264,o),
(255,350,qs),
(255,436,o),
(287,484,qs),
(320,535,o),
(390,535,qs),
(459,535,o),
(492,485,qs),
(524,435,o),
(524,350,qs),
(524,265,o),
(492,215,qs),
(459,165,o),
(390,165,qs)
);
},
{
closed = 1;
nodes = (
(420,232,o),
(433,263,qs),
(448,295,o),
(448,350,qs),
(448,406,o),
(433,437,qs),
(420,468,o),
(390,468,qs),
(360,468,o),
(345,437,qs),
(331,408,o),
(331,350,qs),
(331,292,o),
(345,263,qs),
(360,232,o),
(390,232,qs)
);
}
);
userData = {
assembly = "NPUSHB[ ]	/* 58 values pushed */
0 4 8 1 5 3 4 5 105 0 2 2 0 97 0 0 0 39 77 7 1 3 3 1 97 6 1 1 1 40 1 78 32 32 16 16 0 0 32 47 32 46 40 38 16 31 16 30 24 22 0 15 0 14 38 9 8 23
CALL[ ]	/* CallFunction */";
};
width = 778;
}
);
note = uni24EA.solid;
},
{
glyphname = zero.dnom;
layers = (
{
layerId = m01;
shapes = (
{
closed = 1;
nodes = (
(231,-5,o),
(295,94,o),
(295,177,qs),
(295,259,o),
(231,358,o),
(162,358,qs),
(93,358,o),
(29,258,o),
(29,177,qs),
(29,95,o),
(93,-5,o),
(162,-5,qs)
);
},
{
closed = 1;
nodes = (
(102,61,o),
(102,177,qs),
(102,238,o),
(135,292,o),
(162,292,qs),
(194,292,o),
(222,227,o),
(222,177,qs),
(222,127,o),
(194,61,o),
(162,61,qs)
);
}
);
userData = {
assembly = "NPUSHB[ ]	/* 39 values pushed */
0 0 0 2 3 0 2 105 5 1 3 3 1 97 4 1 1 1 34 1 78 12 12 0 0 12 22 12 21 18 16 0 11 0 10 36 6 8 23
CALL[ ]	/* CallFunction */";
};
width = 324;
}
);
note = zero.dnom;
},
{
glyphname = one.dnom;
layers = (
{
layerId = m01;
shapes = (
{
closed = 1;
nodes = (
(283,0,l),
(283,64,l),
(202,64,l),
(202,353,l),
(163,353,l),
(44,309,l),
(44,251,l),
(132,272,l),
(132,64,l),
(41,64,l),
(41,0,l)
);
}
);
userData = {
assembly = "NPUSHB[ ]	/* 32 values pushed */
4 3 2 3 0 1 1 76 0 1 0 1 133 2 1 0 0 3 96 0 3 3 34 3 78 17 17 20 16 4 8 26
CALL[ ]	/* CallFunction */";
};
width = 316;
}
);
note = one.dnom;
},
{
glyphname = two.dnom;
layers = (
{
layerId = m01;
shapes = (
{
closed = 1;
nodes = (
(31,0,l),
(277,0,l),
(277,64,l),
(131,64,l),
(193,126,ls),
(233,167,o),
(268,218,o),
(268,250,qs),
(268,300,o),
(207,358,o),
(153,358,qs),
(99,358,o),
(33,296,o),
(32,240,q),
(103,240,l),
(103,263,o),
(127,295,o),
(152,295,qs),
(173,295,o),
(197,270,o),
(197,249,qs),
(197,232,o),
(167,194,o),
(130,156,qs),
(97,121,l),
(31,52,l)
);
}
);
userData = {
assembly = "PUSHB[ ]	/* 6 values pushed */
25 1 4 3 1 76
MPPEM[ ]	/* MeasurePixelPerEm */
PUSHB[ ]	/* 1 value pushed */
23
LT[ ]	/* LessThan */
IF[ ]	/* If */
NPUSHB[ ]	/* 26 values pushed */
0 1 0 3 0 1 114 0 2 0 0 1 2 0 105 0 3 3 4 95 0 4 4 34 4 78
ELSE[ ]	/* Else */
NPUSHB[ ]	/* 27 values pushed */
0 1 0 3 0 1 3 128 0 2 0 0 1 2 0 105 0 3 3 4 95 0 4 4 34 4 78
EIF[ ]	/* EndIf */
PUSHB[ ]	/* 8 values pushed */
17 22 34 18 38 5 8 27
CALL[ ]	/* CallFunction */";
};
width = 311;
}
);
note = two.dnom;
},
{
glyphname = three.dnom;
layers = (
{
layerId = m01;
shapes = (
{
closed = 1;
nodes = (
(217,-5,o),
(286,59,o),
(286,114,qs),
(286,155,o),
(237,214,o),
(195,221,q),
(275,294,l),
(275,353,l),
(42,353,l),
(42,289,l),
(180,289,l),
(82,201,l),
(123,154,l),
(141,165,o),
(160,165,qs),
(184,165,o),
(216,138,o),
(216,113,qs),
(216,87,o),
(186,59,o),
(160,59,qs),
(133,59,o),
(102,88,o),
(102,111,q),
(31,111,l),
(32,56,o),
(102,-5,o),
(160,-5,qs)
);
}
);
userData = {
assembly = "NPUSHB[ ]	/* 15 values pushed */
20 1 3 4 21 15 2 2 3 14 1 0 2 3 76
MPPEM[ ]	/* MeasurePixelPerEm */
PUSHB[ ]	/* 1 value pushed */
11
LT[ ]	/* LessThan */
IF[ ]	/* If */
NPUSHB[ ]	/* 34 values pushed */
0 2 3 0 3 2 114 0 0 1 3 0 1 126 0 4 0 3 2 4 3 103 0 1 1 5 97 6 1 5 5 34 5 78
ELSE[ ]	/* Else */
NPUSHB[ ]	/* 35 values pushed */
0 2 3 0 3 2 0 128 0 0 1 3 0 1 126 0 4 0 3 2 4 3 103 0 1 1 5 97 6 1 5 5 34 5 78
EIF[ ]	/* EndIf */
NPUSHB[ ]	/* 14 values pushed */
0 0 0 27 0 26 17 19 36 34 18 7 8 27
CALL[ ]	/* CallFunction */";
};
width = 317;
}
);
note = three.dnom;
},
{
glyphname = four.dnom;
layers = (
{
layerId = m01;
shapes = (
{
closed = 1;
nodes = (
(249,0,l),
(249,64,l),
(289,64,l),
(289,129,l),
(249,129,l),
(249,218,l),
(180,218,l),
(180,129,l),
(99,129,l),
(210,353,l),
(137,353,l),
(20,120,l),
(20,64,l),
(176,64,l),
(176,0,l)
);
}
);
userData = {
assembly = "NPUSHB[ ]	/* 42 values pushed */
2 1 0 2 1 76 0 1 3 1 133 4 1 2 5 1 0 6 2 0 104 0 3 3 6 95 0 6 6 34 6 78 17 17 17 17 17 18 16 7 8 29
CALL[ ]	/* CallFunction */";
};
width = 304;
}
);
note = four.dnom;
},
{
glyphname = five.dnom;
layers = (
{
layerId = m01;
shapes = (
{
closed = 1;
nodes = (
(212,-5,o),
(283,67,o),
(283,123,qs),
(283,176,o),
(221,246,o),
(167,246,qs),
(131,246,o),
(104,226,q),
(116,288,l),
(260,288,l),
(260,353,l),
(61,353,l),
(30,147,l),
(100,147,l),
(108,165,o),
(137,185,o),
(157,185,qs),
(182,185,o),
(213,151,o),
(213,123,qs),
(213,95,o),
(181,59,o),
(156,59,qs),
(134,59,o),
(102,83,o),
(98,103,q),
(26,103,l),
(30,54,o),
(99,-5,o),
(156,-5,qs)
);
}
);
userData = {
assembly = "PUSHB[ ]	/* 6 values pushed */
21 1 2 6 1 76
MPPEM[ ]	/* MeasurePixelPerEm */
PUSHB[ ]	/* 1 value pushed */
9
LT[ ]	/* LessThan */
IF[ ]	/* If */
NPUSHB[ ]	/* 42 values pushed */
0 3 2 0 5 3 114 0 0 1 2 0 1 126 0 4 0 5 6 4 5 103 0 6 0 2 3 6 2 105 0 1 1 7 97 8 1 7 7 34 7 78
ELSE[ ]	/* Else */
NPUSHB[ ]	/* 43 values pushed */
0 3 2 0 2 3 0 128 0 0 1 2 0 1 126 0 4 0 5 6 4 5 103 0 6 0 2 3 6 2 105 0 1 1 7 97 8 1 7 7 34 7 78
EIF[ ]	/* EndIf */
NPUSHB[ ]	/* 16 values pushed */
0 0 0 29 0 28 34 17 17 18 36 34 18 9 8 29
CALL[ ]	/* CallFunction */";
};
width = 312;
}
);
note = five.dnom;
},
{
glyphname = six.dnom;
layers = (
{
layerId = m01;
shapes = (
{
closed = 1;
nodes = (
(217,-5,o),
(283,66,o),
(283,115,qs),
(283,168,o),
(219,231,o),
(175,231,qs),
(154,231,o),
(114,212,o),
(101,196,q),
(103,242,o),
(134,296,o),
(163,296,qs),
(201,296,o),
(209,255,q),
(277,255,l),
(272,301,o),
(211,358,o),
(163,358,qs),
(95,358,o),
(29,245,o),
(29,165,qs),
(29,91,o),
(97,-5,o),
(165,-5,qs)
);
},
{
closed = 1;
nodes = (
(139,59,o),
(108,90,o),
(108,114,qs),
(108,137,o),
(138,168,o),
(161,168,qs),
(184,168,o),
(213,138,o),
(213,113,qs),
(213,89,o),
(185,59,o),
(162,59,qs)
);
}
);
userData = {
assembly = "NPUSHB[ ]	/* 64 values pushed */
14 1 5 3 1 76 0 1 2 3 2 1 3 128 0 0 0 2 1 0 2 105 0 3 0 5 6 3 5 105 8 1 6 6 4 97 7 1 4 4 34 4 78 24 24 0 0 24 35 24 34 30 28 0 23 0 22 36 33 18 36 9 8 26
CALL[ ]	/* CallFunction */";
};
width = 312;
}
);
note = six.dnom;
},
{
glyphname = seven.dnom;
layers = (
{
layerId = m01;
shapes = (
{
closed = 1;
nodes = (
(150,-1,l),
(289,302,l),
(289,352,l),
(29,352,l),
(29,289,l),
(210,289,l),
(74,-1,l)
);
}
);
userData = {
assembly = "NPUSHB[ ]	/* 26 values pushed */
4 1 0 1 1 76 0 1 0 0 2 1 0 103 0 2 2 34 2 78 18 17 16 3 8 25
CALL[ ]	/* CallFunction */";
};
width = 318;
}
);
note = seven.dnom;
},
{
glyphname = eight.dnom;
layers = (
{
layerId = m01;
shapes = (
{
closed = 1;
nodes = (
(203,-5,o),
(276,52,o),
(276,101,qs),
(276,130,o),
(251,177,o),
(226,189,q),
(245,200,o),
(268,239,o),
(268,262,qs),
(268,307,o),
(201,358,o),
(152,358,qs),
(103,358,o),
(36,307,o),
(36,262,qs),
(36,239,o),
(59,201,o),
(79,189,q),
(55,177,o),
(28,131,o),
(28,101,qs),
(28,54,o),
(98,-5,o),
(152,-5,qs)
);
},
{
closed = 1;
nodes = (
(127,58,o),
(100,83,o),
(100,106,qs),
(100,130,o),
(128,156,o),
(153,156,qs),
(178,156,o),
(205,130,o),
(205,106,qs),
(205,83,o),
(177,58,o),
(153,58,qs)
);
},
{
closed = 1;
nodes = (
(132,213,o),
(108,235,o),
(108,254,qs),
(108,275,o),
(131,297,o),
(152,297,qs),
(173,297,o),
(197,274,o),
(197,254,qs),
(197,235,o),
(172,213,o),
(152,213,qs)
);
}
);
userData = {
assembly = "NPUSHB[ ]	/* 63 values pushed */
17 5 2 2 5 1 76 0 0 0 4 5 0 4 105 8 1 5 0 2 3 5 2 105 7 1 3 3 1 97 6 1 1 1 34 1 78 36 36 24 24 0 0 36 47 36 46 42 40 24 35 24 34 30 28 0 23 0 22 42 9 8 23
CALL[ ]	/* CallFunction */";
};
width = 304;
}
);
note = eight.dnom;
},
{
glyphname = nine.dnom;
layers = (
{
layerId = m01;
shapes = (
{
closed = 1;
nodes = (
(217,-5,o),
(284,108,o),
(284,188,qs),
(284,262,o),
(215,358,o),
(148,358,qs),
(96,358,o),
(29,287,o),
(29,238,qs),
(29,190,o),
(90,122,o),
(137,122,qs),
(159,122,o),
(199,141,o),
(212,157,q),
(210,111,o),
(179,57,o),
(150,57,qs),
(112,57,o),
(103,99,q),
(36,99,l),
(41,52,o),
(101,-5,o),
(150,-5,qs)
);
},
{
closed = 1;
nodes = (
(129,185,o),
(99,215,o),
(99,240,qs),
(99,264,o),
(128,294,o),
(151,294,qs),
(174,294,o),
(204,263,o),
(204,239,qs),
(204,216,o),
(174,185,o),
(152,185,qs)
);
}
);
userData = {
assembly = "NPUSHB[ ]	/* 64 values pushed */
8 1 2 6 1 76 0 0 2 1 2 0 1 128 0 3 0 5 6 3 5 105 8 1 6 0 2 0 6 2 105 0 1 1 4 97 7 1 4 4 34 4 78 24 24 0 0 24 35 24 34 30 28 0 23 0 22 36 36 33 18 9 8 26
CALL[ ]	/* CallFunction */";
};
width = 313;
}
);
note = nine.dnom;
},
{
glyphname = zero.numr;
layers = (
{
layerId = m01;
shapes = (
{
closed = 1;
nodes = (
(231,342,o),
(295,441,o),
(295,524,qs),
(295,606,o),
(231,705,o),
(162,705,qs),
(93,705,o),
(29,605,o),
(29,524,qs),
(29,442,o),
(93,342,o),
(162,342,qs)
);
},
{
closed = 1;
nodes = (
(102,408,o),
(102,524,qs),
(102,585,o),
(135,639,o),
(162,639,qs),
(194,639,o),
(222,574,o),
(222,524,qs),
(222,474,o),
(194,408,o),
(162,408,qs)
);
}
);
userData = {
assembly = "NPUSHB[ ]	/* 38 values pushed */
5 1 3 4 1 1 3 1 101 0 2 2 0 97 0 0 0 33 2 78 12 12 0 0 12 22 12 21 18 16 0 11 0 10 36 6 8 23
CALL[ ]	/* CallFunction */";
};
width = 324;
}
);
note = zero.numr;
},
{
glyphname = one.numr;
layers = (
{
layerId = m01;
shapes = (
{
closed = 1;
nodes = (
(283,347,l),
(283,411,l),
(202,411,l),
(202,700,l),
(163,700,l),
(44,656,l),
(44,598,l),
(132,619,l),
(132,411,l),
(41,411,l),
(41,347,l)
);
}
);
userData = {
assembly = "NPUSHB[ ]	/* 29 values pushed */
4 3 2 3 0 1 1 76 2 1 0 0 3 0 3 100 0 1 1 33 1 78 17 17 20 16 4 8 26
CALL[ ]	/* CallFunction */";
};
width = 316;
}
);
note = one.numr;
},
{
glyphname = two.numr;
layers = (
{
layerId = m01;
shapes = (
{
closed = 1;
nodes = (
(31,347,l),
(277,347,l),
(277,411,l),
(131,411,l),
(193,473,ls),
(233,514,o),
(268,565,o),
(268,597,qs),
(268,647,o),
(207,705,o),
(153,705,qs),
(99,705,o),
(33,643,o),
(32,587,q),
(103,587,l),
(103,610,o),
(127,642,o),
(152,642,qs),
(173,642,o),
(197,617,o),
(197,596,qs),
(197,579,o),
(167,541,o),
(130,503,qs),
(97,468,l),
(31,399,l)
);
}
);
userData = {
assembly = "PUSHB[ ]	/* 6 values pushed */
25 1 4 3 1 76
MPPEM[ ]	/* MeasurePixelPerEm */
PUSHB[ ]	/* 1 value pushed */
23
LT[ ]	/* LessThan */
IF[ ]	/* If */
NPUSHB[ ]	/* 25 values pushed */
0 1 0 3 0 1 114 0 3 0 4 3 4 99 0 0 0 2 97 0 2 2 33 0 78
ELSE[ ]	/* Else */
NPUSHB[ ]	/* 26 values pushed */
0 1 0 3 0 1 3 128 0 3 0 4 3 4 99 0 0 0 2 97 0 2 2 33 0 78
EIF[ ]	/* EndIf */
PUSHB[ ]	/* 8 values pushed */
17 22 34 18 38 5 8 27
CALL[ ]	/* CallFunction */";
};
width = 311;
}
);
note = two.numr;
},
{
glyphname = three.numr;
layers = (
{
layerId = m01;
shapes = (
{
closed = 1;
nodes = (
(217,342,o),
(286,406,o),
(286,461,qs),
(286,502,o),
(237,561,o),
(195,568,q),
(275,641,l),
(275,700,l),
(42,700,l),
(42,636,l),
(180,636,l),
(82,548,l),
(123,501,l),
(141,512,o),
(160,512,qs),
(184,512,o),
(216,485,o),
(216,460,qs),
(216,434,o),
(186,406,o),
(160,406,qs),
(133,406,o),
(102,435,o),
(102,458,q),
(31,458,l),
(32,403,o),
(102,342,o),
(160,342,qs)
);
}
);
userData = {
assembly = "NPUSHB[ ]	/* 15 values pushed */
20 1 3 4 21 15 2 2 3 14 1 0 2 3 76
MPPEM[ ]	/* MeasurePixelPerEm */
PUSHB[ ]	/* 1 value pushed */
11
LT[ ]	/* LessThan */
IF[ ]	/* If */
NPUSHB[ ]	/* 33 values pushed */
0 2 3 0 3 2 114 0 0 1 3 0 1 126 0 1 6 1 5 1 5 101 0 3 3 4 95 0 4 4 33 3 78
ELSE[ ]	/* Else */
NPUSHB[ ]	/* 34 values pushed */
0 2 3 0 3 2 0 128 0 0 1 3 0 1 126 0 1 6 1 5 1 5 101 0 3 3 4 95 0 4 4 33 3 78
EIF[ ]	/* EndIf */
NPUSHB[ ]	/* 14 values pushed */
0 0 0 27 0 26 17 19 36 34 18 7 8 27
CALL[ ]	/* CallFunction */";
};
width = 317;
}
);
note = three.numr;
},
{
glyphname = four.numr;
layers = (
{
layerId = m01;
shapes = (
{
closed = 1;
nodes = (
(249,347,l),
(249,411,l),
(289,411,l),
(289,476,l),
(249,476,l),
(249,565,l),
(180,565,l),
(180,476,l),
(99,476,l),
(210,700,l),
(137,700,l),
(20,467,l),
(20,411,l),
(176,411,l),
(176,347,l)
);
}
);
userData = {
assembly = "PUSHB[ ]	/* 6 values pushed */
2 1 0 2 1 76
MPPEM[ ]	/* MeasurePixelPerEm */
PUSHB[ ]	/* 1 value pushed */
25
LT[ ]	/* LessThan */
IF[ ]	/* If */
NPUSHB[ ]	/* 25 values pushed */
0 3 0 6 3 6 99 0 1 1 33 77 5 1 0 0 2 95 4 1 2 2 36 0 78
ELSE[ ]	/* Else */
NPUSHB[ ]	/* 23 values pushed */
4 1 2 5 1 0 6 2 0 104 0 3 0 6 3 6 99 0 1 1 33 1 78
EIF[ ]	/* EndIf */
NPUSHB[ ]	/* 10 values pushed */
17 17 17 17 17 18 16 7 8 29
CALL[ ]	/* CallFunction */";
};
width = 304;
}
);
note = four.numr;
},
{
glyphname = five.numr;
layers = (
{
layerId = m01;
shapes = (
{
closed = 1;
nodes = (
(212,342,o),
(283,414,o),
(283,470,qs),
(283,523,o),
(221,593,o),
(167,593,qs),
(131,593,o),
(104,573,q),
(116,635,l),
(260,635,l),
(260,700,l),
(61,700,l),
(30,494,l),
(100,494,l),
(108,512,o),
(137,532,o),
(157,532,qs),
(182,532,o),
(213,498,o),
(213,470,qs),
(213,442,o),
(181,406,o),
(156,406,qs),
(134,406,o),
(102,430,o),
(98,450,q),
(26,450,l),
(30,401,o),
(99,342,o),
(156,342,qs)
);
}
);
userData = {
assembly = "PUSHB[ ]	/* 6 values pushed */
21 1 2 6 1 76
MPPEM[ ]	/* MeasurePixelPerEm */
PUSHB[ ]	/* 1 value pushed */
9
LT[ ]	/* LessThan */
IF[ ]	/* If */
NPUSHB[ ]	/* 41 values pushed */
0 3 2 0 5 3 114 0 0 1 2 0 1 126 0 6 0 2 3 6 2 105 0 1 8 1 7 1 7 101 0 5 5 4 95 0 4 4 33 5 78
ELSE[ ]	/* Else */
NPUSHB[ ]	/* 42 values pushed */
0 3 2 0 2 3 0 128 0 0 1 2 0 1 126 0 6 0 2 3 6 2 105 0 1 8 1 7 1 7 101 0 5 5 4 95 0 4 4 33 5 78
EIF[ ]	/* EndIf */
NPUSHB[ ]	/* 16 values pushed */
0 0 0 29 0 28 34 17 17 18 36 34 18 9 8 29
CALL[ ]	/* CallFunction */";
};
width = 312;
}
);
note = five.numr;
},
{
glyphname = six.numr;
layers = (
{
layerId = m01;
shapes = (
{
closed = 1;
nodes = (
(217,342,o),
(283,413,o),
(283,462,qs),
(283,515,o),
(219,578,o),
(175,578,qs),
(154,578,o),
(114,559,o),
(101,543,q),
(103,589,o),
(134,643,o),
(163,643,qs),
(201,643,o),
(209,602,q),
(277,602,l),
(272,648,o),
(211,705,o),
(163,705,qs),
(95,705,o),
(29,592,o),
(29,512,qs),
(29,438,o),
(97,342,o),
(165,342,qs)
);
},
{
closed = 1;
nodes = (
(139,406,o),
(108,437,o),
(108,461,qs),
(108,484,o),
(138,515,o),
(161,515,qs),
(184,515,o),
(213,485,o),
(213,460,qs),
(213,436,o),
(185,406,o),
(162,406,qs)
);
}
);
userData = {
assembly = "NPUSHB[ ]	/* 63 values pushed */
14 1 5 3 1 76 0 1 2 3 2 1 3 128 0 3 0 5 6 3 5 105 8 1 6 7 1 4 6 4 101 0 2 2 0 97 0 0 0 33 2 78 24 24 0 0 24 35 24 34 30 28 0 23 0 22 36 33 18 36 9 8 26
CALL[ ]	/* CallFunction */";
};
width = 312;
}
);
note = six.numr;
},
{
glyphname = seven.numr;
layers = (
{
layerId = m01;
shapes = (
{
closed = 1;
nodes = (
(150,346,l),
(289,649,l),
(289,699,l),
(29,699,l),
(29,636,l),
(210,636,l),
(74,346,l)
);
}
);
userData = {
assembly = "NPUSHB[ ]	/* 28 values pushed */
4 1 0 1 1 76 0 2 0 2 134 0 0 0 1 95 0 1 1 33 0 78 18 17 16 3 8 25
CALL[ ]	/* CallFunction */";
};
width = 318;
}
);
note = seven.numr;
},
{
glyphname = eight.numr;
layers = (
{
layerId = m01;
shapes = (
{
closed = 1;
nodes = (
(203,342,o),
(276,399,o),
(276,448,qs),
(276,477,o),
(251,524,o),
(226,536,q),
(245,547,o),
(268,586,o),
(268,609,qs),
(268,654,o),
(201,705,o),
(152,705,qs),
(103,705,o),
(36,654,o),
(36,609,qs),
(36,586,o),
(59,548,o),
(79,536,q),
(55,524,o),
(28,478,o),
(28,448,qs),
(28,401,o),
(98,342,o),
(152,342,qs)
);
},
{
closed = 1;
nodes = (
(127,405,o),
(100,430,o),
(100,453,qs),
(100,477,o),
(128,503,o),
(153,503,qs),
(178,503,o),
(205,477,o),
(205,453,qs),
(205,430,o),
(177,405,o),
(153,405,qs)
);
},
{
closed = 1;
nodes = (
(132,560,o),
(108,582,o),
(108,601,qs),
(108,622,o),
(131,644,o),
(152,644,qs),
(173,644,o),
(197,621,o),
(197,601,qs),
(197,582,o),
(172,560,o),
(152,560,qs)
);
}
);
userData = {
assembly = "NPUSHB[ ]	/* 62 values pushed */
17 5 2 2 5 1 76 8 1 5 0 2 3 5 2 105 7 1 3 6 1 1 3 1 101 0 4 4 0 97 0 0 0 33 4 78 36 36 24 24 0 0 36 47 36 46 42 40 24 35 24 34 30 28 0 23 0 22 42 9 8 23
CALL[ ]	/* CallFunction */";
};
width = 304;
}
);
note = eight.numr;
},
{
glyphname = nine.numr;
layers = (
{
layerId = m01;
shapes = (
{
closed = 1;
nodes = (
(217,342,o),
(284,455,o),
(284,535,qs),
(284,609,o),
(215,705,o),
(148,705,qs),
(96,705,o),
(29,634,o),
(29,585,qs),
(29,537,o),
(90,469,o),
(137,469,qs),
(159,469,o),
(199,488,o),
(212,504,q),
(210,458,o),
(179,404,o),
(150,404,qs),
(112,404,o),
(103,446,q),
(36,446,l),
(41,399,o),
(101,342,o),
(150,342,qs)
);
},
{
closed = 1;
nodes = (
(129,532,o),
(99,562,o),
(99,587,qs),
(99,611,o),
(128,641,o),
(151,641,qs),
(174,641,o),
(204,610,o),
(204,586,qs),
(204,563,o),
(174,532,o),
(152,532,qs)
);
}
);
userData = {
assembly = "PUSHB[ ]	/* 6 values pushed */
8 1 2 6 1 76
MPPEM[ ]	/* MeasurePixelPerEm */
PUSHB[ ]	/* 1 value pushed */
21
LT[ ]	/* LessThan */
IF[ ]	/* If */
NPUSHB[ ]	/* 38 values pushed */
0 0 2 1 2 0 1 128 0 1 7 1 4 1 4 101 0 5 5 3 97 0 3 3 33 77 0 2 2 6 97 8 1 6 6 42 2 78
ELSE[ ]	/* Else */
NPUSHB[ ]	/* 36 values pushed */
0 0 2 1 2 0 1 128 8 1 6 0 2 0 6 2 105 0 1 7 1 4 1 4 101 0 5 5 3 97 0 3 3 33 5 78
EIF[ ]	/* EndIf */
NPUSHB[ ]	/* 21 values pushed */
24 24 0 0 24 35 24 34 30 28 0 23 0 22 36 36 33 18 9 8 26
CALL[ ]	/* CallFunction */";
};
width = 313;
}
);
note = nine.numr;
},
{
glyphname = fraction;
layers = (
{
layerId = m01;
shapes = (
{
closed = 1;
nodes = (
(82,0,l),
(602,700,l),
(513,700,l),
(-7,0,l)
);
}
);
userData = {
assembly = "NPUSHB[ ]	/* 16 values pushed */
0 0 0 33 77 0 1 1 34 1 78 17 16 2 8 24
CALL[ ]	/* CallFunction */";
};
width = 590;
}
);
note = fraction;
unicode = 8260;
},
{
glyphname = onehalf;
layers = (
{
layerId = m01;
shapes = (
{
closed = 1;
nodes = (
(279,347,l),
(279,411,l),
(198,411,l),
(198,700,l),
(159,700,l),
(40,656,l),
(40,598,l),
(128,619,l),
(128,411,l),
(37,411,l),
(37,347,l)
);
},
{
closed = 1;
nodes = (
(179,0,l),
(699,700,l),
(610,700,l),
(90,0,l)
);
},
{
closed = 1;
nodes = (
(723,0,l),
(723,64,l),
(578,64,l),
(640,126,ls),
(680,167,o),
(715,218,o),
(715,250,qs),
(715,300,o),
(653,358,o),
(599,358,qs),
(545,358,o),
(479,296,o),
(478,240,q),
(549,240,l),
(549,263,o),
(573,295,o),
(598,295,qs),
(619,295,o),
(644,270,o),
(644,249,qs),
(644,232,o),
(617,198,o),
(577,156,qs),
(477,52,l),
(477,0,l)
);
}
);
userData = {
assembly = "PUSHB[ ]	/* 2 values pushed */
6 100
WCVTP[ ]	/* WriteCVTInPixels */
NPUSHB[ ]	/* 12 values pushed */
4 3 2 3 0 1 15 1 5 9 2 76
MPPEM[ ]	/* MeasurePixelPerEm */
PUSHB[ ]	/* 1 value pushed */
23
LT[ ]	/* LessThan */
IF[ ]	/* If */
NPUSHB[ ]	/* 47 values pushed */
4 1 1 0 1 133 0 7 6 9 6 7 114 2 1 0 0 3 6 0 3 104 0 8 0 6 7 8 6 105 0 9 5 5 9 87 0 9 9 5 95 10 1 5 9 5 79
ELSE[ ]	/* Else */
NPUSHB[ ]	/* 48 values pushed */
4 1 1 0 1 133 0 7 6 9 6 7 9 128 2 1 0 0 3 6 0 3 104 0 8 0 6 7 8 6 105 0 9 5 5 9 87 0 9 9 5 95 10 1 5 9 5 79
EIF[ ]	/* EndIf */
NPUSHB[ ]	/* 16 values pushed */
39 38 37 36 34 18 39 17 17 17 17 20 16 11 8 31
CALL[ ]	/* CallFunction */
PUSHB[ ]	/* 2 values pushed */
6 0
WCVTP[ ]	/* WriteCVTInPixels */";
};
width = 768;
}
);
note = onehalf;
unicode = 189;
},
{
glyphname = onequarter;
layers = (
{
layerId = m01;
shapes = (
{
closed = 1;
nodes = (
(175,0,l),
(695,700,l),
(606,700,l),
(86,0,l)
);
},
{
closed = 1;
nodes = (
(279,347,l),
(279,411,l),
(198,411,l),
(198,700,l),
(159,700,l),
(40,656,l),
(40,598,l),
(128,619,l),
(128,411,l),
(37,411,l),
(37,347,l)
);
},
{
closed = 1;
nodes = (
(683,0,l),
(683,64,l),
(722,64,l),
(722,129,l),
(683,129,l),
(683,218,l),
(614,218,l),
(614,129,l),
(526,129,l),
(637,353,l),
(564,353,l),
(447,120,l),
(447,64,l),
(610,64,l),
(610,0,l)
);
}
);
userData = {
assembly = "PUSHB[ ]	/* 2 values pushed */
6 100
WCVTP[ ]	/* WriteCVTInPixels */
NPUSHB[ ]	/* 82 values pushed */
8 7 6 3 2 0 17 1 6 8 2 76 3 1 0 2 0 133 0 7 2 5 2 7 5 128 4 1 2 0 5 9 2 5 104 0 9 8 1 9 87 10 1 8 11 1 6 1 8 6 104 0 9 9 1 95 12 1 1 9 1 79 29 28 27 26 25 24 23 22 17 18 17 17 17 20 17 17 16 13 8 31
CALL[ ]	/* CallFunction */
PUSHB[ ]	/* 2 values pushed */
6 0
WCVTP[ ]	/* WriteCVTInPixels */";
};
width = 763;
}
);
note = onequarter;
unicode = 188;
},
{
glyphname = threequarters;
layers = (
{
layerId = m01;
shapes = (
{
closed = 1;
nodes = (
(181,0,l),
(701,700,l),
(612,700,l),
(92,0,l)
);
},
{
closed = 1;
nodes = (
(689,0,l),
(689,64,l),
(729,64,l),
(729,129,l),
(689,129,l),
(689,218,l),
(620,218,l),
(620,129,l),
(533,129,l),
(643,353,l),
(570,353,l),
(453,120,l),
(453,64,l),
(616,64,l),
(616,0,l)
);
},
{
closed = 1;
nodes = (
(225,342,o),
(295,407,o),
(295,461,qs),
(295,502,o),
(246,561,o),
(203,568,q),
(284,641,l),
(284,700,l),
(50,700,l),
(50,636,l),
(189,636,l),
(91,548,l),
(131,501,l),
(150,512,o),
(168,512,qs),
(193,512,o),
(225,485,o),
(225,460,qs),
(225,434,o),
(195,406,o),
(168,406,qs),
(142,406,o),
(111,435,o),
(111,458,q),
(40,458,l),
(41,403,o),
(111,342,o),
(168,342,qs)
);
}
);
userData = {
assembly = "PUSHB[ ]	/* 2 values pushed */
6 100
WCVTP[ ]	/* WriteCVTInPixels */
NPUSHB[ ]	/* 19 values pushed */
39 1 12 0 40 34 2 11 12 33 1 9 11 6 1 2 4 4 76
MPPEM[ ]	/* MeasurePixelPerEm */
PUSHB[ ]	/* 1 value pushed */
11
LT[ ]	/* LessThan */
IF[ ]	/* If */
NPUSHB[ ]	/* 67 values pushed */
0 11 12 9 12 11 114 0 9 10 12 9 10 126 0 3 10 14 10 3 14 128 13 1 0 0 12 11 0 12 103 0 10 15 1 14 5 10 14 105 0 5 4 1 5 87 6 1 4 7 1 2 1 4 2 104 0 5 5 1 95 8 1 1 5 1 79
ELSE[ ]	/* Else */
NPUSHB[ ]	/* 68 values pushed */
0 11 12 9 12 11 9 128 0 9 10 12 9 10 126 0 3 10 14 10 3 14 128 13 1 0 0 12 11 0 12 103 0 10 15 1 14 5 10 14 105 0 5 4 1 5 87 6 1 4 7 1 2 1 4 2 104 0 5 5 1 95 8 1 1 5 1 79
EIF[ ]	/* EndIf */
NPUSHB[ ]	/* 28 values pushed */
19 19 19 46 19 45 38 37 36 35 32 30 26 24 22 21 17 17 17 17 17 18 17 17 16 16 8 31
CALL[ ]	/* CallFunction */
PUSHB[ ]	/* 2 values pushed */
6 0
WCVTP[ ]	/* WriteCVTInPixels */";
};
width = 769;
}
);
note = threequarters;
unicode = 190;
},
{
glyphname = oneeighth;
layers = (
{
layerId = m01;
shapes = (
{
closed = 1;
nodes = (
(175,-1,l),
(695,699,l),
(606,699,l),
(87,-1,l)
);
},
{
closed = 1;
nodes = (
(279,347,l),
(279,411,l),
(198,411,l),
(198,700,l),
(159,700,l),
(40,656,l),
(40,598,l),
(128,619,l),
(128,411,l),
(37,411,l),
(37,347,l)
);
},
{
closed = 1;
nodes = (
(569,58,o),
(541,83,o),
(541,106,qs),
(541,130,o),
(569,156,o),
(594,156,qs),
(619,156,o),
(647,130,o),
(647,106,qs),
(647,83,o),
(618,58,o),
(594,58,qs)
);
},
{
closed = 1;
nodes = (
(645,-5,o),
(718,52,o),
(718,101,qs),
(718,130,o),
(692,177,o),
(667,189,q),
(687,200,o),
(710,240,o),
(710,262,qs),
(710,307,o),
(643,358,o),
(594,358,qs),
(545,358,o),
(478,307,o),
(478,262,qs),
(478,239,o),
(500,201,o),
(520,189,q),
(496,177,o),
(470,130,o),
(470,101,qs),
(470,54,o),
(540,-5,o),
(594,-5,qs)
);
},
{
closed = 1;
nodes = (
(574,213,o),
(550,235,o),
(550,254,qs),
(550,275,o),
(573,297,o),
(594,297,qs),
(615,297,o),
(638,274,o),
(638,254,qs),
(638,235,o),
(614,213,o),
(594,213,qs)
);
}
);
userData = {
assembly = "NPUSHB[ ]	/* 91 values pushed */
8 7 6 3 2 0 44 32 2 6 11 2 76 4 1 2 0 5 10 2 5 104 0 8 0 10 11 8 10 106 14 1 11 0 6 7 11 6 105 3 1 0 0 33 77 12 1 7 7 1 97 13 9 2 1 1 34 1 78 51 51 27 27 15 15 51 62 51 61 57 55 27 50 27 49 39 37 15 26 15 25 37 17 17 20 17 17 16 15 8 29
CALL[ ]	/* CallFunction */";
};
width = 764;
}
);
note = oneeighth;
unicode = 8539;
},
{
glyphname = threeeighths;
layers = (
{
layerId = m01;
shapes = (
{
closed = 1;
nodes = (
(174,-1,l),
(694,699,l),
(605,699,l),
(85,-1,l)
);
},
{
closed = 1;
nodes = (
(225,342,o),
(294,406,o),
(294,461,qs),
(294,502,o),
(246,561,o),
(203,568,q),
(283,641,l),
(283,700,l),
(50,700,l),
(50,636,l),
(188,636,l),
(90,548,l),
(131,501,l),
(150,512,o),
(168,512,qs),
(193,512,o),
(224,485,o),
(224,460,qs),
(224,434,o),
(194,406,o),
(168,406,qs),
(142,406,o),
(111,435,o),
(111,458,q),
(40,458,l),
(41,403,o),
(110,342,o),
(168,342,qs)
);
},
{
closed = 1;
nodes = (
(569,58,o),
(541,83,o),
(541,106,qs),
(541,130,o),
(569,156,o),
(594,156,qs),
(619,156,o),
(647,130,o),
(647,106,qs),
(647,83,o),
(618,58,o),
(594,58,qs)
);
},
{
closed = 1;
nodes = (
(645,-5,o),
(718,52,o),
(718,101,qs),
(718,130,o),
(692,177,o),
(667,189,q),
(687,200,o),
(710,240,o),
(710,262,qs),
(710,307,o),
(643,358,o),
(594,358,qs),
(545,358,o),
(478,307,o),
(478,262,qs),
(478,239,o),
(500,201,o),
(520,189,q),
(496,177,o),
(470,130,o),
(470,101,qs),
(470,54,o),
(540,-5,o),
(594,-5,qs)
);
},
{
closed = 1;
nodes = (
(574,213,o),
(550,235,o),
(550,254,qs),
(550,275,o),
(573,297,o),
(594,297,qs),
(615,297,o),
(638,274,o),
(638,254,qs),
(638,235,o),
(614,213,o),
(594,213,qs)
);
}
);
userData = {
assembly = "NPUSHB[ ]	/* 20 values pushed */
24 1 5 0 25 19 2 4 5 18 1 2 4 61 49 2 8 13 4 76
MPPEM[ ]	/* MeasurePixelPerEm */
PUSHB[ ]	/* 1 value pushed */
11
LT[ ]	/* LessThan */
IF[ ]	/* If */
NPUSHB[ ]	/* 65 values pushed */
0 4 5 2 5 4 114 0 2 3 5 2 3 126 0 3 14 1 7 12 3 7 105 0 10 0 12 13 10 12 106 17 1 13 0 8 9 13 8 105 0 5 5 0 95 6 1 0 0 33 77 15 1 9 9 1 97 16 11 2 1 1 34 1 78
ELSE[ ]	/* Else */
NPUSHB[ ]	/* 66 values pushed */
0 4 5 2 5 4 2 128 0 2 3 5 2 3 126 0 3 14 1 7 12 3 7 105 0 10 0 12 13 10 12 106 17 1 13 0 8 9 13 8 105 0 5 5 0 95 6 1 0 0 33 77 15 1 9 9 1 97 16 11 2 1 1 34 1 78
EIF[ ]	/* EndIf */
NPUSHB[ ]	/* 40 values pushed */
68 68 44 44 32 32 4 4 68 79 68 78 74 72 44 67 44 66 56 54 32 43 32 42 38 36 4 31 4 30 17 19 36 34 19 17 16 18 8 29
CALL[ ]	/* CallFunction */";
};
width = 761;
}
);
note = threeeighths;
unicode = 8540;
},
{
glyphname = fiveeighths;
layers = (
{
layerId = m01;
shapes = (
{
closed = 1;
nodes = (
(178,-1,l),
(698,699,l),
(608,699,l),
(89,-1,l)
);
},
{
closed = 1;
nodes = (
(227,342,o),
(298,414,o),
(298,470,qs),
(298,523,o),
(236,593,o),
(182,593,qs),
(146,593,o),
(119,573,q),
(131,635,l),
(275,635,l),
(275,700,l),
(76,700,l),
(45,494,l),
(114,494,l),
(131,532,o),
(172,532,qs),
(197,532,o),
(228,498,o),
(228,470,qs),
(228,442,o),
(196,406,o),
(171,406,qs),
(149,406,o),
(117,430,o),
(112,450,q),
(41,450,l),
(45,401,o),
(114,342,o),
(171,342,qs)
);
},
{
closed = 1;
nodes = (
(573,58,o),
(545,83,o),
(545,106,qs),
(545,130,o),
(573,156,o),
(598,156,qs),
(623,156,o),
(651,130,o),
(651,106,qs),
(651,83,o),
(622,58,o),
(598,58,qs)
);
},
{
closed = 1;
nodes = (
(649,-5,o),
(722,53,o),
(722,101,qs),
(722,130,o),
(696,177,o),
(671,189,q),
(691,200,o),
(714,240,o),
(714,262,qs),
(714,307,o),
(647,358,o),
(598,358,qs),
(549,358,o),
(482,307,o),
(482,262,qs),
(482,239,o),
(504,201,o),
(524,189,q),
(500,177,o),
(474,130,o),
(474,101,qs),
(474,54,o),
(544,-5,o),
(598,-5,qs)
);
},
{
closed = 1;
nodes = (
(578,213,o),
(554,235,o),
(554,254,qs),
(554,275,o),
(577,297,o),
(598,297,qs),
(619,297,o),
(642,274,o),
(642,254,qs),
(642,235,o),
(618,213,o),
(598,213,qs)
);
}
);
userData = {
assembly = "NPUSHB[ ]	/* 11 values pushed */
24 1 4 8 62 50 2 10 15 2 76
MPPEM[ ]	/* MeasurePixelPerEm */
PUSHB[ ]	/* 1 value pushed */
9
LT[ ]	/* LessThan */
IF[ ]	/* If */
NPUSHB[ ]	/* 73 values pushed */
0 5 4 2 7 5 114 0 2 3 4 2 3 126 0 8 0 4 5 8 4 105 0 3 16 1 9 14 3 9 105 0 12 0 14 15 12 14 106 19 1 15 0 10 11 15 10 105 0 7 7 0 95 6 1 0 0 33 77 17 1 11 11 1 97 18 13 2 1 1 34 1 78
ELSE[ ]	/* Else */
NPUSHB[ ]	/* 74 values pushed */
0 5 4 2 4 5 2 128 0 2 3 4 2 3 126 0 8 0 4 5 8 4 105 0 3 16 1 9 14 3 9 105 0 12 0 14 15 12 14 106 19 1 15 0 10 11 15 10 105 0 7 7 0 95 6 1 0 0 33 77 17 1 11 11 1 97 18 13 2 1 1 34 1 78
EIF[ ]	/* EndIf */
NPUSHB[ ]	/* 42 values pushed */
69 69 45 45 33 33 4 4 69 80 69 79 75 73 45 68 45 67 57 55 33 44 33 43 39 37 4 32 4 31 34 17 17 17 36 34 19 17 16 20 8 31
CALL[ ]	/* CallFunction */";
};
width = 765;
}
);
note = fiveeighths;
unicode = 8541;
},
{
glyphname = seveneighths;
layers = (
{
layerId = m01;
shapes = (
{
closed = 1;
nodes = (
(145,-1,l),
(665,699,l),
(576,699,l),
(56,-1,l)
);
},
{
closed = 1;
nodes = (
(552,58,o),
(524,83,o),
(524,106,qs),
(524,130,o),
(552,156,o),
(577,156,qs),
(602,156,o),
(629,130,o),
(629,106,qs),
(629,83,o),
(601,58,o),
(577,58,qs)
);
},
{
closed = 1;
nodes = (
(175,346,l),
(314,649,l),
(314,699,l),
(54,699,l),
(54,636,l),
(235,636,l),
(99,346,l)
);
},
{
closed = 1;
nodes = (
(628,-5,o),
(701,52,o),
(701,101,qs),
(701,130,o),
(675,177,o),
(650,189,q),
(670,200,o),
(693,240,o),
(693,262,qs),
(693,307,o),
(626,358,o),
(577,358,qs),
(528,358,o),
(461,307,o),
(461,262,qs),
(461,239,o),
(483,201,o),
(503,189,q),
(479,177,o),
(452,131,o),
(452,101,qs),
(452,54,o),
(523,-5,o),
(577,-5,qs)
);
},
{
closed = 1;
nodes = (
(557,213,o),
(532,235,o),
(532,254,qs),
(532,275,o),
(556,297,o),
(577,297,qs),
(597,297,o),
(621,274,o),
(621,254,qs),
(621,235,o),
(597,213,o),
(577,213,qs)
);
}
);
userData = {
assembly = "NPUSHB[ ]	/* 95 values pushed */
20 1 4 0 40 28 2 2 10 2 76 0 6 7 9 7 6 9 128 0 7 0 9 10 7 9 106 13 1 10 0 2 3 10 2 105 0 4 4 0 95 5 1 0 0 33 77 11 1 3 3 1 97 12 8 2 1 1 34 1 78 47 47 23 23 4 4 47 58 47 57 53 51 23 46 23 45 35 33 22 21 19 18 17 16 4 15 4 14 37 17 16 14 8 25
CALL[ ]	/* CallFunction */";
};
width = 741;
}
);
note = seveneighths;
unicode = 8542;
},
{
glyphname = uni2080;
layers = (
{
layerId = m01;
shapes = (
{
closed = 1;
nodes = (
(231,-5,o),
(295,94,o),
(295,177,qs),
(295,259,o),
(231,358,o),
(162,358,qs),
(93,358,o),
(29,258,o),
(29,177,qs),
(29,95,o),
(93,-5,o),
(162,-5,qs)
);
},
{
closed = 1;
nodes = (
(102,61,o),
(102,177,qs),
(102,238,o),
(135,292,o),
(162,292,qs),
(194,292,o),
(222,227,o),
(222,177,qs),
(222,127,o),
(194,61,o),
(162,61,qs)
);
}
);
userData = {
assembly = "NPUSHB[ ]	/* 41 values pushed */
0 2 2 0 97 0 0 0 51 77 5 1 3 3 1 97 4 1 1 1 52 1 78 12 12 0 0 12 22 12 21 18 16 0 11 0 10 36 6 9 23
CALL[ ]	/* CallFunction */";
};
width = 324;
}
);
note = uni2080;
unicode = 8320;
},
{
glyphname = uni2081;
layers = (
{
layerId = m01;
shapes = (
{
closed = 1;
nodes = (
(283,0,l),
(283,64,l),
(202,64,l),
(202,353,l),
(163,353,l),
(44,309,l),
(44,251,l),
(132,272,l),
(132,64,l),
(41,64,l),
(41,0,l)
);
}
);
userData = {
assembly = "NPUSHB[ ]	/* 32 values pushed */
4 3 2 3 0 1 1 76 0 1 1 49 77 2 1 0 0 3 96 0 3 3 50 3 78 17 17 20 16 4 9 26
CALL[ ]	/* CallFunction */";
};
width = 316;
}
);
note = uni2081;
unicode = 8321;
},
{
glyphname = uni2082;
layers = (
{
layerId = m01;
shapes = (
{
closed = 1;
nodes = (
(31,0,l),
(277,0,l),
(277,64,l),
(131,64,l),
(193,126,ls),
(233,167,o),
(268,218,o),
(268,250,qs),
(268,300,o),
(207,358,o),
(153,358,qs),
(99,358,o),
(33,296,o),
(32,240,q),
(103,240,l),
(103,263,o),
(127,295,o),
(152,295,qs),
(173,295,o),
(197,270,o),
(197,249,qs),
(197,232,o),
(167,194,o),
(130,156,qs),
(97,121,l),
(31,52,l)
);
}
);
userData = {
assembly = "PUSHB[ ]	/* 6 values pushed */
25 1 4 3 1 76
MPPEM[ ]	/* MeasurePixelPerEm */
PUSHB[ ]	/* 1 value pushed */
23
LT[ ]	/* LessThan */
IF[ ]	/* If */
NPUSHB[ ]	/* 28 values pushed */
0 1 0 3 0 1 114 0 0 0 2 97 0 2 2 51 77 0 3 3 4 95 0 4 4 50 4 78
ELSE[ ]	/* Else */
NPUSHB[ ]	/* 29 values pushed */
0 1 0 3 0 1 3 128 0 0 0 2 97 0 2 2 51 77 0 3 3 4 95 0 4 4 50 4 78
EIF[ ]	/* EndIf */
PUSHB[ ]	/* 8 values pushed */
17 22 34 18 38 5 9 27
CALL[ ]	/* CallFunction */";
};
width = 311;
}
);
note = uni2082;
unicode = 8322;
},
{
glyphname = uni2083;
layers = (
{
layerId = m01;
shapes = (
{
closed = 1;
nodes = (
(217,-5,o),
(286,59,o),
(286,114,qs),
(286,155,o),
(237,214,o),
(195,221,q),
(275,294,l),
(275,353,l),
(42,353,l),
(42,289,l),
(180,289,l),
(82,201,l),
(123,154,l),
(141,165,o),
(160,165,qs),
(184,165,o),
(216,138,o),
(216,113,qs),
(216,87,o),
(186,59,o),
(160,59,qs),
(133,59,o),
(102,88,o),
(102,111,q),
(31,111,l),
(32,56,o),
(102,-5,o),
(160,-5,qs)
);
}
);
userData = {
assembly = "NPUSHB[ ]	/* 15 values pushed */
20 1 3 4 21 15 2 2 3 14 1 0 2 3 76
MPPEM[ ]	/* MeasurePixelPerEm */
PUSHB[ ]	/* 1 value pushed */
11
LT[ ]	/* LessThan */
IF[ ]	/* If */
NPUSHB[ ]	/* 36 values pushed */
0 2 3 0 3 2 114 0 0 1 3 0 1 126 0 3 3 4 95 0 4 4 49 77 0 1 1 5 97 6 1 5 5 52 5 78
ELSE[ ]	/* Else */
NPUSHB[ ]	/* 37 values pushed */
0 2 3 0 3 2 0 128 0 0 1 3 0 1 126 0 3 3 4 95 0 4 4 49 77 0 1 1 5 97 6 1 5 5 52 5 78
EIF[ ]	/* EndIf */
NPUSHB[ ]	/* 14 values pushed */
0 0 0 27 0 26 17 19 36 34 18 7 9 27
CALL[ ]	/* CallFunction */";
};
width = 317;
}
);
note = uni2083;
unicode = 8323;
},
{
glyphname = uni2084;
layers = (
{
layerId = m01;
shapes = (
{
closed = 1;
nodes = (
(249,0,l),
(249,64,l),
(289,64,l),
(289,129,l),
(249,129,l),
(249,218,l),
(180,218,l),
(180,129,l),
(99,129,l),
(210,353,l),
(137,353,l),
(20,120,l),
(20,64,l),
(176,64,l),
(176,0,l)
);
}
);
userData = {
assembly = "PUSHB[ ]	/* 6 values pushed */
2 1 0 2 1 76
MPPEM[ ]	/* MeasurePixelPerEm */
PUSHB[ ]	/* 1 value pushed */
15
LT[ ]	/* LessThan */
IF[ ]	/* If */
NPUSHB[ ]	/* 28 values pushed */
0 3 1 2 2 3 114 4 1 2 5 1 0 6 2 0 104 0 1 1 49 77 0 6 6 50 6 78
ELSE[ ]	/* Else */
NPUSHB[ ]	/* 29 values pushed */
0 3 1 2 1 3 2 128 4 1 2 5 1 0 6 2 0 104 0 1 1 49 77 0 6 6 50 6 78
EIF[ ]	/* EndIf */
NPUSHB[ ]	/* 10 values pushed */
17 17 17 17 17 18 16 7 9 29
CALL[ ]	/* CallFunction */";
};
width = 304;
}
);
note = uni2084;
unicode = 8324;
},
{
glyphname = uni2085;
layers = (
{
layerId = m01;
shapes = (
{
closed = 1;
nodes = (
(212,-5,o),
(283,67,o),
(283,123,qs),
(283,176,o),
(221,246,o),
(167,246,qs),
(131,246,o),
(104,226,q),
(116,288,l),
(260,288,l),
(260,353,l),
(61,353,l),
(30,147,l),
(100,147,l),
(108,165,o),
(137,185,o),
(157,185,qs),
(182,185,o),
(213,151,o),
(213,123,qs),
(213,95,o),
(181,59,o),
(156,59,qs),
(134,59,o),
(102,83,o),
(98,103,q),
(26,103,l),
(30,54,o),
(99,-5,o),
(156,-5,qs)
);
}
);
userData = {
assembly = "PUSHB[ ]	/* 6 values pushed */
21 1 2 6 1 76
MPPEM[ ]	/* MeasurePixelPerEm */
PUSHB[ ]	/* 1 value pushed */
9
LT[ ]	/* LessThan */
IF[ ]	/* If */
NPUSHB[ ]	/* 44 values pushed */
0 3 2 0 5 3 114 0 0 1 2 0 1 126 0 6 0 2 3 6 2 105 0 5 5 4 95 0 4 4 49 77 0 1 1 7 97 8 1 7 7 52 7 78
ELSE[ ]	/* Else */
NPUSHB[ ]	/* 45 values pushed */
0 3 2 0 2 3 0 128 0 0 1 2 0 1 126 0 6 0 2 3 6 2 105 0 5 5 4 95 0 4 4 49 77 0 1 1 7 97 8 1 7 7 52 7 78
EIF[ ]	/* EndIf */
NPUSHB[ ]	/* 16 values pushed */
0 0 0 29 0 28 34 17 17 18 36 34 18 9 9 29
CALL[ ]	/* CallFunction */";
};
width = 312;
}
);
note = uni2085;
unicode = 8325;
},
{
glyphname = uni2086;
layers = (
{
layerId = m01;
shapes = (
{
closed = 1;
nodes = (
(217,-5,o),
(283,66,o),
(283,115,qs),
(283,168,o),
(219,231,o),
(175,231,qs),
(154,231,o),
(114,212,o),
(101,196,q),
(103,242,o),
(134,296,o),
(163,296,qs),
(201,296,o),
(209,255,q),
(277,255,l),
(272,301,o),
(211,358,o),
(163,358,qs),
(95,358,o),
(29,245,o),
(29,165,qs),
(29,91,o),
(97,-5,o),
(165,-5,qs)
);
},
{
closed = 1;
nodes = (
(139,59,o),
(108,90,o),
(108,114,qs),
(108,137,o),
(138,168,o),
(161,168,qs),
(184,168,o),
(213,138,o),
(213,113,qs),
(213,89,o),
(185,59,o),
(162,59,qs)
);
}
);
userData = {
assembly = "NPUSHB[ ]	/* 66 values pushed */
14 1 5 3 1 76 0 1 2 3 2 1 3 128 0 3 0 5 6 3 5 105 0 2 2 0 97 0 0 0 51 77 8 1 6 6 4 97 7 1 4 4 52 4 78 24 24 0 0 24 35 24 34 30 28 0 23 0 22 36 33 18 36 9 9 26
CALL[ ]	/* CallFunction */";
};
width = 312;
}
);
note = uni2086;
unicode = 8326;
},
{
glyphname = uni2087;
layers = (
{
layerId = m01;
shapes = (
{
closed = 1;
nodes = (
(150,-1,l),
(289,302,l),
(289,352,l),
(29,352,l),
(29,289,l),
(210,289,l),
(74,-1,l)
);
}
);
userData = {
assembly = "NPUSHB[ ]	/* 28 values pushed */
4 1 0 1 1 76 0 0 0 1 95 0 1 1 49 77 0 2 2 50 2 78 18 17 16 3 9 25
CALL[ ]	/* CallFunction */";
};
width = 318;
}
);
note = uni2087;
unicode = 8327;
},
{
glyphname = uni2088;
layers = (
{
layerId = m01;
shapes = (
{
closed = 1;
nodes = (
(203,-5,o),
(276,52,o),
(276,101,qs),
(276,130,o),
(251,177,o),
(226,189,q),
(245,200,o),
(268,239,o),
(268,262,qs),
(268,307,o),
(201,358,o),
(152,358,qs),
(103,358,o),
(36,307,o),
(36,262,qs),
(36,239,o),
(59,201,o),
(79,189,q),
(55,177,o),
(28,131,o),
(28,101,qs),
(28,54,o),
(98,-5,o),
(152,-5,qs)
);
},
{
closed = 1;
nodes = (
(127,58,o),
(100,83,o),
(100,106,qs),
(100,130,o),
(128,156,o),
(153,156,qs),
(178,156,o),
(205,130,o),
(205,106,qs),
(205,83,o),
(177,58,o),
(153,58,qs)
);
},
{
closed = 1;
nodes = (
(132,213,o),
(108,235,o),
(108,254,qs),
(108,275,o),
(131,297,o),
(152,297,qs),
(173,297,o),
(197,274,o),
(197,254,qs),
(197,235,o),
(172,213,o),
(152,213,qs)
);
}
);
userData = {
assembly = "NPUSHB[ ]	/* 65 values pushed */
17 5 2 2 5 1 76 8 1 5 0 2 3 5 2 105 0 4 4 0 97 0 0 0 51 77 7 1 3 3 1 97 6 1 1 1 52 1 78 36 36 24 24 0 0 36 47 36 46 42 40 24 35 24 34 30 28 0 23 0 22 42 9 9 23
CALL[ ]	/* CallFunction */";
};
width = 304;
}
);
note = uni2088;
unicode = 8328;
},
{
glyphname = uni2089;
layers = (
{
layerId = m01;
shapes = (
{
closed = 1;
nodes = (
(217,-5,o),
(284,108,o),
(284,188,qs),
(284,262,o),
(215,358,o),
(148,358,qs),
(96,358,o),
(29,287,o),
(29,238,qs),
(29,190,o),
(90,122,o),
(137,122,qs),
(159,122,o),
(199,141,o),
(212,157,q),
(210,111,o),
(179,57,o),
(150,57,qs),
(112,57,o),
(103,99,q),
(36,99,l),
(41,52,o),
(101,-5,o),
(150,-5,qs)
);
},
{
closed = 1;
nodes = (
(129,185,o),
(99,215,o),
(99,240,qs),
(99,264,o),
(128,294,o),
(151,294,qs),
(174,294,o),
(204,263,o),
(204,239,qs),
(204,216,o),
(174,185,o),
(152,185,qs)
);
}
);
userData = {
assembly = "NPUSHB[ ]	/* 66 values pushed */
8 1 2 6 1 76 0 0 2 1 2 0 1 128 8 1 6 0 2 0 6 2 105 0 5 5 3 97 0 3 3 51 77 0 1 1 4 97 7 1 4 4 52 4 78 24 24 0 0 24 35 24 34 30 28 0 23 0 22 36 36 33 18 9 9 26
CALL[ ]	/* CallFunction */";
};
width = 313;
}
);
note = uni2089;
unicode = 8329;
},
{
glyphname = uni2070;
layers = (
{
layerId = m01;
shapes = (
{
closed = 1;
nodes = (
(231,342,o),
(295,441,o),
(295,524,qs),
(295,606,o),
(231,705,o),
(162,705,qs),
(93,705,o),
(29,605,o),
(29,524,qs),
(29,442,o),
(93,342,o),
(162,342,qs)
);
},
{
closed = 1;
nodes = (
(102,408,o),
(102,524,qs),
(102,585,o),
(135,639,o),
(162,639,qs),
(194,639,o),
(222,574,o),
(222,524,qs),
(222,474,o),
(194,408,o),
(162,408,qs)
);
}
);
userData = {
assembly = "NPUSHB[ ]	/* 41 values pushed */
0 2 2 0 97 0 0 0 59 77 5 1 3 3 1 97 4 1 1 1 60 1 78 12 12 0 0 12 22 12 21 18 16 0 11 0 10 36 6 10 23
CALL[ ]	/* CallFunction */";
};
width = 324;
}
);
note = uni2070;
unicode = 8304;
},
{
glyphname = uni00B9;
layers = (
{
layerId = m01;
shapes = (
{
closed = 1;
nodes = (
(283,347,l),
(283,411,l),
(202,411,l),
(202,700,l),
(163,700,l),
(44,656,l),
(44,598,l),
(132,619,l),
(132,411,l),
(41,411,l),
(41,347,l)
);
}
);
userData = {
assembly = "NPUSHB[ ]	/* 32 values pushed */
4 3 2 3 0 1 1 76 0 1 1 57 77 2 1 0 0 3 96 0 3 3 58 3 78 17 17 20 16 4 10 26
CALL[ ]	/* CallFunction */";
};
width = 309;
}
);
note = uni00B9;
unicode = 185;
},
{
glyphname = uni00B2;
layers = (
{
layerId = m01;
shapes = (
{
closed = 1;
nodes = (
(31,347,l),
(277,347,l),
(277,411,l),
(131,411,l),
(193,473,ls),
(233,514,o),
(268,565,o),
(268,597,qs),
(268,647,o),
(207,705,o),
(153,705,qs),
(99,705,o),
(33,643,o),
(32,587,q),
(103,587,l),
(103,610,o),
(127,642,o),
(152,642,qs),
(173,642,o),
(197,617,o),
(197,596,qs),
(197,579,o),
(167,541,o),
(130,503,qs),
(97,468,l),
(31,399,l)
);
}
);
userData = {
assembly = "PUSHB[ ]	/* 6 values pushed */
25 1 4 3 1 76
MPPEM[ ]	/* MeasurePixelPerEm */
PUSHB[ ]	/* 1 value pushed */
23
LT[ ]	/* LessThan */
IF[ ]	/* If */
NPUSHB[ ]	/* 28 values pushed */
0 1 0 3 0 1 114 0 0 0 2 97 0 2 2 59 77 0 3 3 4 95 0 4 4 58 4 78
ELSE[ ]	/* Else */
NPUSHB[ ]	/* 29 values pushed */
0 1 0 3 0 1 3 128 0 0 0 2 97 0 2 2 59 77 0 3 3 4 95 0 4 4 58 4 78
EIF[ ]	/* EndIf */
PUSHB[ ]	/* 8 values pushed */
17 22 34 18 38 5 10 27
CALL[ ]	/* CallFunction */";
};
width = 311;
}
);
note = uni00B2;
unicode = 178;
},
{
glyphname = uni00B3;
layers = (
{
layerId = m01;
shapes = (
{
closed = 1;
nodes = (
(217,342,o),
(286,406,o),
(286,461,qs),
(286,502,o),
(237,561,o),
(195,568,q),
(275,641,l),
(275,700,l),
(42,700,l),
(42,636,l),
(180,636,l),
(82,548,l),
(123,501,l),
(141,512,o),
(160,512,qs),
(184,512,o),
(216,485,o),
(216,460,qs),
(216,434,o),
(186,406,o),
(160,406,qs),
(133,406,o),
(102,435,o),
(102,458,q),
(31,458,l),
(32,403,o),
(102,342,o),
(160,342,qs)
);
}
);
userData = {
assembly = "NPUSHB[ ]	/* 15 values pushed */
20 1 3 4 21 15 2 2 3 14 1 0 2 3 76
MPPEM[ ]	/* MeasurePixelPerEm */
PUSHB[ ]	/* 1 value pushed */
11
LT[ ]	/* LessThan */
IF[ ]	/* If */
NPUSHB[ ]	/* 36 values pushed */
0 2 3 0 3 2 114 0 0 1 3 0 1 126 0 3 3 4 95 0 4 4 57 77 0 1 1 5 97 6 1 5 5 60 5 78
ELSE[ ]	/* Else */
NPUSHB[ ]	/* 37 values pushed */
0 2 3 0 3 2 0 128 0 0 1 3 0 1 126 0 3 3 4 95 0 4 4 57 77 0 1 1 5 97 6 1 5 5 60 5 78
EIF[ ]	/* EndIf */
NPUSHB[ ]	/* 14 values pushed */
0 0 0 27 0 26 17 19 36 34 18 7 10 27
CALL[ ]	/* CallFunction */";
};
width = 317;
}
);
note = uni00B3;
unicode = 179;
},
{
glyphname = uni2074;
layers = (
{
layerId = m01;
shapes = (
{
closed = 1;
nodes = (
(248,347,l),
(248,411,l),
(289,411,l),
(289,475,l),
(248,475,l),
(248,564,l),
(181,564,l),
(181,475,l),
(98,475,l),
(209,700,l),
(137,700,l),
(20,467,l),
(20,411,l),
(177,411,l),
(177,347,l)
);
}
);
userData = {
assembly = "PUSHB[ ]	/* 6 values pushed */
2 1 0 2 1 76
MPPEM[ ]	/* MeasurePixelPerEm */
PUSHB[ ]	/* 1 value pushed */
15
LT[ ]	/* LessThan */
IF[ ]	/* If */
NPUSHB[ ]	/* 28 values pushed */
0 3 1 2 2 3 114 4 1 2 5 1 0 6 2 0 104 0 1 1 57 77 0 6 6 58 6 78
ELSE[ ]	/* Else */
NPUSHB[ ]	/* 29 values pushed */
0 3 1 2 1 3 2 128 4 1 2 5 1 0 6 2 0 104 0 1 1 57 77 0 6 6 58 6 78
EIF[ ]	/* EndIf */
NPUSHB[ ]	/* 10 values pushed */
17 17 17 17 17 18 16 7 10 29
CALL[ ]	/* CallFunction */";
};
width = 304;
}
);
note = uni2074;
unicode = 8308;
},
{
glyphname = uni2075;
layers = (
{
layerId = m01;
shapes = (
{
closed = 1;
nodes = (
(212,342,o),
(283,414,o),
(283,470,qs),
(283,523,o),
(221,593,o),
(167,593,qs),
(131,593,o),
(104,573,q),
(116,635,l),
(260,635,l),
(260,700,l),
(61,700,l),
(30,494,l),
(100,494,l),
(108,512,o),
(137,532,o),
(157,532,qs),
(182,532,o),
(213,498,o),
(213,470,qs),
(213,442,o),
(181,406,o),
(156,406,qs),
(134,406,o),
(102,430,o),
(98,450,q),
(26,450,l),
(30,401,o),
(99,342,o),
(156,342,qs)
);
}
);
userData = {
assembly = "PUSHB[ ]	/* 6 values pushed */
21 1 2 6 1 76
MPPEM[ ]	/* MeasurePixelPerEm */
PUSHB[ ]	/* 1 value pushed */
9
LT[ ]	/* LessThan */
IF[ ]	/* If */
NPUSHB[ ]	/* 44 values pushed */
0 3 2 0 5 3 114 0 0 1 2 0 1 126 0 6 0 2 3 6 2 105 0 5 5 4 95 0 4 4 57 77 0 1 1 7 97 8 1 7 7 60 7 78
ELSE[ ]	/* Else */
NPUSHB[ ]	/* 45 values pushed */
0 3 2 0 2 3 0 128 0 0 1 2 0 1 126 0 6 0 2 3 6 2 105 0 5 5 4 95 0 4 4 57 77 0 1 1 7 97 8 1 7 7 60 7 78
EIF[ ]	/* EndIf */
NPUSHB[ ]	/* 16 values pushed */
0 0 0 29 0 28 34 17 17 18 36 34 18 9 10 29
CALL[ ]	/* CallFunction */";
};
width = 312;
}
);
note = uni2075;
unicode = 8309;
},
{
glyphname = uni2076;
layers = (
{
layerId = m01;
shapes = (
{
closed = 1;
nodes = (
(217,342,o),
(283,413,o),
(283,462,qs),
(283,515,o),
(219,578,o),
(175,578,qs),
(154,578,o),
(114,559,o),
(101,543,q),
(103,589,o),
(134,643,o),
(163,643,qs),
(201,643,o),
(209,602,q),
(277,602,l),
(272,648,o),
(211,705,o),
(163,705,qs),
(95,705,o),
(29,592,o),
(29,512,qs),
(29,438,o),
(97,342,o),
(165,342,qs)
);
},
{
closed = 1;
nodes = (
(139,406,o),
(108,437,o),
(108,461,qs),
(108,484,o),
(138,515,o),
(161,515,qs),
(184,515,o),
(213,485,o),
(213,460,qs),
(213,436,o),
(185,406,o),
(162,406,qs)
);
}
);
userData = {
assembly = "NPUSHB[ ]	/* 66 values pushed */
14 1 5 3 1 76 0 1 2 3 2 1 3 128 0 3 0 5 6 3 5 105 0 2 2 0 97 0 0 0 59 77 8 1 6 6 4 97 7 1 4 4 60 4 78 24 24 0 0 24 35 24 34 30 28 0 23 0 22 36 33 18 36 9 10 26
CALL[ ]	/* CallFunction */";
};
width = 312;
}
);
note = uni2076;
unicode = 8310;
},
{
glyphname = uni2077;
layers = (
{
layerId = m01;
shapes = (
{
closed = 1;
nodes = (
(150,346,l),
(289,649,l),
(289,699,l),
(29,699,l),
(29,636,l),
(210,636,l),
(74,346,l)
);
}
);
userData = {
assembly = "NPUSHB[ ]	/* 28 values pushed */
4 1 0 1 1 76 0 0 0 1 95 0 1 1 57 77 0 2 2 58 2 78 18 17 16 3 10 25
CALL[ ]	/* CallFunction */";
};
width = 318;
}
);
note = uni2077;
unicode = 8311;
},
{
glyphname = uni2078;
layers = (
{
layerId = m01;
shapes = (
{
closed = 1;
nodes = (
(203,342,o),
(276,399,o),
(276,448,qs),
(276,477,o),
(251,524,o),
(226,536,q),
(245,547,o),
(268,586,o),
(268,609,qs),
(268,654,o),
(201,705,o),
(152,705,qs),
(103,705,o),
(36,654,o),
(36,609,qs),
(36,586,o),
(59,548,o),
(79,536,q),
(55,524,o),
(28,478,o),
(28,448,qs),
(28,401,o),
(98,342,o),
(152,342,qs)
);
},
{
closed = 1;
nodes = (
(127,405,o),
(100,430,o),
(100,453,qs),
(100,477,o),
(128,503,o),
(153,503,qs),
(178,503,o),
(205,477,o),
(205,453,qs),
(205,430,o),
(177,405,o),
(153,405,qs)
);
},
{
closed = 1;
nodes = (
(132,560,o),
(108,582,o),
(108,601,qs),
(108,622,o),
(131,644,o),
(152,644,qs),
(173,644,o),
(197,621,o),
(197,601,qs),
(197,582,o),
(172,560,o),
(152,560,qs)
);
}
);
userData = {
assembly = "NPUSHB[ ]	/* 65 values pushed */
17 5 2 2 5 1 76 8 1 5 0 2 3 5 2 105 0 4 4 0 97 0 0 0 59 77 7 1 3 3 1 97 6 1 1 1 60 1 78 36 36 24 24 0 0 36 47 36 46 42 40 24 35 24 34 30 28 0 23 0 22 42 9 10 23
CALL[ ]	/* CallFunction */";
};
width = 304;
}
);
note = uni2078;
unicode = 8312;
},
{
glyphname = uni2079;
layers = (
{
layerId = m01;
shapes = (
{
closed = 1;
nodes = (
(217,342,o),
(284,455,o),
(284,535,qs),
(284,609,o),
(215,705,o),
(148,705,qs),
(96,705,o),
(29,634,o),
(29,585,qs),
(29,537,o),
(90,469,o),
(137,469,qs),
(159,469,o),
(199,488,o),
(212,504,q),
(210,458,o),
(179,404,o),
(150,404,qs),
(112,404,o),
(103,446,q),
(36,446,l),
(41,399,o),
(101,342,o),
(150,342,qs)
);
},
{
closed = 1;
nodes = (
(129,532,o),
(99,562,o),
(99,587,qs),
(99,611,o),
(128,641,o),
(151,641,qs),
(174,641,o),
(204,610,o),
(204,586,qs),
(204,563,o),
(174,532,o),
(152,532,qs)
);
}
);
userData = {
assembly = "NPUSHB[ ]	/* 66 values pushed */
8 1 2 6 1 76 0 0 2 1 2 0 1 128 8 1 6 0 2 0 6 2 105 0 5 5 3 97 0 3 3 59 77 0 1 1 4 97 7 1 4 4 60 4 78 24 24 0 0 24 35 24 34 30 28 0 23 0 22 36 36 33 18 9 10 26
CALL[ ]	/* CallFunction */";
};
width = 313;
}
);
note = uni2079;
unicode = 8313;
},
{
glyphname = period;
kernLeft = period;
kernRight = period;
layers = (
{
layerId = m01;
shapes = (
{
closed = 1;
nodes = (
(139,-10,o),
(182,34,o),
(182,65,qs),
(182,96,o),
(139,139,o),
(108,139,qs),
(77,139,o),
(33,96,o),
(33,65,qs),
(33,34,o),
(77,-10,o),
(108,-10,qs)
);
}
);
userData = {
assembly = "NPUSHB[ ]	/* 22 values pushed */
0 0 0 1 97 2 1 1 1 40 1 78 0 0 0 11 0 10 36 3 8 23
CALL[ ]	/* CallFunction */";
};
width = 216;
}
);
note = period;
unicode = 46;
},
{
glyphname = comma;
kernLeft = comma;
kernRight = comma;
layers = (
{
layerId = m01;
shapes = (
{
closed = 1;
nodes = (
(85,-117,l),
(179,123,l),
(67,123,l),
(10,-117,l)
);
}
);
userData = {
assembly = "NPUSHB[ ]	/* 21 values pushed */
0 0 1 1 0 87 0 0 0 1 95 0 1 0 1 79 17 16 2 8 24
CALL[ ]	/* CallFunction */";
};
width = 213;
}
);
note = comma;
unicode = 44;
},
{
glyphname = colon;
kernLeft = colon;
kernRight = colon;
layers = (
{
layerId = m01;
shapes = (
{
closed = 1;
nodes = (
(144,362,o),
(187,405,o),
(187,436,qs),
(187,467,o),
(144,511,o),
(113,511,qs),
(81,511,o),
(38,468,o),
(38,436,qs),
(38,405,o),
(81,362,o),
(113,362,qs)
);
},
{
closed = 1;
nodes = (
(144,-10,o),
(187,34,o),
(187,65,qs),
(187,96,o),
(144,139,o),
(113,139,qs),
(81,139,o),
(38,96,o),
(38,65,qs),
(38,33,o),
(81,-10,o),
(113,-10,qs)
);
}
);
userData = {
assembly = "NPUSHB[ ]	/* 41 values pushed */
4 1 1 1 0 97 0 0 0 42 77 0 2 2 3 97 5 1 3 3 40 3 78 12 12 0 0 12 23 12 22 18 16 0 11 0 10 36 6 8 23
CALL[ ]	/* CallFunction */";
};
width = 228;
}
);
note = colon;
unicode = 58;
},
{
glyphname = semicolon;
kernLeft = semicolon;
kernRight = semicolon;
layers = (
{
layerId = m01;
shapes = (
{
closed = 1;
nodes = (
(99,-117,l),
(193,123,l),
(81,123,l),
(24,-117,l)
);
},
{
closed = 1;
nodes = (
(168,362,o),
(211,405,o),
(211,436,qs),
(211,467,o),
(168,511,o),
(137,511,qs),
(106,511,o),
(62,468,o),
(62,436,qs),
(62,405,o),
(106,362,o),
(137,362,qs)
);
}
);
userData = {
assembly = "NPUSHB[ ]	/* 31 values pushed */
0 0 0 1 0 1 99 4 1 3 3 2 97 0 2 2 42 3 78 4 4 4 15 4 14 37 17 16 5 8 25
CALL[ ]	/* CallFunction */";
};
width = 252;
}
);
note = semicolon;
unicode = 59;
},
{
glyphname = ellipsis;
kernLeft = period;
kernRight = period;
layers = (
{
layerId = m01;
shapes = (
{
closed = 1;
nodes = (
(563,-10,o),
(606,34,o),
(606,65,qs),
(606,96,o),
(563,139,o),
(532,139,qs),
(501,139,o),
(457,96,o),
(457,65,qs),
(457,34,o),
(501,-10,o),
(532,-10,qs)
);
},
{
closed = 1;
nodes = (
(146,-10,o),
(189,34,o),
(189,65,qs),
(189,96,o),
(146,139,o),
(115,139,qs),
(83,139,o),
(40,96,o),
(40,65,qs),
(40,33,o),
(83,-10,o),
(115,-10,qs)
);
},
{
closed = 1;
nodes = (
(355,-10,o),
(398,34,o),
(398,65,qs),
(398,96,o),
(354,139,o),
(323,139,qs),
(292,139,o),
(249,96,o),
(249,65,qs),
(249,33,o),
(292,-10,o),
(323,-10,qs)
);
}
);
userData = {
assembly = "NPUSHB[ ]	/* 44 values pushed */
4 2 2 0 0 1 97 8 5 7 3 6 5 1 1 40 1 78 24 24 12 12 0 0 24 35 24 34 30 28 12 23 12 22 18 16 0 11 0 10 36 9 8 23
CALL[ ]	/* CallFunction */";
};
width = 646;
}
);
note = ellipsis;
unicode = 8230;
},
{
glyphname = exclam;
layers = (
{
layerId = m01;
shapes = (
{
closed = 1;
nodes = (
(183,212,l),
(196,700,l),
(74,700,l),
(87,212,l)
);
},
{
closed = 1;
nodes = (
(168,-10,o),
(211,34,o),
(211,65,qs),
(211,96,o),
(168,139,o),
(137,139,qs),
(106,139,o),
(62,96,o),
(62,65,qs),
(62,34,o),
(106,-10,o),
(137,-10,qs)
);
}
);
userData = {
assembly = "NPUSHB[ ]	/* 34 values pushed */
0 1 1 0 95 0 0 0 33 77 0 2 2 3 97 4 1 3 3 40 3 78 4 4 4 15 4 14 37 17 16 5 8 25
CALL[ ]	/* CallFunction */";
};
width = 273;
}
);
note = exclam;
unicode = 33;
},
{
glyphname = exclamdown;
kernLeft = exclamdown;
kernRight = exclamdown;
layers = (
{
layerId = m01;
shapes = (
{
closed = 1;
nodes = (
(199,-140,l),
(186,348,l),
(90,348,l),
(78,-140,l)
);
},
{
closed = 1;
nodes = (
(171,421,o),
(215,464,o),
(215,495,qs),
(215,526,o),
(171,569,o),
(140,569,qs),
(109,569,o),
(66,526,o),
(66,495,qs),
(66,464,o),
(109,421,o),
(140,421,qs)
);
}
);
userData = {
assembly = "NPUSHB[ ]	/* 37 values pushed */
0 2 4 1 3 0 2 3 105 0 0 1 1 0 87 0 0 0 1 95 0 1 0 1 79 4 4 4 15 4 14 37 17 16 5 8 25
CALL[ ]	/* CallFunction */";
};
width = 280;
}
);
note = exclamdown;
unicode = 161;
},
{
glyphname = question;
kernLeft = question;
kernRight = question;
layers = (
{
layerId = m01;
shapes = (
{
closed = 1;
nodes = (
(241,211,l),
(244,298,l),
(317,300,o),
(368,321,qs),
(423,343,o),
(483,435,o),
(483,504,qs),
(483,569,o),
(454,616,qs),
(425,663,o),
(323,712,o),
(256,712,qs),
(188,712,o),
(136,686,qs),
(86,660,o),
(31,567,o),
(32,507,q),
(139,507,l),
(139,558,o),
(201,618,o),
(256,618,qs),
(309,618,o),
(373,557,o),
(373,504,qs),
(373,449,o),
(346,422,qs),
(321,395,o),
(237,374,o),
(179,374,qs),
(138,374,l),
(142,211,l)
);
},
{
closed = 1;
nodes = (
(223,-10,o),
(266,34,o),
(266,65,qs),
(266,96,o),
(223,139,o),
(192,139,qs),
(160,139,o),
(117,96,o),
(117,65,qs),
(117,33,o),
(160,-10,o),
(192,-10,qs)
);
}
);
userData = {
assembly = "NPUSHB[ ]	/* 62 values pushed */
0 2 1 0 1 2 0 128 0 4 0 5 0 4 5 128 0 0 0 5 6 0 5 103 0 1 1 3 97 0 3 3 39 77 0 6 6 7 97 8 1 7 7 40 7 78 31 31 31 42 31 41 37 17 24 36 18 38 32 9 8 29
CALL[ ]	/* CallFunction */";
};
width = 523;
}
);
note = question;
unicode = 63;
},
{
glyphname = questiondown;
kernLeft = questiondown;
kernRight = questiondown;
layers = (
{
layerId = m01;
shapes = (
{
closed = 1;
nodes = (
(336,-159,o),
(387,-132,qs),
(438,-106,o),
(492,-13,o),
(492,47,q),
(384,47,l),
(384,-5,o),
(323,-64,o),
(268,-64,qs),
(214,-64,o),
(150,-3,o),
(150,49,qs),
(150,104,o),
(177,132,qs),
(202,158,o),
(286,179,o),
(345,179,qs),
(386,179,l),
(382,343,l),
(282,343,l),
(279,255,l),
(208,253,o),
(155,233,qs),
(100,211,o),
(41,119,o),
(41,50,qs),
(41,-16,o),
(69,-63,qs),
(98,-109,o),
(201,-159,o),
(267,-159,qs)
);
},
{
closed = 1;
nodes = (
(363,414,o),
(406,457,o),
(406,489,qs),
(406,520,o),
(363,563,o),
(332,563,qs),
(301,563,o),
(257,520,o),
(257,489,qs),
(257,458,o),
(301,414,o),
(332,414,qs)
);
}
);
userData = {
assembly = "NPUSHB[ ]	/* 72 values pushed */
0 0 1 2 1 0 2 128 0 4 2 3 2 4 3 128 0 6 9 1 7 1 6 7 105 0 1 0 2 4 1 2 105 0 3 5 5 3 89 0 3 3 5 98 8 1 5 3 5 82 31 31 0 0 31 42 31 41 37 35 0 30 0 29 18 38 33 17 24 10 8 27
CALL[ ]	/* CallFunction */";
};
width = 523;
}
);
note = questiondown;
unicode = 191;
},
{
glyphname = periodcentered;
layers = (
{
layerId = m01;
shapes = (
{
closed = 1;
nodes = (
(144,265,o),
(187,308,o),
(187,339,qs),
(187,370,o),
(144,414,o),
(113,414,qs),
(81,414,o),
(38,371,o),
(38,339,qs),
(38,308,o),
(81,265,o),
(113,265,qs)
);
}
);
userData = {
assembly = "NPUSHB[ ]	/* 27 values pushed */
0 0 1 1 0 89 0 0 0 1 97 2 1 1 0 1 81 0 0 0 11 0 10 36 3 8 23
CALL[ ]	/* CallFunction */";
};
width = 225;
}
);
note = periodcentered;
unicode = 183;
},
{
glyphname = bullet;
layers = (
{
layerId = m01;
shapes = (
{
closed = 1;
nodes = (
(240,203,o),
(316,278,o),
(316,333,qs),
(316,388,o),
(240,464,o),
(185,464,qs),
(150,464,o),
(91,429,o),
(56,369,o),
(56,333,qs),
(56,298,o),
(91,238,o),
(150,203,o),
(185,203,qs)
);
}
);
userData = {
assembly = "NPUSHB[ ]	/* 27 values pushed */
0 0 1 1 0 89 0 0 0 1 97 2 1 1 0 1 81 0 0 0 13 0 12 38 3 8 23
CALL[ ]	/* CallFunction */";
};
width = 373;
}
);
note = bullet;
unicode = 8226;
},
{
glyphname = asterisk;
kernLeft = asterisk;
kernRight = asterisk;
layers = (
{
layerId = m01;
shapes = (
{
closed = 1;
nodes = (
(283,359,l),
(283,484,l),
(393,422,l),
(429,485,l),
(320,548,l),
(429,610,l),
(393,673,l),
(283,610,l),
(283,736,l),
(211,736,l),
(211,610,l),
(102,673,l),
(66,610,l),
(174,548,l),
(66,485,l),
(102,422,l),
(211,484,l),
(211,359,l)
);
}
);
userData = {
assembly = "NPUSHB[ ]	/* 40 values pushed */
15 14 13 12 11 10 9 6 5 4 3 2 1 0 14 1 0 1 76 0 0 1 1 0 87 0 0 0 1 95 0 1 0 1 79 24 23 2 8 24
CALL[ ]	/* CallFunction */";
};
width = 492;
}
);
note = asterisk;
unicode = 42;
},
{
glyphname = numbersign;
layers = (
{
layerId = m01;
shapes = (
{
closed = 1;
nodes = (
(249,0,l),
(288,182,l),
(486,182,l),
(446,0,l),
(554,0,l),
(593,182,l),
(752,182,l),
(752,284,l),
(615,284,l),
(647,436,l),
(802,436,l),
(802,537,l),
(669,537,l),
(707,717,l),
(600,717,l),
(562,537,l),
(363,537,l),
(402,717,l),
(295,717,l),
(257,537,l),
(87,537,l),
(87,436,l),
(235,436,l),
(203,284,l),
(37,284,l),
(37,182,l),
(181,182,l),
(142,0,l)
);
},
{
closed = 1;
nodes = (
(342,436,l),
(540,436,l),
(507,284,l),
(309,284,l)
);
}
);
userData = {
assembly = "MPPEM[ ]	/* MeasurePixelPerEm */
PUSHB[ ]	/* 1 value pushed */
29
LT[ ]	/* LessThan */
IF[ ]	/* If */
NPUSHB[ ]	/* 38 values pushed */
7 5 2 3 14 8 2 2 1 3 2 104 16 15 9 3 1 12 10 2 0 11 1 0 103 6 1 4 4 33 77 13 1 11 11 34 11 78
ELSE[ ]	/* Else */
NPUSHB[ ]	/* 38 values pushed */
6 1 4 3 4 133 7 5 2 3 14 8 2 2 1 3 2 104 16 15 9 3 1 12 10 2 0 11 1 0 103 13 1 11 11 34 11 78
EIF[ ]	/* EndIf */
NPUSHB[ ]	/* 30 values pushed */
28 28 28 31 28 31 30 29 27 26 25 24 23 22 21 20 19 18 17 17 17 17 17 17 17 17 16 17 8 31
CALL[ ]	/* CallFunction */";
};
width = 845;
}
);
note = numbersign;
unicode = 35;
},
{
glyphname = slash;
kernLeft = slash;
kernRight = slash;
layers = (
{
layerId = m01;
shapes = (
{
closed = 1;
nodes = (
(135,-106,l),
(386,773,l),
(275,773,l),
(25,-106,l)
);
}
);
userData = {
assembly = "NPUSHB[ ]	/* 14 values pushed */
0 0 1 0 133 0 1 1 118 17 16 2 8 24
CALL[ ]	/* CallFunction */";
};
width = 411;
}
);
note = slash;
unicode = 47;
},
{
glyphname = backslash;
kernLeft = backslash;
kernRight = backslash;
layers = (
{
layerId = m01;
shapes = (
{
closed = 1;
nodes = (
(386,-106,l),
(136,773,l),
(25,773,l),
(275,-106,l)
);
}
);
userData = {
assembly = "NPUSHB[ ]	/* 14 values pushed */
0 0 1 0 133 0 1 1 118 17 16 2 8 24
CALL[ ]	/* CallFunction */";
};
width = 411;
}
);
note = backslash;
unicode = 92;
},
{
glyphname = periodcentered.loclCAT;
layers = (
{
layerId = m01;
shapes = (
{
closed = 1;
nodes = (
(106,265,o),
(149,308,o),
(149,339,qs),
(149,370,o),
(106,414,o),
(75,414,qs),
(43,414,o),
(0,371,o),
(0,339,qs),
(0,308,o),
(43,265,o),
(75,265,qs)
);
}
);
userData = {
assembly = "NPUSHB[ ]	/* 27 values pushed */
0 0 1 1 0 89 0 0 0 1 97 2 1 1 0 1 81 0 0 0 11 0 10 36 3 8 23
CALL[ ]	/* CallFunction */";
};
width = 149;
}
);
note = periodcentered.loclCAT;
},
{
glyphname = periodcentered.loclCAT.case;
layers = (
{
layerId = m01;
shapes = (
{
closed = 1;
nodes = (
(-108,276,o),
(-64,319,o),
(-64,350,qs),
(-64,381,o),
(-107,424,o),
(-139,424,qs),
(-171,424,o),
(-213,382,o),
(-213,350,qs),
(-213,319,o),
(-170,276,o),
(-139,276,qs)
);
}
);
userData = {
assembly = "NPUSHB[ ]	/* 27 values pushed */
0 0 1 1 0 89 0 0 0 1 97 2 1 1 0 1 81 0 0 0 11 0 10 36 3 8 23
CALL[ ]	/* CallFunction */";
};
width = 0;
}
);
note = periodcentered.loclCAT.case;
},
{
glyphname = hyphen;
kernLeft = hyphen;
kernRight = hyphen;
layers = (
{
layerId = m01;
shapes = (
{
closed = 1;
nodes = (
(404,242,l),
(404,337,l),
(56,337,l),
(56,242,l)
);
}
);
userData = {
assembly = "NPUSHB[ ]	/* 21 values pushed */
0 0 1 1 0 87 0 0 0 1 95 0 1 0 1 79 17 16 2 8 24
CALL[ ]	/* CallFunction */";
};
width = 460;
}
);
note = hyphen;
unicode = 45;
},
{
glyphname = endash;
kernLeft = hyphen;
kernRight = hyphen;
layers = (
{
layerId = m01;
shapes = (
{
closed = 1;
nodes = (
(590,242,l),
(590,337,l),
(56,337,l),
(56,242,l)
);
}
);
userData = {
assembly = "NPUSHB[ ]	/* 21 values pushed */
0 0 1 1 0 87 0 0 0 1 95 0 1 0 1 79 17 16 2 8 24
CALL[ ]	/* CallFunction */";
};
width = 646;
}
);
note = endash;
unicode = 8211;
},
{
glyphname = emdash;
kernLeft = hyphen;
kernRight = hyphen;
layers = (
{
layerId = m01;
shapes = (
{
closed = 1;
nodes = (
(805,242,l),
(805,337,l),
(56,337,l),
(56,242,l)
);
}
);
userData = {
assembly = "NPUSHB[ ]	/* 21 values pushed */
0 0 1 1 0 87 0 0 0 1 95 0 1 0 1 79 17 16 2 8 24
CALL[ ]	/* CallFunction */";
};
width = 861;
}
);
note = emdash;
unicode = 8212;
},
{
glyphname = underscore;
kernLeft = underscore;
kernRight = underscore;
layers = (
{
layerId = m01;
shapes = (
{
closed = 1;
nodes = (
(612,-145,l),
(612,-37,l),
(56,-37,l),
(56,-145,l)
);
}
);
userData = {
assembly = "PUSHB[ ]	/* 2 values pushed */
6 100
WCVTP[ ]	/* WriteCVTInPixels */
NPUSHB[ ]	/* 21 values pushed */
0 0 1 1 0 87 0 0 0 1 95 0 1 0 1 79 17 16 2 8 24
CALL[ ]	/* CallFunction */
PUSHB[ ]	/* 2 values pushed */
6 0
WCVTP[ ]	/* WriteCVTInPixels */";
};
width = 668;
}
);
note = underscore;
unicode = 95;
},
{
glyphname = parenleft;
kernRight = parenleft;
layers = (
{
layerId = m01;
shapes = (
{
closed = 1;
nodes = (
(356,-145,l),
(356,-134,l),
(263,-38,o),
(158,202,o),
(158,333,qs),
(158,464,o),
(263,704,o),
(356,800,q),
(356,811,l),
(242,811,l),
(188,758,o),
(143,684,qs),
(97,608,o),
(46,430,o),
(46,333,qs),
(46,234,o),
(72,144,qs),
(98,58,o),
(185,-89,o),
(242,-145,q)
);
}
);
userData = {
assembly = "NPUSHB[ ]	/* 28 values pushed */
17 11 2 1 0 1 76 0 0 1 1 0 87 0 0 0 1 95 0 1 0 1 79 24 25 2 8 24
CALL[ ]	/* CallFunction */";
};
width = 390;
}
);
note = parenleft;
unicode = 40;
},
{
glyphname = parenright;
kernLeft = parenright;
layers = (
{
layerId = m01;
shapes = (
{
closed = 1;
nodes = (
(34,-145,l),
(148,-145,l),
(205,-88,o),
(293,58,o),
(319,144,qs),
(344,231,o),
(344,333,qs),
(344,431,o),
(294,609,o),
(248,684,qs),
(201,760,o),
(148,811,q),
(34,811,l),
(34,800,l),
(127,704,o),
(232,464,o),
(232,333,qs),
(232,202,o),
(127,-38,o),
(34,-134,q)
);
}
);
userData = {
assembly = "NPUSHB[ ]	/* 28 values pushed */
19 5 2 1 0 1 76 0 0 1 1 0 87 0 0 0 1 95 0 1 0 1 79 26 22 2 8 24
CALL[ ]	/* CallFunction */";
};
width = 390;
}
);
note = parenright;
unicode = 41;
},
{
glyphname = braceleft;
kernLeft = braceleft;
kernRight = braceleft;
layers = (
{
layerId = m01;
shapes = (
{
closed = 1;
nodes = (
(392,-166,l),
(392,-71,l),
(353,-71,ls),
(277,-71,o),
(277,4,qs),
(277,43,o),
(287,88,qs),
(296,127,o),
(296,181,qs),
(296,236,o),
(242,310,o),
(187,322,q),
(187,324,l),
(242,336,o),
(296,409,o),
(296,464,qs),
(296,519,o),
(287,559,qs),
(277,596,o),
(277,641,qs),
(277,716,o),
(353,716,qs),
(392,716,l),
(392,811,l),
(332,811,ls),
(256,811,o),
(167,729,o),
(167,651,qs),
(167,611,o),
(178,561,qs),
(182,541,o),
(189,494,o),
(189,469,qs),
(189,383,o),
(88,369,q),
(88,277,l),
(142,269,o),
(189,215,o),
(189,177,qs),
(189,152,o),
(182,104,o),
(178,83,qs),
(167,34,o),
(167,-5,qs),
(167,-83,o),
(256,-166,o),
(332,-166,qs)
);
}
);
userData = {
assembly = "NPUSHB[ ]	/* 48 values pushed */
33 11 10 3 2 1 1 76 0 0 0 1 2 0 1 105 0 2 3 3 2 89 0 2 2 3 97 4 1 3 2 3 81 0 0 0 46 0 45 44 42 25 23 22 20 5 8 22
CALL[ ]	/* CallFunction */";
};
width = 450;
}
);
note = braceleft;
unicode = 123;
},
{
glyphname = braceright;
kernLeft = braceright;
kernRight = braceright;
layers = (
{
layerId = m01;
shapes = (
{
closed = 1;
nodes = (
(118,-166,ls),
(194,-166,o),
(282,-83,o),
(282,-5,qs),
(282,29,o),
(272,83,qs),
(261,134,o),
(261,177,qs),
(261,216,o),
(307,269,o),
(361,277,q),
(361,369,l),
(261,383,o),
(261,469,qs),
(261,512,o),
(272,561,qs),
(282,615,o),
(282,651,qs),
(282,729,o),
(194,811,o),
(118,811,qs),
(58,811,l),
(58,716,l),
(97,716,ls),
(173,716,o),
(173,641,qs),
(173,608,o),
(164,561,qs),
(153,517,o),
(153,464,qs),
(153,409,o),
(208,336,o),
(263,324,q),
(263,322,l),
(208,310,o),
(153,236,o),
(153,181,qs),
(153,128,o),
(165,80,qs),
(173,40,o),
(173,4,qs),
(173,-71,o),
(97,-71,qs),
(58,-71,l),
(58,-166,l)
);
}
);
userData = {
assembly = "NPUSHB[ ]	/* 42 values pushed */
33 32 10 3 0 1 1 76 0 2 0 1 0 2 1 105 0 0 3 3 0 89 0 0 0 3 97 0 3 0 3 81 44 42 24 22 21 19 32 4 8 23
CALL[ ]	/* CallFunction */";
};
width = 450;
}
);
note = braceright;
unicode = 125;
},
{
glyphname = bracketleft;
layers = (
{
layerId = m01;
shapes = (
{
closed = 1;
nodes = (
(287,-164,l),
(287,-70,l),
(176,-70,l),
(176,719,l),
(287,719,l),
(287,811,l),
(70,811,l),
(70,-164,l)
);
}
);
userData = {
assembly = "NPUSHB[ ]	/* 31 values pushed */
0 0 0 1 2 0 1 103 0 2 3 3 2 87 0 2 2 3 95 0 3 2 3 79 17 17 17 16 4 8 26
CALL[ ]	/* CallFunction */";
};
width = 342;
}
);
note = bracketleft;
unicode = 91;
},
{
glyphname = bracketright;
layers = (
{
layerId = m01;
shapes = (
{
closed = 1;
nodes = (
(272,-164,l),
(272,811,l),
(56,811,l),
(56,719,l),
(166,719,l),
(166,-70,l),
(56,-70,l),
(56,-164,l)
);
}
);
userData = {
assembly = "NPUSHB[ ]	/* 31 values pushed */
0 2 0 1 0 2 1 103 0 0 3 3 0 87 0 0 0 3 95 0 3 0 3 79 17 17 17 16 4 8 26
CALL[ ]	/* CallFunction */";
};
width = 342;
}
);
note = bracketright;
unicode = 93;
},
{
glyphname = quotesinglbase;
layers = (
{
layerId = m01;
shapes = (
{
closed = 1;
nodes = (
(89,-116,l),
(187,123,l),
(66,123,l),
(10,-116,l)
);
}
);
userData = {
assembly = "NPUSHB[ ]	/* 21 values pushed */
0 0 1 1 0 87 0 0 0 1 95 0 1 0 1 79 17 16 2 8 24
CALL[ ]	/* CallFunction */";
};
width = 221;
}
);
note = quotesinglbase;
unicode = 8218;
},
{
glyphname = quotedblbase;
layers = (
{
layerId = m01;
shapes = (
{
closed = 1;
nodes = (
(89,-116,l),
(187,123,l),
(66,123,l),
(10,-116,l)
);
},
{
closed = 1;
nodes = (
(270,-116,l),
(368,123,l),
(247,123,l),
(192,-116,l)
);
}
);
userData = {
assembly = "NPUSHB[ ]	/* 26 values pushed */
2 1 0 1 1 0 87 2 1 0 0 1 95 3 1 1 0 1 79 17 17 17 16 4 8 26
CALL[ ]	/* CallFunction */";
};
width = 402;
}
);
note = quotedblbase;
unicode = 8222;
},
{
glyphname = quotedblleft;
layers = (
{
layerId = m01;
shapes = (
{
closed = 1;
nodes = (
(333,462,l),
(389,700,l),
(311,700,l),
(212,462,l)
);
},
{
closed = 1;
nodes = (
(153,462,l),
(208,700,l),
(130,700,l),
(32,462,l)
);
}
);
userData = {
assembly = "NPUSHB[ ]	/* 20 values pushed */
3 1 1 1 0 95 2 1 0 0 33 1 78 17 17 17 16 4 8 26
CALL[ ]	/* CallFunction */";
};
width = 427;
}
);
note = quotedblleft;
unicode = 8220;
},
{
glyphname = quotedblright;
kernRight = quotedblright;
layers = (
{
layerId = m01;
shapes = (
{
closed = 1;
nodes = (
(297,462,l),
(396,701,l),
(274,701,l),
(219,462,l)
);
},
{
closed = 1;
nodes = (
(117,462,l),
(216,701,l),
(94,701,l),
(38,462,l)
);
}
);
userData = {
assembly = "NPUSHB[ ]	/* 20 values pushed */
3 1 1 1 0 95 2 1 0 0 33 1 78 17 17 17 16 4 8 26
CALL[ ]	/* CallFunction */";
};
width = 427;
}
);
note = quotedblright;
unicode = 8221;
},
{
glyphname = quoteleft;
layers = (
{
layerId = m01;
shapes = (
{
closed = 1;
nodes = (
(153,462,l),
(208,700,l),
(130,700,l),
(32,462,l)
);
}
);
userData = {
assembly = "NPUSHB[ ]	/* 16 values pushed */
0 1 1 0 95 0 0 0 33 1 78 17 16 2 8 24
CALL[ ]	/* CallFunction */";
};
width = 247;
}
);
note = quoteleft;
unicode = 8216;
},
{
glyphname = quoteright;
kernRight = quotedblright;
layers = (
{
layerId = m01;
shapes = (
{
closed = 1;
nodes = (
(117,462,l),
(216,700,l),
(94,700,l),
(38,462,l)
);
}
);
userData = {
assembly = "NPUSHB[ ]	/* 16 values pushed */
0 1 1 0 95 0 0 0 33 1 78 17 16 2 8 24
CALL[ ]	/* CallFunction */";
};
width = 247;
}
);
note = quoteright;
unicode = 8217;
},
{
glyphname = guillemotleft;
kernLeft = guillemotleft;
layers = (
{
layerId = m01;
shapes = (
{
closed = 1;
nodes = (
(437,120,l),
(342,295,l),
(437,470,l),
(329,470,l),
(237,295,l),
(329,120,l)
);
},
{
closed = 1;
nodes = (
(243,120,l),
(148,295,l),
(243,470,l),
(136,470,l),
(43,295,l),
(136,120,l)
);
}
);
userData = {
assembly = "NPUSHB[ ]	/* 33 values pushed */
9 3 2 1 0 1 76 2 1 0 1 1 0 87 2 1 0 0 1 95 3 1 1 0 1 79 18 18 18 17 4 8 26
CALL[ ]	/* CallFunction */";
};
width = 487;
}
);
note = guillemotleft;
unicode = 171;
},
{
glyphname = guillemotright;
layers = (
{
layerId = m01;
shapes = (
{
closed = 1;
nodes = (
(352,120,l),
(445,295,l),
(352,470,l),
(244,470,l),
(339,295,l),
(244,120,l)
);
},
{
closed = 1;
nodes = (
(158,120,l),
(251,295,l),
(158,470,l),
(50,470,l),
(145,295,l),
(50,120,l)
);
}
);
userData = {
assembly = "NPUSHB[ ]	/* 33 values pushed */
9 3 2 1 0 1 76 2 1 0 1 1 0 87 2 1 0 0 1 95 3 1 1 0 1 79 18 18 18 17 4 8 26
CALL[ ]	/* CallFunction */";
};
width = 487;
}
);
note = guillemotright;
unicode = 187;
},
{
glyphname = guilsinglleft;
kernLeft = guillemotleft;
layers = (
{
layerId = m01;
shapes = (
{
closed = 1;
nodes = (
(243,120,l),
(148,295,l),
(243,470,l),
(136,470,l),
(43,295,l),
(136,120,l)
);
}
);
userData = {
assembly = "NPUSHB[ ]	/* 27 values pushed */
3 1 1 0 1 76 0 0 1 1 0 87 0 0 0 1 95 0 1 0 1 79 18 17 2 8 24
CALL[ ]	/* CallFunction */";
};
width = 293;
}
);
note = guilsinglleft;
unicode = 8249;
},
{
glyphname = guilsinglright;
layers = (
{
layerId = m01;
shapes = (
{
closed = 1;
nodes = (
(158,120,l),
(251,295,l),
(158,470,l),
(50,470,l),
(145,295,l),
(50,120,l)
);
}
);
userData = {
assembly = "NPUSHB[ ]	/* 27 values pushed */
3 1 1 0 1 76 0 0 1 1 0 87 0 0 0 1 95 0 1 0 1 79 18 17 2 8 24
CALL[ ]	/* CallFunction */";
};
width = 293;
}
);
note = guilsinglright;
unicode = 8250;
},
{
glyphname = quotedbl;
kernRight = quotedblright;
layers = (
{
layerId = m01;
shapes = (
{
closed = 1;
nodes = (
(297,462,l),
(396,701,l),
(274,701,l),
(219,462,l)
);
},
{
closed = 1;
nodes = (
(117,462,l),
(216,701,l),
(94,701,l),
(38,462,l)
);
}
);
userData = {
assembly = "NPUSHB[ ]	/* 20 values pushed */
3 1 1 1 0 95 2 1 0 0 33 1 78 17 17 17 16 4 8 26
CALL[ ]	/* CallFunction */";
};
width = 427;
}
);
note = quotedbl;
unicode = 34;
},
{
glyphname = quotesingle;
kernLeft = quotesingle;
kernRight = quotedblright;
layers = (
{
layerId = m01;
shapes = (
{
closed = 1;
nodes = (
(110,462,l),
(209,700,l),
(88,700,l),
(32,462,l)
);
}
);
userData = {
assembly = "NPUSHB[ ]	/* 16 values pushed */
0 1 1 0 95 0 0 0 33 1 78 17 16 2 8 24
CALL[ ]	/* CallFunction */";
};
width = 232;
}
);
note = quotesingle;
unicode = 39;
},
{
glyphname = florin;
layers = (
{
layerId = m01;
shapes = (
{
closed = 1;
nodes = (
(-24,-216,ls),
(54,-216,o),
(142,-145,o),
(151,-63,qs),
(206,457,l),
(314,457,l),
(322,551,l),
(216,551,l),
(220,591,ls),
(224,636,o),
(276,676,o),
(329,676,q),
(338,771,l),
(230,771,o),
(116,684,o),
(107,591,qs),
(103,551,l),
(36,551,l),
(27,457,l),
(92,457,l),
(38,-63,ls),
(34,-95,o),
(8,-121,o),
(-18,-121,qs),
(-41,-121,l),
(-51,-216,l)
);
}
);
userData = {
assembly = "NPUSHB[ ]	/* 40 values pushed */
0 3 0 4 2 3 4 105 5 1 2 6 1 1 0 2 1 103 0 0 0 7 97 0 7 7 38 7 78 35 17 19 17 19 17 19 32 8 8 30
CALL[ ]	/* CallFunction */";
};
width = 334;
}
);
note = florin;
unicode = 402;
},
